Junicode-width.glyphspackage
{
glyphname = numbersign;
layers = (
{
layerId = master01;
shapes = (
{
closed = 1;
nodes = (
(108,5,l),
(159,194,l),
(277,194,l),
(227,5,l),
(271,5,l),
(321,194,l),
(428,194,l),
(428,236,l),
(332,236,l),
(378,408,l),
(485,408,l),
(485,450,l),
(390,450,l),
(432,610,l),
(389,610,l),
(346,450,l),
(228,450,l),
(271,610,l),
(227,610,l),
(184,450,l),
(69,450,l),
(69,408,l),
(173,408,l),
(126,236,l),
(12,236,l),
(12,194,l),
(115,194,l),
(65,5,l)
);
},
{
closed = 1;
nodes = (
(216,408,l),
(334,408,l),
(289,236,l),
(170,236,l)
);
}
);
width = 496;
},
{
layerId = "75918100-ED89-42A8-B0FE-888EB9C86810";
shapes = (
{
closed = 1;
nodes = (
(124,5,l),
(172,186,l),
(260,186,l),
(212,5,l),
(278,5,l),
(326,186,l),
(431,186,l),
(431,251,l),
(343,251,l),
(381,392,l),
(485,392,l),
(485,456,l),
(398,456,l),
(439,610,l),
(373,610,l),
(332,456,l),
(244,456,l),
(285,610,l),
(219,610,l),
(178,456,l),
(66,456,l),
(66,392,l),
(161,392,l),
(124,251,l),
(12,251,l),
(12,186,l),
(107,186,l),
(58,5,l)
);
},
{
closed = 1;
nodes = (
(227,392,l),
(315,392,l),
(278,251,l),
(190,251,l)
);
}
);
width = 495;
},
{
layerId = "6ABD9449-5E80-4451-809E-12ADEB9E9AB4";
shapes = (
{
closed = 1;
nodes = (
(103,5,l),
(155,196,l),
(283,196,l),
(232,5,l),
(269,5,l),
(319,196,l),
(427,196,l),
(427,231,l),
(329,231,l),
(377,414,l),
(485,414,l),
(485,448,l),
(388,448,l),
(430,610,l),
(395,610,l),
(351,448,l),
(223,448,l),
(266,610,l),
(229,610,l),
(186,448,l),
(70,448,l),
(70,414,l),
(177,414,l),
(126,231,l),
(12,231,l),
(12,196,l),
(118,196,l),
(67,5,l)
);
},
{
closed = 1;
nodes = (
(212,414,l),
(340,414,l),
(293,231,l),
(163,231,l)
);
}
);
width = 497;
},
{
layerId = "70B83247-6FA0-4662-9656-C86DD2A17D3B";
shapes = (
{
closed = 1;
nodes = (
(91,5,l),
(131,191,l),
(216,191,l),
(177,5,l),
(219,5,l),
(258,191,l),
(344,191,l),
(344,240,l),
(269,240,l),
(303,403,l),
(388,403,l),
(388,452,l),
(314,452,l),
(348,610,l),
(307,610,l),
(272,452,l),
(188,452,l),
(221,610,l),
(179,610,l),
(146,452,l),
(54,452,l),
(54,403,l),
(135,403,l),
(100,240,l),
(10,240,l),
(10,191,l),
(90,191,l),
(50,5,l)
);
},
{
closed = 1;
nodes = (
(176,403,l),
(261,403,l),
(228,240,l),
(142,240,l)
);
}
);
width = 397;
},
{
layerId = "9E6FDE2E-55A6-44A9-9556-F1822294BF26";
shapes = (
{
closed = 1;
nodes = (
(125,5,l),
(187,196,l),
(337,196,l),
(277,5,l),
(323,5,l),
(383,196,l),
(513,196,l),
(513,231,l),
(395,231,l),
(453,413,l),
(582,413,l),
(582,448,l),
(466,448,l),
(517,610,l),
(472,610,l),
(420,448,l),
(269,448,l),
(321,610,l),
(275,610,l),
(223,448,l),
(83,448,l),
(83,413,l),
(211,413,l),
(152,231,l),
(15,231,l),
(15,196,l),
(141,196,l),
(80,5,l)
);
},
{
closed = 1;
nodes = (
(255,413,l),
(407,413,l),
(350,231,l),
(198,231,l)
);
}
);
width = 595;
},
{
layerId = "00F4936D-6309-4DEC-83B3-42806ED1A477";
shapes = (
{
closed = 1;
nodes = (
(108,5,l),
(159,194,l),
(277,194,l),
(227,5,l),
(271,5,l),
(321,194,l),
(428,194,l),
(428,236,l),
(332,236,l),
(378,408,l),
(485,408,l),
(485,450,l),
(390,450,l),
(432,610,l),
(389,610,l),
(346,450,l),
(228,450,l),
(271,610,l),
(227,610,l),
(184,450,l),
(69,450,l),
(69,408,l),
(173,408,l),
(126,236,l),
(12,236,l),
(12,194,l),
(115,194,l),
(65,5,l)
);
},
{
closed = 1;
nodes = (
(216,408,l),
(334,408,l),
(289,236,l),
(170,236,l)
);
}
);
width = 496;
}
);
unicode = 35;
userData = {
KernOnSpecialSpacing = {
L = NoKerning;
R = NoKerning;
};
};
}
{
glyphname = dollar;
layers = (
{
layerId = master01;
shapes = (
{
closed = 1;
nodes = (
(531,-166,o),
(545,-161,o),
(545,-150,cs),
(545,-4,l),
(754,2,o),
(895,160,o),
(895,389,cs),
(895,610,o),
(785,703,o),
(545,778,c),
(545,1266,l),
(647,1257,o),
(731,1165,o),
(758,1040,cs),
(764,1022,o),
(783,1025,o),
(798,1028,cs),
(808,1031,o),
(823,1035,o),
(823,1046,cs),
(823,1072,o),
(807,1221,o),
(783,1303,c),
(764,1299,o),
(746,1299,o),
(705,1308,cs),
(654,1319,o),
(601,1326,o),
(545,1329,c),
(545,1466,ls),
(545,1476,o),
(531,1481,o),
(502,1481,cs),
(473,1481,o),
(459,1476,o),
(459,1466,cs),
(459,1329,l),
(277,1316,o),
(129,1182,o),
(129,1016,cs),
(129,817,o),
(174,742,o),
(459,610,c),
(459,74,l),
(315,105,o),
(202,212,o),
(186,375,cs),
(185,380,o),
(175,382,o),
(156,382,cs),
(137,382,o),
(126,376,o),
(123,365,cs),
(122,361,o),
(122,356,o),
(122,351,cs),
(122,268,o),
(137,180,o),
(168,88,cs),
(278,34,o),
(346,4,o),
(459,-4,c),
(459,-150,ls),
(459,-161,o),
(473,-166,o),
(502,-166,cs)
);
},
{
closed = 1;
nodes = (
(545,575,l),
(691,515,o),
(764,421,o),
(764,293,cs),
(764,160,o),
(663,66,o),
(545,66,c)
);
},
{
closed = 1;
nodes = (
(334,854,o),
(262,919,o),
(262,1057,cs),
(262,1174,o),
(330,1252,o),
(459,1268,c),
(459,809,l)
);
}
);
width = 987;
},
{
layerId = "75918100-ED89-42A8-B0FE-888EB9C86810";
shapes = (
{
closed = 1;
nodes = (
(542,-165,o),
(563,-161,o),
(563,-150,cs),
(563,-16,l),
(793,1,o),
(936,163,o),
(936,408,cs),
(936,621,o),
(818,719,o),
(563,797,c),
(563,1241,l),
(674,1219,o),
(716,1143,o),
(756,1022,cs),
(759,1013,o),
(774,1010,o),
(802,1014,cs),
(830,1018,o),
(844,1024,o),
(844,1032,cs),
(844,1125,o),
(829,1216,o),
(799,1303,c),
(768,1297,o),
(753,1302,o),
(706,1313,cs),
(672,1321,o),
(624,1326,o),
(563,1329,c),
(563,1466,ls),
(563,1476,o),
(542,1482,o),
(501,1482,cs),
(459,1482,o),
(438,1477,o),
(438,1466,cs),
(438,1329,l),
(245,1306,o),
(98,1156,o),
(98,995,cs),
(98,762,o),
(209,665,o),
(438,580,c),
(438,88,l),
(312,126,o),
(211,241,o),
(199,381,cs),
(198,394,o),
(182,402,o),
(153,401,cs),
(123,400,o),
(109,392,o),
(106,375,cs),
(105,370,o),
(104,365,o),
(104,358,cs),
(104,268,o),
(123,174,o),
(158,76,c),
(243,29,o),
(337,-1,o),
(438,-14,c),
(438,-150,ls),
(438,-159,o),
(459,-165,o),
(501,-165,cs)
);
},
{
closed = 1;
nodes = (
(563,532,l),
(679,485,o),
(737,408,o),
(737,301,cs),
(737,178,o),
(679,103,o),
(563,74,c)
);
},
{
closed = 1;
nodes = (
(344,877,o),
(297,945,o),
(297,1044,cs),
(297,1145,o),
(344,1212,o),
(438,1245,c),
(438,840,l)
);
}
);
width = 1028;
},
{
layerId = "6ABD9449-5E80-4451-809E-12ADEB9E9AB4";
shapes = (
{
closed = 1;
nodes = (
(527,-166,o),
(539,-161,o),
(539,-150,cs),
(539,0,l),
(741,2,o),
(881,159,o),
(881,383,cs),
(881,606,o),
(774,698,o),
(539,772,c),
(539,1274,l),
(638,1270,o),
(736,1172,o),
(761,1036,cs),
(763,1024,o),
(786,1030,o),
(797,1033,cs),
(807,1036,o),
(816,1039,o),
(816,1051,cs),
(816,1054,o),
(800,1223,o),
(778,1303,c),
(763,1300,o),
(744,1298,o),
(705,1306,cs),
(648,1318,o),
(593,1326,o),
(539,1329,c),
(539,1466,ls),
(539,1476,o),
(527,1481,o),
(502,1481,cs),
(478,1481,o),
(466,1476,o),
(466,1466,cs),
(466,1329,l),
(288,1319,o),
(139,1191,o),
(139,1023,cs),
(139,835,o),
(162,768,o),
(466,620,c),
(466,69,l),
(316,98,o),
(199,202,o),
(182,363,cs),
(181,373,o),
(173,376,o),
(157,376,cs),
(142,376,o),
(132,371,o),
(129,362,cs),
(128,358,o),
(128,353,o),
(128,349,cs),
(128,268,o),
(142,182,o),
(171,92,c),
(290,36,o),
(349,6,o),
(466,-1,c),
(466,-150,ls),
(466,-162,o),
(478,-166,o),
(502,-166,cs)
);
},
{
closed = 1;
nodes = (
(539,589,l),
(695,525,o),
(773,425,o),
(773,290,cs),
(773,154,o),
(658,54,o),
(539,63,c)
);
},
{
closed = 1;
nodes = (
(331,846,o),
(250,910,o),
(250,1061,cs),
(250,1184,o),
(325,1265,o),
(466,1276,c),
(466,799,l)
);
}
);
width = 973;
},
{
layerId = "70B83247-6FA0-4662-9656-C86DD2A17D3B";
shapes = (
{
closed = 1;
nodes = (
(436,-166,o),
(447,-160,o),
(447,-150,cs),
(447,-8,l),
(620,2,o),
(734,161,o),
(734,395,cs),
(734,613,o),
(643,708,o),
(447,784,c),
(447,1259,l),
(531,1246,o),
(585,1159,o),
(611,1036,cs),
(615,1018,o),
(630,1021,o),
(645,1024,cs),
(657,1027,o),
(670,1031,o),
(670,1042,cs),
(670,1088,o),
(658,1219,o),
(636,1303,c),
(615,1298,o),
(601,1301,o),
(568,1310,cs),
(537,1319,o),
(493,1326,o),
(447,1329,c),
(447,1466,ls),
(447,1476,o),
(433,1481,o),
(407,1481,cs),
(376,1481,o),
(366,1475,o),
(366,1466,cs),
(366,1329,l),
(218,1313,o),
(99,1174,o),
(99,1010,cs),
(99,801,o),
(155,719,o),
(366,601,c),
(366,78,l),
(254,112,o),
(170,224,o),
(158,378,cs),
(158,384,o),
(148,388,o),
(130,388,cs),
(112,388,o),
(101,381,o),
(98,368,cs),
(98,368,o),
(98,359,o),
(98,353,cs),
(98,277,o),
(98,161,o),
(148,92,cs),
(201,19,o),
(292,4,o),
(366,-7,c),
(366,-150,ls),
(366,-160,o),
(379,-166,o),
(407,-166,cs)
);
},
{
closed = 1;
nodes = (
(447,562,l),
(555,506,o),
(608,416,o),
(608,295,cs),
(608,166,o),
(540,77,o),
(447,68,c)
);
},
{
closed = 1;
nodes = (
(275,861,o),
(226,927,o),
(226,1053,cs),
(226,1165,o),
(274,1240,o),
(366,1261,c),
(366,818,l)
);
}
);
width = 808;
},
{
layerId = "9E6FDE2E-55A6-44A9-9556-F1822294BF26";
shapes = (
{
closed = 1;
nodes = (
(626,-166,o),
(643,-162,o),
(643,-150,cs),
(643,0,l),
(888,2,o),
(1056,159,o),
(1056,383,cs),
(1056,607,o),
(927,698,o),
(643,772,c),
(643,1273,l),
(763,1268,o),
(877,1171,o),
(905,1044,cs),
(913,1026,o),
(936,1029,o),
(951,1032,cs),
(959,1035,o),
(976,1039,o),
(976,1050,cs),
(976,1056,o),
(956,1223,o),
(930,1303,c),
(913,1300,o),
(891,1297,o),
(842,1306,cs),
(771,1319,o),
(709,1326,o),
(643,1329,c),
(643,1466,ls),
(643,1476,o),
(629,1481,o),
(597,1481,cs),
(570,1481,o),
(552,1477,o),
(552,1466,cs),
(552,1329,l),
(336,1319,o),
(159,1190,o),
(159,1022,cs),
(159,833,o),
(193,765,o),
(552,619,c),
(552,70,l),
(376,98,o),
(234,200,o),
(214,372,cs),
(212,376,o),
(202,376,o),
(182,376,cs),
(162,376,o),
(151,371,o),
(148,362,cs),
(146,354,o),
(146,353,o),
(146,349,cs),
(146,259,o),
(176,199,o),
(188,84,cs),
(355,49,o),
(400,4,o),
(552,-1,c),
(552,-150,ls),
(552,-162,o),
(567,-166,o),
(597,-166,cs)
);
},
{
closed = 1;
nodes = (
(643,588,l),
(827,524,o),
(920,426,o),
(920,291,cs),
(920,154,o),
(786,55,o),
(643,64,c)
);
},
{
closed = 1;
nodes = (
(393,847,o),
(298,911,o),
(298,1061,cs),
(298,1183,o),
(386,1264,o),
(552,1275,c),
(552,800,l)
);
}
);
width = 1166;
},
{
layerId = "00F4936D-6309-4DEC-83B3-42806ED1A477";
shapes = (
{
closed = 1;
nodes = (
(531,-166,o),
(545,-161,o),
(545,-150,cs),
(545,-4,l),
(754,2,o),
(895,160,o),
(895,389,cs),
(895,610,o),
(785,703,o),
(545,778,c),
(545,1266,l),
(647,1257,o),
(731,1165,o),
(758,1040,cs),
(764,1022,o),
(783,1025,o),
(798,1028,cs),
(808,1031,o),
(823,1035,o),
(823,1046,cs),
(823,1072,o),
(807,1221,o),
(783,1303,c),
(764,1299,o),
(746,1299,o),
(705,1308,cs),
(654,1319,o),
(601,1326,o),
(545,1329,c),
(545,1466,ls),
(545,1476,o),
(531,1481,o),
(502,1481,cs),
(473,1481,o),
(459,1476,o),
(459,1466,cs),
(459,1329,l),
(277,1316,o),
(129,1182,o),
(129,1016,cs),
(129,817,o),
(174,742,o),
(459,610,c),
(459,74,l),
(315,105,o),
(202,212,o),
(186,375,cs),
(185,380,o),
(175,382,o),
(156,382,cs),
(137,382,o),
(126,376,o),
(123,365,cs),
(122,361,o),
(122,356,o),
(122,351,cs),
(122,268,o),
(137,180,o),
(168,88,cs),
(278,34,o),
(346,4,o),
(459,-4,c),
(459,-150,ls),
(459,-161,o),
(473,-166,o),
(502,-166,cs)
);
},
{
closed = 1;
nodes = (
(545,575,l),
(691,515,o),
(764,421,o),
(764,293,cs),
(764,160,o),
(663,66,o),
(545,66,c)
);
},
{
closed = 1;
nodes = (
(334,854,o),
(262,919,o),
(262,1057,cs),
(262,1174,o),
(330,1252,o),
(459,1268,c),
(459,809,l)
);
}
);
width = 987;
}
);
unicode = 36;
}
{
glyphname = percent;
layers = (
{
layerId = master01;
shapes = (
{
closed = 1;
nodes = (
(1378,1374,ls),
(1384,1383,o),
(1376,1391,o),
(1355,1404,cs),
(1329,1420,o),
(1315,1422,o),
(1309,1413,cs),
(437,-34,ls),
(430,-46,o),
(433,-52,o),
(458,-67,cs),
(482,-81,o),
(499,-86,o),
(504,-78,cs)
);
},
{
closed = 1;
nodes = (
(625,547,o),
(735,734,o),
(735,959,cs),
(735,1180,o),
(644,1399,o),
(426,1399,cs),
(210,1399,o),
(98,1208,o),
(98,982,cs),
(98,762,o),
(193,547,o),
(410,547,cs)
);
},
{
closed = 1;
nodes = (
(296,614,o),
(250,798,o),
(250,942,cs),
(250,1116,o),
(289,1331,o),
(406,1331,cs),
(546,1331,o),
(586,1172,o),
(586,1011,cs),
(586,835,o),
(546,614,o),
(434,614,cs)
);
},
{
closed = 1;
nodes = (
(1625,-22,o),
(1735,166,o),
(1735,390,cs),
(1735,611,o),
(1644,830,o),
(1426,830,cs),
(1210,830,o),
(1098,638,o),
(1098,414,cs),
(1098,193,o),
(1193,-22,o),
(1410,-22,cs)
);
},
{
closed = 1;
nodes = (
(1297,46,o),
(1250,229,o),
(1250,373,cs),
(1250,547,o),
(1289,762,o),
(1406,762,cs),
(1546,762,o),
(1586,603,o),
(1586,442,cs),
(1586,265,o),
(1547,46,o),
(1434,46,cs)
);
}
);
width = 1823;
},
{
layerId = "75918100-ED89-42A8-B0FE-888EB9C86810";
shapes = (
{
closed = 1;
nodes = (
(1432,1370,ls),
(1437,1378,o),
(1425,1392,o),
(1393,1409,cs),
(1356,1429,o),
(1336,1435,o),
(1331,1427,cs),
(459,-20,ls),
(454,-28,o),
(467,-43,o),
(496,-61,cs),
(531,-83,o),
(552,-90,o),
(557,-82,cs)
);
},
{
closed = 1;
nodes = (
(673,547,o),
(791,751,o),
(791,973,cs),
(791,1185,o),
(671,1399,o),
(442,1399,cs),
(215,1399,o),
(98,1188,o),
(98,973,cs),
(98,754,o),
(227,547,o),
(442,547,cs)
);
},
{
closed = 1;
nodes = (
(351,635,o),
(305,748,o),
(305,975,cs),
(305,1199,o),
(351,1311,o),
(442,1311,cs),
(537,1311,o),
(584,1199,o),
(584,975,cs),
(584,748,o),
(537,635,o),
(442,635,cs)
);
},
{
closed = 1;
nodes = (
(1682,-20,o),
(1800,185,o),
(1800,406,cs),
(1800,618,o),
(1683,831,o),
(1452,831,cs),
(1228,831,o),
(1108,617,o),
(1108,406,cs),
(1108,187,o),
(1237,-20,o),
(1452,-20,cs)
);
},
{
closed = 1;
nodes = (
(1361,68,o),
(1315,181,o),
(1315,408,cs),
(1315,631,o),
(1361,743,o),
(1452,743,cs),
(1546,743,o),
(1593,632,o),
(1593,408,cs),
(1593,181,o),
(1546,68,o),
(1452,68,cs)
);
}
);
width = 1820;
},
{
layerId = "6ABD9449-5E80-4451-809E-12ADEB9E9AB4";
shapes = (
{
closed = 1;
nodes = (
(1360,1375,ls),
(1366,1385,o),
(1360,1391,o),
(1340,1403,cs),
(1320,1415,o),
(1308,1418,o),
(1302,1408,cs),
(430,-39,ls),
(422,-52,o),
(422,-55,o),
(445,-69,cs),
(466,-80,o),
(481,-85,o),
(486,-77,cs)
);
},
{
closed = 1;
nodes = (
(609,547,o),
(716,728,o),
(716,954,cs),
(716,1178,o),
(635,1399,o),
(421,1399,cs),
(208,1399,o),
(98,1215,o),
(98,985,cs),
(98,765,o),
(182,547,o),
(399,547,cs)
);
},
{
closed = 1;
nodes = (
(278,607,o),
(232,815,o),
(232,931,cs),
(232,1088,o),
(268,1338,o),
(394,1338,cs),
(549,1338,o),
(587,1163,o),
(587,1023,cs),
(587,864,o),
(549,607,o),
(431,607,cs)
);
},
{
closed = 1;
nodes = (
(1606,-23,o),
(1713,160,o),
(1713,385,cs),
(1713,609,o),
(1631,830,o),
(1417,830,cs),
(1204,830,o),
(1095,645,o),
(1095,417,cs),
(1095,195,o),
(1178,-23,o),
(1396,-23,cs)
);
},
{
closed = 1;
nodes = (
(1276,39,o),
(1228,245,o),
(1228,361,cs),
(1228,519,o),
(1265,768,o),
(1391,768,cs),
(1546,768,o),
(1584,593,o),
(1584,453,cs),
(1584,293,o),
(1547,39,o),
(1428,39,cs)
);
}
);
width = 1824;
},
{
layerId = "70B83247-6FA0-4662-9656-C86DD2A17D3B";
shapes = (
{
closed = 1;
nodes = (
(1118,1373,ls),
(1122,1382,o),
(1117,1390,o),
(1096,1405,cs),
(1071,1423,o),
(1058,1426,o),
(1054,1417,cs),
(356,-30,ls),
(352,-39,o),
(354,-49,o),
(377,-65,cs),
(398,-81,o),
(415,-87,o),
(419,-79,cs)
);
},
{
closed = 1;
nodes = (
(514,547,o),
(605,739,o),
(605,963,cs),
(605,1181,o),
(523,1399,o),
(346,1399,cs),
(170,1399,o),
(78,1202,o),
(78,979,cs),
(78,760,o),
(164,547,o),
(338,547,cs)
);
},
{
closed = 1;
nodes = (
(253,620,o),
(216,785,o),
(216,952,cs),
(216,1142,o),
(250,1325,o),
(336,1325,cs),
(434,1325,o),
(468,1180,o),
(468,1000,cs),
(468,808,o),
(434,620,o),
(349,620,cs)
);
},
{
closed = 1;
nodes = (
(1317,-21,o),
(1408,172,o),
(1408,395,cs),
(1408,612,o),
(1327,830,o),
(1149,830,cs),
(974,830,o),
(881,632,o),
(881,412,cs),
(881,192,o),
(967,-21,o),
(1141,-21,cs)
);
},
{
closed = 1;
nodes = (
(1057,53,o),
(1020,216,o),
(1020,384,cs),
(1020,573,o),
(1053,756,o),
(1139,756,cs),
(1237,756,o),
(1271,611,o),
(1271,432,cs),
(1271,241,o),
(1238,53,o),
(1152,53,cs)
);
}
);
width = 1478;
},
{
layerId = "9E6FDE2E-55A6-44A9-9556-F1822294BF26";
shapes = (
{
closed = 1;
nodes = (
(1638,1375,ls),
(1646,1384,o),
(1635,1392,o),
(1614,1403,cs),
(1587,1417,o),
(1572,1418,o),
(1564,1409,cs),
(518,-38,ls),
(508,-53,o),
(512,-55,o),
(539,-69,cs),
(566,-81,o),
(583,-85,o),
(589,-77,cs)
);
},
{
closed = 1;
nodes = (
(736,547,o),
(865,729,o),
(865,955,cs),
(865,1179,o),
(765,1399,o),
(506,1399,cs),
(250,1399,o),
(118,1214,o),
(118,985,cs),
(118,764,o),
(222,547,o),
(482,547,cs)
);
},
{
closed = 1;
nodes = (
(339,608,o),
(284,811,o),
(284,932,cs),
(284,1090,o),
(328,1337,o),
(476,1337,cs),
(658,1337,o),
(704,1164,o),
(704,1022,cs),
(704,862,o),
(658,608,o),
(519,608,cs)
);
},
{
closed = 1;
nodes = (
(1933,-23,o),
(2062,160,o),
(2062,385,cs),
(2062,610,o),
(1961,830,o),
(1703,830,cs),
(1446,830,o),
(1315,644,o),
(1315,416,cs),
(1315,194,o),
(1419,-23,o),
(1679,-23,cs)
);
},
{
closed = 1;
nodes = (
(1537,39,o),
(1480,242,o),
(1480,362,cs),
(1480,521,o),
(1525,768,o),
(1673,768,cs),
(1855,768,o),
(1901,595,o),
(1901,452,cs),
(1901,289,o),
(1856,39,o),
(1716,39,cs)
);
}
);
width = 2168;
},
{
layerId = "00F4936D-6309-4DEC-83B3-42806ED1A477";
shapes = (
{
closed = 1;
nodes = (
(1378,1374,ls),
(1384,1383,o),
(1376,1391,o),
(1355,1404,cs),
(1329,1420,o),
(1315,1422,o),
(1309,1413,cs),
(437,-34,ls),
(430,-46,o),
(433,-52,o),
(458,-67,cs),
(482,-81,o),
(499,-86,o),
(504,-78,cs)
);
},
{
closed = 1;
nodes = (
(625,547,o),
(735,734,o),
(735,959,cs),
(735,1180,o),
(644,1399,o),
(426,1399,cs),
(210,1399,o),
(98,1208,o),
(98,982,cs),
(98,762,o),
(193,547,o),
(410,547,cs)
);
},
{
closed = 1;
nodes = (
(296,614,o),
(250,798,o),
(250,942,cs),
(250,1116,o),
(289,1331,o),
(406,1331,cs),
(546,1331,o),
(586,1172,o),
(586,1011,cs),
(586,835,o),
(546,614,o),
(434,614,cs)
);
},
{
closed = 1;
nodes = (
(1625,-22,o),
(1735,166,o),
(1735,390,cs),
(1735,611,o),
(1644,830,o),
(1426,830,cs),
(1210,830,o),
(1098,638,o),
(1098,414,cs),
(1098,193,o),
(1193,-22,o),
(1410,-22,cs)
);
},
{
closed = 1;
nodes = (
(1297,46,o),
(1250,229,o),
(1250,373,cs),
(1250,547,o),
(1289,762,o),
(1406,762,cs),
(1546,762,o),
(1586,603,o),
(1586,442,cs),
(1586,265,o),
(1547,46,o),
(1434,46,cs)
);
}
);
width = 1823;
}
);
unicode = 37;
}
{
glyphname = ampersand;
layers = (
{
layerId = master01;
shapes = (
{
closed = 1;
nodes = (
(328,-13,o),
(406,32,o),
(476,123,c),
(538,32,o),
(598,-13,o),
(674,-13,cs),
(728,-13,o),
(781,11,o),
(814,61,cs),
(817,64,o),
(816,68,o),
(811,72,cs),
(806,77,o),
(802,78,o),
(800,75,cs),
(775,51,o),
(748,37,o),
(702,37,cs),
(639,37,o),
(601,62,o),
(520,180,c),
(610,297,ls),
(654,353,o),
(683,387,o),
(700,398,cs),
(717,410,o),
(742,416,o),
(776,416,cs),
(781,416,o),
(784,420,o),
(784,430,cs),
(784,439,o),
(781,443,o),
(776,444,c),
(757,442,o),
(717,441,o),
(658,441,cs),
(599,441,o),
(560,442,o),
(542,444,c),
(537,443,o),
(535,439,o),
(535,430,cs),
(535,420,o),
(537,416,o),
(542,416,cs),
(591,416,o),
(616,407,o),
(616,389,cs),
(616,371,o),
(592,331,o),
(544,269,cs),
(499,211,l),
(438,300,o),
(373,371,o),
(303,421,c),
(371,446,o),
(407,492,o),
(407,550,cs),
(407,621,o),
(353,670,o),
(277,670,cs),
(193,670,o),
(126,609,o),
(126,532,cs),
(126,483,o),
(154,440,o),
(210,400,c),
(70,331,o),
(37,262,o),
(37,183,cs),
(37,54,o),
(122,-13,o),
(242,-13,cs)
);
},
{
closed = 1;
nodes = (
(179,48,o),
(108,107,o),
(108,201,cs),
(108,274,o),
(150,333,o),
(235,382,c),
(321,320,o),
(394,244,o),
(455,154,c),
(400,83,o),
(339,48,o),
(271,48,cs)
);
},
{
closed = 1;
nodes = (
(221,480,o),
(193,519,o),
(193,559,cs),
(193,598,o),
(221,640,o),
(268,640,cs),
(313,640,o),
(341,602,o),
(341,548,cs),
(341,500,o),
(320,463,o),
(278,439,c)
);
}
);
width = 832;
},
{
layerId = "75918100-ED89-42A8-B0FE-888EB9C86810";
shapes = (
{
closed = 1;
nodes = (
(319,-14,o),
(395,24,o),
(468,97,c),
(521,23,o),
(592,-14,o),
(672,-14,cs),
(731,-14,o),
(810,6,o),
(833,75,cs),
(834,79,o),
(836,87,o),
(827,94,cs),
(820,100,o),
(813,102,o),
(809,98,cs),
(788,77,o),
(753,66,o),
(718,66,cs),
(651,66,o),
(597,106,o),
(543,187,c),
(619,296,ls),
(641,327,o),
(661,355,o),
(681,371,cs),
(705,390,o),
(740,400,o),
(785,400,cs),
(790,400,o),
(792,408,o),
(792,425,cs),
(792,441,o),
(790,449,o),
(785,449,c),
(768,447,o),
(728,445,o),
(667,445,cs),
(606,445,o),
(562,447,o),
(534,449,c),
(529,449,o),
(526,441,o),
(526,425,cs),
(526,408,o),
(529,400,o),
(534,400,cs),
(575,400,o),
(595,390,o),
(595,371,cs),
(595,359,o),
(579,328,o),
(544,278,cs),
(513,233,l),
(460,309,o),
(401,370,o),
(337,415,c),
(396,450,o),
(425,490,o),
(425,540,cs),
(425,611,o),
(361,670,o),
(272,670,cs),
(188,670,o),
(108,608,o),
(108,521,cs),
(108,470,o),
(135,426,o),
(188,387,c),
(76,329,o),
(19,257,o),
(19,173,cs),
(19,67,o),
(105,-14,o),
(242,-14,cs)
);
},
{
closed = 1;
nodes = (
(188,44,o),
(126,110,o),
(126,202,cs),
(126,265,o),
(161,317,o),
(230,359,c),
(307,307,o),
(377,233,o),
(441,136,c),
(386,75,o),
(333,44,o),
(283,44,cs)
);
},
{
closed = 1;
nodes = (
(238,477,o),
(211,504,o),
(211,552,cs),
(211,590,o),
(229,622,o),
(269,622,cs),
(308,622,o),
(330,591,o),
(330,538,cs),
(330,497,o),
(317,468,o),
(291,443,c)
);
}
);
width = 831;
},
{
layerId = "6ABD9449-5E80-4451-809E-12ADEB9E9AB4";
shapes = (
{
closed = 1;
nodes = (
(331,-13,o),
(410,35,o),
(479,132,c),
(544,35,o),
(600,-13,o),
(674,-13,cs),
(727,-13,o),
(771,13,o),
(808,56,cs),
(811,60,o),
(809,62,o),
(806,65,cs),
(801,70,o),
(799,69,o),
(797,67,cs),
(771,42,o),
(747,27,o),
(696,27,cs),
(635,27,o),
(602,46,o),
(512,178,c),
(607,297,ls),
(659,361,o),
(690,397,o),
(707,408,cs),
(721,417,o),
(743,421,o),
(773,421,cs),
(778,421,o),
(782,424,o),
(782,431,cs),
(782,438,o),
(778,441,o),
(773,442,c),
(753,440,o),
(714,439,o),
(655,439,cs),
(597,439,o),
(560,440,o),
(544,442,c),
(540,441,o),
(538,438,o),
(538,431,cs),
(538,424,o),
(540,421,o),
(544,421,cs),
(597,421,o),
(623,413,o),
(623,395,cs),
(623,375,o),
(598,331,o),
(544,265,cs),
(494,204,l),
(431,297,o),
(363,371,o),
(292,423,c),
(362,444,o),
(401,493,o),
(401,553,cs),
(401,624,o),
(350,670,o),
(278,670,cs),
(195,670,o),
(132,609,o),
(132,536,cs),
(132,488,o),
(160,445,o),
(217,404,c),
(68,332,o),
(43,263,o),
(43,187,cs),
(43,50,o),
(127,-13,o),
(242,-13,cs)
);
},
{
closed = 1;
nodes = (
(176,49,o),
(102,106,o),
(102,201,cs),
(102,277,o),
(147,337,o),
(237,390,c),
(326,324,o),
(400,248,o),
(460,160,c),
(405,85,o),
(341,49,o),
(267,49,cs)
);
},
{
closed = 1;
nodes = (
(216,481,o),
(187,523,o),
(187,562,cs),
(187,600,o),
(218,646,o),
(267,646,cs),
(314,646,o),
(344,606,o),
(344,551,cs),
(344,500,o),
(321,462,o),
(273,438,c)
);
}
);
width = 833;
},
{
layerId = "70B83247-6FA0-4662-9656-C86DD2A17D3B";
shapes = (
{
closed = 1;
nodes = (
(265,-14,o),
(327,30,o),
(384,115,c),
(431,29,o),
(482,-14,o),
(544,-14,cs),
(589,-14,o),
(639,10,o),
(662,65,cs),
(664,68,o),
(665,73,o),
(659,79,cs),
(653,85,o),
(650,85,o),
(648,82,cs),
(630,60,o),
(607,46,o),
(572,46,cs),
(521,46,o),
(485,75,o),
(428,182,c),
(496,297,ls),
(522,341,o),
(545,377,o),
(560,390,cs),
(576,405,o),
(600,411,o),
(629,411,cs),
(633,411,o),
(635,417,o),
(635,428,cs),
(635,439,o),
(633,445,o),
(629,445,c),
(613,443,o),
(579,442,o),
(534,442,cs),
(492,442,o),
(454,443,o),
(437,445,c),
(433,445,o),
(431,439,o),
(431,428,cs),
(431,417,o),
(433,411,o),
(437,411,cs),
(474,411,o),
(492,402,o),
(492,384,cs),
(492,368,o),
(475,330,o),
(440,271,cs),
(409,218,l),
(362,305,o),
(310,372,o),
(258,419,c),
(310,447,o),
(336,492,o),
(336,547,cs),
(336,618,o),
(290,670,o),
(226,670,cs),
(159,670,o),
(101,608,o),
(101,529,cs),
(101,480,o),
(123,436,o),
(167,396,c),
(63,331,o),
(30,260,o),
(30,180,cs),
(30,58,o),
(98,-14,o),
(199,-14,cs)
);
},
{
closed = 1;
nodes = (
(151,47,o),
(97,108,o),
(97,202,cs),
(97,271,o),
(128,328,o),
(192,375,c),
(258,316,o),
(315,242,o),
(365,148,c),
(321,81,o),
(275,47,o),
(226,47,cs)
);
},
{
closed = 1;
nodes = (
(187,479,o),
(165,515,o),
(165,557,cs),
(165,595,o),
(185,635,o),
(220,635,cs),
(254,635,o),
(275,599,o),
(275,545,cs),
(275,499,o),
(260,465,o),
(231,440,c)
);
}
);
width = 677;
},
{
layerId = "9E6FDE2E-55A6-44A9-9556-F1822294BF26";
shapes = (
{
closed = 1;
nodes = (
(390,-13,o),
(485,35,o),
(568,131,c),
(646,35,o),
(714,-13,o),
(804,-13,cs),
(867,-13,o),
(923,13,o),
(967,57,cs),
(970,61,o),
(967,63,o),
(963,66,cs),
(958,69,o),
(954,70,o),
(952,68,cs),
(920,42,o),
(889,28,o),
(832,28,cs),
(758,28,o),
(716,48,o),
(612,178,c),
(725,297,ls),
(786,365,o),
(821,396,o),
(841,407,cs),
(858,416,o),
(884,421,o),
(923,421,cs),
(930,421,o),
(933,424,o),
(933,431,cs),
(933,438,o),
(930,441,o),
(923,442,c),
(901,440,o),
(855,440,o),
(782,440,cs),
(706,440,o),
(666,440,o),
(647,442,c),
(642,441,o),
(639,438,o),
(639,431,cs),
(639,424,o),
(642,421,o),
(647,421,cs),
(709,421,o),
(740,413,o),
(740,395,cs),
(740,374,o),
(710,331,o),
(647,266,cs),
(589,204,l),
(514,296,o),
(436,369,o),
(348,423,c),
(432,444,o),
(478,493,o),
(478,553,cs),
(478,624,o),
(415,670,o),
(328,670,cs),
(228,670,o),
(151,609,o),
(151,536,cs),
(151,487,o),
(185,445,o),
(253,404,c),
(77,332,o),
(44,263,o),
(44,186,cs),
(44,50,o),
(145,-13,o),
(285,-13,cs)
);
},
{
closed = 1;
nodes = (
(206,49,o),
(119,106,o),
(119,201,cs),
(119,277,o),
(172,337,o),
(278,389,c),
(384,324,o),
(473,247,o),
(545,159,c),
(479,85,o),
(403,49,o),
(316,49,cs)
);
},
{
closed = 1;
nodes = (
(255,481,o),
(221,522,o),
(221,561,cs),
(221,600,o),
(257,646,o),
(315,646,cs),
(371,646,o),
(407,605,o),
(407,551,cs),
(407,500,o),
(379,462,o),
(324,438,c)
);
}
);
width = 987;
},
{
layerId = "00F4936D-6309-4DEC-83B3-42806ED1A477";
shapes = (
{
closed = 1;
nodes = (
(328,-13,o),
(406,32,o),
(476,123,c),
(538,32,o),
(598,-13,o),
(674,-13,cs),
(728,-13,o),
(781,11,o),
(814,61,cs),
(817,64,o),
(816,68,o),
(811,72,cs),
(806,77,o),
(802,78,o),
(800,75,cs),
(775,51,o),
(748,37,o),
(702,37,cs),
(639,37,o),
(601,62,o),
(520,180,c),
(610,297,ls),
(654,353,o),
(683,387,o),
(700,398,cs),
(717,410,o),
(742,416,o),
(776,416,cs),
(781,416,o),
(784,420,o),
(784,430,cs),
(784,439,o),
(781,443,o),
(776,444,c),
(757,442,o),
(717,441,o),
(658,441,cs),
(599,441,o),
(560,442,o),
(542,444,c),
(537,443,o),
(535,439,o),
(535,430,cs),
(535,420,o),
(537,416,o),
(542,416,cs),
(591,416,o),
(616,407,o),
(616,389,cs),
(616,371,o),
(592,331,o),
(544,269,cs),
(499,211,l),
(438,300,o),
(373,371,o),
(303,421,c),
(371,446,o),
(407,492,o),
(407,550,cs),
(407,621,o),
(353,670,o),
(277,670,cs),
(193,670,o),
(126,609,o),
(126,532,cs),
(126,483,o),
(154,440,o),
(210,400,c),
(70,331,o),
(37,262,o),
(37,183,cs),
(37,54,o),
(122,-13,o),
(242,-13,cs)
);
},
{
closed = 1;
nodes = (
(179,48,o),
(108,107,o),
(108,201,cs),
(108,274,o),
(150,333,o),
(235,382,c),
(321,320,o),
(394,244,o),
(455,154,c),
(400,83,o),
(339,48,o),
(271,48,cs)
);
},
{
closed = 1;
nodes = (
(221,480,o),
(193,519,o),
(193,559,cs),
(193,598,o),
(221,640,o),
(268,640,cs),
(313,640,o),
(341,602,o),
(341,548,cs),
(341,500,o),
(320,463,o),
(278,439,c)
);
}
);
width = 832;
}
);
unicode = 38;
}
{
glyphname = quotesingle;
layers = (
{
layerId = master01;
shapes = (
{
closed = 1;
nodes = (
(236,936,o),
(247,939,o),
(248,944,cs),
(262,1058,o),
(275,1155,o),
(288,1236,cs),
(301,1316,o),
(307,1370,o),
(307,1396,cs),
(307,1453,o),
(275,1481,o),
(212,1481,cs),
(149,1481,o),
(117,1453,o),
(117,1396,cs),
(117,1370,o),
(125,1316,o),
(138,1236,cs),
(151,1155,o),
(165,1058,o),
(178,944,cs),
(179,939,o),
(190,936,o),
(213,936,cs)
);
}
);
width = 422;
},
{
layerId = "75918100-ED89-42A8-B0FE-888EB9C86810";
shapes = (
{
closed = 1;
nodes = (
(252,930,o),
(272,935,o),
(272,944,cs),
(272,985,o),
(299,1132,o),
(321,1235,cs),
(338,1316,o),
(344,1363,o),
(344,1386,cs),
(344,1445,o),
(300,1481,o),
(213,1481,cs),
(124,1481,o),
(80,1445,o),
(80,1386,cs),
(80,1354,o),
(85,1316,o),
(103,1235,cs),
(126,1132,o),
(152,985,o),
(152,944,cs),
(152,935,o),
(172,930,o),
(213,930,cs)
);
}
);
width = 419;
},
{
layerId = "6ABD9449-5E80-4451-809E-12ADEB9E9AB4";
shapes = (
{
closed = 1;
nodes = (
(231,938,o),
(239,940,o),
(240,944,cs),
(259,1082,o),
(267,1163,o),
(277,1236,cs),
(289,1316,o),
(295,1372,o),
(295,1399,cs),
(295,1456,o),
(267,1481,o),
(212,1481,cs),
(157,1481,o),
(129,1456,o),
(129,1399,cs),
(129,1375,o),
(138,1316,o),
(150,1236,cs),
(159,1163,o),
(169,1082,o),
(187,944,cs),
(188,940,o),
(196,938,o),
(213,938,cs)
);
}
);
width = 423;
},
{
layerId = "70B83247-6FA0-4662-9656-C86DD2A17D3B";
shapes = (
{
closed = 1;
nodes = (
(203,934,o),
(217,938,o),
(217,944,cs),
(226,1057,o),
(237,1139,o),
(251,1235,cs),
(263,1316,o),
(268,1368,o),
(268,1393,cs),
(268,1451,o),
(238,1481,o),
(181,1481,cs),
(123,1481,o),
(94,1450,o),
(94,1393,cs),
(94,1369,o),
(96,1335,o),
(111,1236,cs),
(126,1139,o),
(139,1036,o),
(145,944,cs),
(145,938,o),
(159,934,o),
(181,934,cs)
);
}
);
width = 360;
},
{
layerId = "9E6FDE2E-55A6-44A9-9556-F1822294BF26";
shapes = (
{
closed = 1;
nodes = (
(269,938,o),
(277,940,o),
(279,944,cs),
(298,1059,o),
(313,1171,o),
(325,1237,cs),
(339,1316,o),
(346,1372,o),
(346,1399,cs),
(346,1455,o),
(312,1481,o),
(243,1481,cs),
(175,1481,o),
(140,1456,o),
(140,1399,cs),
(140,1371,o),
(154,1297,o),
(165,1236,cs),
(176,1171,o),
(191,1080,o),
(211,944,cs),
(213,940,o),
(221,938,o),
(245,938,cs)
);
}
);
width = 484;
},
{
layerId = "00F4936D-6309-4DEC-83B3-42806ED1A477";
shapes = (
{
closed = 1;
nodes = (
(236,936,o),
(247,939,o),
(248,944,cs),
(262,1058,o),
(275,1155,o),
(288,1236,cs),
(301,1316,o),
(307,1370,o),
(307,1396,cs),
(307,1453,o),
(275,1481,o),
(212,1481,cs),
(149,1481,o),
(117,1453,o),
(117,1396,cs),
(117,1370,o),
(125,1316,o),
(138,1236,cs),
(151,1155,o),
(165,1058,o),
(178,944,cs),
(179,939,o),
(190,936,o),
(213,936,cs)
);
}
);
width = 422;
}
);
unicode = 39;
}
{
glyphname = parenleft;
kernRight = parenleft;
layers = (
{
hints = (
{
horizontal = 1;
origin = (0,20);
type = TTSnap;
},
{
horizontal = 1;
origin = (0,14);
type = TTSnap;
}
);
layerId = master01;
shapes = (
{
closed = 1;
nodes = (
(319,-159,o),
(317,-149,o),
(309,-141,cs),
(200,-26,o),
(146,116,o),
(146,287,cs),
(146,459,o),
(200,602,o),
(307,715,cs),
(318,726,o),
(318,734,o),
(310,742,cs),
(301,750,o),
(287,750,o),
(277,740,cs),
(159,628,o),
(78,457,o),
(78,287,cs),
(78,96,o),
(140,-42,o),
(277,-165,cs),
(288,-174,o),
(297,-178,o),
(308,-168,cs)
);
}
);
width = 330;
},
{
layerId = "75918100-ED89-42A8-B0FE-888EB9C86810";
shapes = (
{
closed = 1;
nodes = (
(318,-153,o),
(318,-136,o),
(312,-129,cs),
(211,-31,o),
(165,105,o),
(165,287,cs),
(165,465,o),
(211,602,o),
(313,704,cs),
(322,713,o),
(323,732,o),
(313,742,cs),
(302,751,o),
(279,748,o),
(272,742,cs),
(143,626,o),
(60,455,o),
(60,287,cs),
(60,87,o),
(125,-31,o),
(272,-167,cs),
(281,-175,o),
(301,-170,o),
(309,-162,cs)
);
}
);
width = 329;
},
{
layerId = "6ABD9449-5E80-4451-809E-12ADEB9E9AB4";
shapes = (
{
closed = 1;
nodes = (
(320,-161,o),
(316,-153,o),
(308,-145,cs),
(196,-25,o),
(140,120,o),
(140,287,cs),
(140,458,o),
(196,602,o),
(305,718,cs),
(316,730,o),
(317,735,o),
(309,742,cs),
(300,750,o),
(290,750,o),
(278,740,cs),
(163,627,o),
(84,458,o),
(84,287,cs),
(84,98,o),
(146,-47,o),
(278,-165,cs),
(291,-174,o),
(296,-180,o),
(308,-170,cs)
);
}
);
width = 331;
},
{
layerId = "70B83247-6FA0-4662-9656-C86DD2A17D3B";
shapes = (
{
closed = 1;
nodes = (
(260,-157,o),
(259,-145,o),
(253,-138,cs),
(169,-28,o),
(128,112,o),
(128,287,cs),
(128,460,o),
(168,602,o),
(252,711,cs),
(261,722,o),
(262,733,o),
(254,742,cs),
(247,750,o),
(233,750,o),
(226,741,cs),
(126,625,o),
(63,454,o),
(63,287,cs),
(63,94,o),
(113,-39,o),
(226,-166,cs),
(234,-175,o),
(245,-175,o),
(252,-167,cs)
);
}
);
width = 271;
},
{
layerId = "9E6FDE2E-55A6-44A9-9556-F1822294BF26";
shapes = (
{
closed = 1;
nodes = (
(378,-160,o),
(375,-153,o),
(365,-145,cs),
(231,-25,o),
(164,120,o),
(164,287,cs),
(164,458,o),
(231,602,o),
(362,719,cs),
(375,730,o),
(375,736,o),
(366,742,cs),
(355,750,o),
(341,750,o),
(328,740,cs),
(192,631,o),
(94,460,o),
(94,287,cs),
(94,98,o),
(167,-46,o),
(328,-165,cs),
(342,-173,o),
(350,-181,o),
(364,-170,cs)
);
}
);
width = 390;
},
{
layerId = "00F4936D-6309-4DEC-83B3-42806ED1A477";
shapes = (
{
closed = 1;
nodes = (
(319,-159,o),
(317,-149,o),
(309,-141,cs),
(200,-26,o),
(146,116,o),
(146,287,cs),
(146,459,o),
(200,602,o),
(307,715,cs),
(318,726,o),
(318,734,o),
(310,742,cs),
(301,750,o),
(287,750,o),
(277,740,cs),
(159,628,o),
(78,457,o),
(78,287,cs),
(78,96,o),
(140,-42,o),
(277,-165,cs),
(288,-174,o),
(297,-178,o),
(308,-168,cs)
);
}
);
width = 330;
}
);
unicode = 40;
}
{
glyphname = parenright;
kernLeft = parenright;
layers = (
{
hints = (
{
horizontal = 1;
origin = (0,8);
type = TTSnap;
},
{
horizontal = 1;
origin = (0,2);
type = TTSnap;
}
);
layerId = master01;
shapes = (
{
closed = 1;
nodes = (
(29,-176,o),
(38,-177,o),
(45,-170,cs),
(168,-55,o),
(249,115,o),
(249,287,cs),
(249,479,o),
(188,616,o),
(48,741,cs),
(37,751,o),
(30,753,o),
(19,743,cs),
(7,731,o),
(8,726,o),
(18,715,cs),
(127,601,o),
(181,458,o),
(181,287,cs),
(181,115,o),
(127,-28,o),
(17,-146,cs),
(10,-154,o),
(12,-161,o),
(21,-169,cs)
);
}
);
width = 330;
},
{
layerId = "75918100-ED89-42A8-B0FE-888EB9C86810";
shapes = (
{
closed = 1;
nodes = (
(31,-180,o),
(43,-181,o),
(56,-169,cs),
(188,-51,o),
(270,119,o),
(270,287,cs),
(270,514,o),
(183,625,o),
(56,743,cs),
(43,755,o),
(32,754,o),
(19,741,cs),
(6,728,o),
(4,717,o),
(16,706,cs),
(114,611,o),
(165,474,o),
(165,287,cs),
(165,144,o),
(130,-20,o),
(16,-135,cs),
(4,-146,o),
(6,-156,o),
(18,-167,cs)
);
}
);
width = 329;
},
{
layerId = "6ABD9449-5E80-4451-809E-12ADEB9E9AB4";
shapes = (
{
closed = 1;
nodes = (
(28,-177,o),
(34,-177,o),
(42,-170,cs),
(163,-55,o),
(242,114,o),
(242,287,cs),
(242,484,o),
(200,604,o),
(46,740,cs),
(38,748,o),
(30,752,o),
(19,743,cs),
(8,734,o),
(10,727,o),
(20,718,cs),
(131,597,o),
(187,453,o),
(187,287,cs),
(187,105,o),
(126,-31,o),
(18,-150,cs),
(11,-157,o),
(12,-163,o),
(22,-171,cs)
);
}
);
width = 331;
},
{
layerId = "70B83247-6FA0-4662-9656-C86DD2A17D3B";
shapes = (
{
closed = 1;
nodes = (
(25,-177,o),
(34,-176,o),
(40,-169,cs),
(142,-53,o),
(206,117,o),
(206,287,cs),
(206,490,o),
(146,622,o),
(42,741,cs),
(34,750,o),
(25,750,o),
(16,742,cs),
(5,733,o),
(2,728,o),
(10,718,cs),
(98,604,o),
(141,463,o),
(141,287,cs),
(141,124,o),
(104,-25,o),
(14,-143,cs),
(8,-151,o),
(5,-160,o),
(15,-168,cs)
);
}
);
width = 271;
},
{
layerId = "9E6FDE2E-55A6-44A9-9556-F1822294BF26";
shapes = (
{
closed = 1;
nodes = (
(33,-177,o),
(42,-177,o),
(50,-170,cs),
(195,-57,o),
(292,113,o),
(292,287,cs),
(292,467,o),
(229,611,o),
(54,741,cs),
(42,750,o),
(36,751,o),
(22,743,cs),
(8,734,o),
(12,727,o),
(22,718,cs),
(156,597,o),
(222,453,o),
(222,287,cs),
(222,105,o),
(151,-30,o),
(21,-150,cs),
(13,-157,o),
(13,-163,o),
(24,-170,cs)
);
}
);
width = 389;
},
{
layerId = "00F4936D-6309-4DEC-83B3-42806ED1A477";
shapes = (
{
closed = 1;
nodes = (
(29,-176,o),
(38,-177,o),
(45,-170,cs),
(168,-55,o),
(249,115,o),
(249,287,cs),
(249,479,o),
(188,616,o),
(48,741,cs),
(37,751,o),
(30,753,o),
(19,743,cs),
(7,731,o),
(8,726,o),
(18,715,cs),
(127,601,o),
(181,458,o),
(181,287,cs),
(181,115,o),
(127,-28,o),
(17,-146,cs),
(10,-154,o),
(12,-161,o),
(21,-169,cs)
);
}
);
width = 330;
}
);
unicode = 41;
}
{
glyphname = asterisk;
kernLeft = KO_exclam;
kernRight = KO_quotedblleft;
layers = (
{
layerId = master01;
shapes = (
{
closed = 1;
nodes = (
(214,339,l),
(214,479,l),
(333,412,l),
(351,441,l),
(232,510,l),
(351,579,l),
(333,609,l),
(214,540,l),
(214,676,l),
(179,676,l),
(179,541,l),
(60,609,l),
(42,579,l),
(162,510,l),
(42,441,l),
(60,412,l),
(179,479,l),
(179,339,l)
);
}
);
width = 394;
},
{
layerId = "75918100-ED89-42A8-B0FE-888EB9C86810";
shapes = (
{
closed = 1;
nodes = (
(228,313,l),
(228,447,l),
(343,380,l),
(370,427,l),
(255,494,l),
(370,560,l),
(343,607,l),
(228,541,l),
(228,674,l),
(174,674,l),
(174,541,l),
(59,607,l),
(32,560,l),
(147,494,l),
(32,427,l),
(59,380,l),
(174,447,l),
(174,313,l)
);
}
);
width = 404;
},
{
layerId = "6ABD9449-5E80-4451-809E-12ADEB9E9AB4";
shapes = (
{
closed = 1;
nodes = (
(209,348,l),
(209,490,l),
(330,422,l),
(345,446,l),
(224,515,l),
(345,585,l),
(330,609,l),
(209,540,l),
(209,676,l),
(181,676,l),
(181,541,l),
(61,609,l),
(45,585,l),
(167,515,l),
(45,446,l),
(61,422,l),
(181,490,l),
(181,348,l)
);
}
);
width = 391;
},
{
layerId = "70B83247-6FA0-4662-9656-C86DD2A17D3B";
shapes = (
{
closed = 1;
nodes = (
(178,331,l),
(178,469,l),
(272,402,l),
(290,437,l),
(195,505,l),
(290,573,l),
(272,608,l),
(178,541,l),
(178,675,l),
(145,675,l),
(145,541,l),
(50,608,l),
(34,573,l),
(128,505,l),
(34,437,l),
(50,402,l),
(145,469,l),
(145,331,l)
);
}
);
width = 324;
},
{
layerId = "9E6FDE2E-55A6-44A9-9556-F1822294BF26";
shapes = (
{
closed = 1;
nodes = (
(250,347,l),
(250,489,l),
(394,421,l),
(413,446,l),
(269,515,l),
(413,585,l),
(394,609,l),
(250,540,l),
(250,676,l),
(213,676,l),
(213,541,l),
(70,609,l),
(50,585,l),
(196,515,l),
(50,446,l),
(70,421,l),
(213,489,l),
(213,347,l)
);
}
);
width = 464;
},
{
layerId = "00F4936D-6309-4DEC-83B3-42806ED1A477";
shapes = (
{
closed = 1;
nodes = (
(214,339,l),
(214,479,l),
(333,412,l),
(351,441,l),
(232,510,l),
(351,579,l),
(333,609,l),
(214,540,l),
(214,676,l),
(179,676,l),
(179,541,l),
(60,609,l),
(42,579,l),
(162,510,l),
(42,441,l),
(60,412,l),
(179,479,l),
(179,339,l)
);
}
);
width = 394;
}
);
unicode = 42;
userData = {
KernOnSpecialSpacing = {
L = quotes;
R = quotes;
};
};
}
{
glyphname = comma;
kernLeft = comma;
layers = (
{
layerId = master01;
shapes = (
{
closed = 1;
nodes = (
(156,-118,o),
(200,-53,o),
(200,23,cs),
(200,76,o),
(164,115,o),
(116,115,cs),
(82,115,o),
(62,98,o),
(62,69,cs),
(62,44,o),
(73,26,o),
(96,16,cs),
(125,1,o),
(133,-7,o),
(133,-23,cs),
(133,-71,o),
(105,-115,o),
(53,-154,cs),
(48,-157,o),
(47,-160,o),
(54,-168,cs),
(59,-174,o),
(62,-176,o),
(67,-173,cs)
);
}
);
width = 254;
},
{
layerId = "75918100-ED89-42A8-B0FE-888EB9C86810";
shapes = (
{
closed = 1;
nodes = (
(158,-140,o),
(221,-61,o),
(221,14,cs),
(221,77,o),
(179,127,o),
(126,127,cs),
(80,127,o),
(47,102,o),
(47,65,cs),
(47,33,o),
(66,3,o),
(94,-7,cs),
(113,-14,o),
(115,-19,o),
(115,-29,cs),
(115,-75,o),
(90,-125,o),
(49,-162,cs),
(44,-167,o),
(44,-169,o),
(49,-177,cs),
(54,-184,o),
(58,-186,o),
(64,-183,cs)
);
}
);
width = 253;
},
{
layerId = "6ABD9449-5E80-4451-809E-12ADEB9E9AB4";
shapes = (
{
closed = 1;
nodes = (
(156,-111,o),
(194,-51,o),
(194,27,cs),
(194,77,o),
(159,115,o),
(112,115,cs),
(82,115,o),
(65,100,o),
(65,73,cs),
(65,49,o),
(74,35,o),
(95,24,cs),
(131,6,o),
(139,-2,o),
(139,-21,cs),
(139,-69,o),
(110,-112,o),
(52,-154,cs),
(47,-157,o),
(46,-159,o),
(53,-168,cs),
(58,-174,o),
(62,-176,o),
(66,-173,cs)
);
}
);
width = 254;
},
{
layerId = "70B83247-6FA0-4662-9656-C86DD2A17D3B";
shapes = (
{
closed = 1;
nodes = (
(125,-123,o),
(164,-57,o),
(164,19,cs),
(164,72,o),
(133,115,o),
(95,115,cs),
(66,115,o),
(46,95,o),
(46,65,cs),
(46,39,o),
(57,19,o),
(76,7,cs),
(96,-4,o),
(100,-10,o),
(100,-25,cs),
(100,-72,o),
(80,-117,o),
(42,-154,cs),
(39,-157,o),
(39,-163,o),
(42,-169,cs),
(45,-174,o),
(49,-176,o),
(54,-173,cs)
);
}
);
width = 208;
},
{
layerId = "9E6FDE2E-55A6-44A9-9556-F1822294BF26";
shapes = (
{
closed = 1;
nodes = (
(189,-115,o),
(235,-61,o),
(235,5,cs),
(235,69,o),
(193,111,o),
(131,111,cs),
(99,111,o),
(77,94,o),
(77,69,cs),
(77,45,o),
(88,31,o),
(114,20,cs),
(155,3,o),
(165,-8,o),
(165,-32,cs),
(165,-74,o),
(130,-117,o),
(63,-158,cs),
(58,-161,o),
(56,-163,o),
(64,-172,cs),
(71,-178,o),
(74,-180,o),
(80,-177,cs)
);
}
);
width = 299;
},
{
layerId = "00F4936D-6309-4DEC-83B3-42806ED1A477";
shapes = (
{
closed = 1;
nodes = (
(156,-118,o),
(200,-53,o),
(200,23,cs),
(200,76,o),
(164,115,o),
(116,115,cs),
(82,115,o),
(62,98,o),
(62,69,cs),
(62,44,o),
(73,26,o),
(96,16,cs),
(125,1,o),
(133,-7,o),
(133,-23,cs),
(133,-71,o),
(105,-115,o),
(53,-154,cs),
(48,-157,o),
(47,-160,o),
(54,-168,cs),
(59,-174,o),
(62,-176,o),
(67,-173,cs)
);
}
);
width = 254;
}
);
unicode = 44;
}
{
glyphname = hyphen;
kernLeft = KO_hyphen;
kernRight = KO_hyphen;
layers = (
{
layerId = master01;
shapes = (
{
closed = 1;
nodes = (
(284,238,ls),
(291,238,o),
(294,247,o),
(294,266,cs),
(294,285,o),
(291,294,o),
(285,294,cs),
(56,294,ls),
(51,294,o),
(48,285,o),
(48,266,cs),
(48,247,o),
(51,238,o),
(56,238,cs)
);
}
);
width = 344;
},
{
layerId = "75918100-ED89-42A8-B0FE-888EB9C86810";
shapes = (
{
closed = 1;
nodes = (
(280,234,ls),
(287,234,o),
(291,245,o),
(291,266,cs),
(291,287,o),
(287,298,o),
(281,298,cs),
(61,298,ls),
(55,298,o),
(52,287,o),
(52,266,cs),
(52,245,o),
(55,234,o),
(61,234,cs)
);
}
);
width = 343;
},
{
layerId = "6ABD9449-5E80-4451-809E-12ADEB9E9AB4";
shapes = (
{
closed = 1;
nodes = (
(286,239,ls),
(292,239,o),
(294,248,o),
(294,266,cs),
(294,284,o),
(292,292,o),
(287,292,cs),
(55,292,ls),
(49,292,o),
(47,284,o),
(47,266,cs),
(47,248,o),
(49,239,o),
(55,239,cs)
);
}
);
width = 344;
},
{
layerId = "70B83247-6FA0-4662-9656-C86DD2A17D3B";
shapes = (
{
closed = 1;
nodes = (
(222,237,ls),
(227,237,o),
(230,248,o),
(230,266,cs),
(230,284,o),
(227,295,o),
(223,295,cs),
(45,295,ls),
(41,295,o),
(39,287,o),
(39,266,cs),
(39,245,o),
(41,237,o),
(45,237,cs)
);
}
);
width = 270;
},
{
layerId = "9E6FDE2E-55A6-44A9-9556-F1822294BF26";
shapes = (
{
closed = 1;
nodes = (
(350,239,ls),
(357,239,o),
(360,247,o),
(360,266,cs),
(360,285,o),
(357,293,o),
(351,293,cs),
(67,293,ls),
(61,293,o),
(58,282,o),
(58,266,cs),
(58,249,o),
(61,239,o),
(67,239,cs)
);
}
);
width = 420;
},
{
layerId = "00F4936D-6309-4DEC-83B3-42806ED1A477";
shapes = (
{
closed = 1;
nodes = (
(284,238,ls),
(291,238,o),
(294,247,o),
(294,266,cs),
(294,285,o),
(291,294,o),
(285,294,cs),
(56,294,ls),
(51,294,o),
(48,285,o),
(48,266,cs),
(48,247,o),
(51,238,o),
(56,238,cs)
);
}
);
width = 344;
}
);
unicode = 45;
userData = {
KernOnSpecialSpacing = {
L = hyphen;
R = hyphen;
};
};
}
{
glyphname = period;
kernLeft = comma;
layers = (
{
hints = (
{
horizontal = 1;
origin = (0,11);
stem = -1;
target = (0,5);
type = TTStem;
}
);
layerId = master01;
shapes = (
{
closed = 1;
nodes = (
(331,-25,o),
(381,24,o),
(381,93,cs),
(381,162,o),
(331,211,o),
(260,211,cs),
(189,211,o),
(139,162,o),
(139,93,cs),
(139,24,o),
(189,-25,o),
(260,-25,cs)
);
}
);
width = 520;
},
{
layerId = "75918100-ED89-42A8-B0FE-888EB9C86810";
shapes = (
{
closed = 1;
nodes = (
(353,-26,o),
(418,37,o),
(418,127,cs),
(418,216,o),
(353,279,o),
(261,279,cs),
(169,279,o),
(104,216,o),
(104,127,cs),
(104,37,o),
(169,-26,o),
(261,-26,cs)
);
}
);
width = 518;
},
{
layerId = "6ABD9449-5E80-4451-809E-12ADEB9E9AB4";
shapes = (
{
closed = 1;
nodes = (
(324,-25,o),
(369,20,o),
(369,82,cs),
(369,144,o),
(324,188,o),
(260,188,cs),
(196,188,o),
(151,144,o),
(151,82,cs),
(151,20,o),
(196,-25,o),
(260,-25,cs)
);
}
);
width = 521;
},
{
layerId = "70B83247-6FA0-4662-9656-C86DD2A17D3B";
shapes = (
{
closed = 1;
nodes = (
(291,-25,o),
(341,24,o),
(341,93,cs),
(341,162,o),
(291,211,o),
(220,211,cs),
(149,211,o),
(99,162,o),
(99,93,cs),
(99,24,o),
(149,-25,o),
(220,-25,cs)
);
}
);
width = 438;
},
{
layerId = "9E6FDE2E-55A6-44A9-9556-F1822294BF26";
shapes = (
{
closed = 1;
nodes = (
(371,-25,o),
(421,24,o),
(421,93,cs),
(421,162,o),
(371,211,o),
(300,211,cs),
(229,211,o),
(179,162,o),
(179,93,cs),
(179,24,o),
(229,-25,o),
(300,-25,cs)
);
}
);
width = 602;
},
{
layerId = "00F4936D-6309-4DEC-83B3-42806ED1A477";
shapes = (
{
closed = 1;
nodes = (
(331,-25,o),
(381,24,o),
(381,93,cs),
(381,162,o),
(331,211,o),
(260,211,cs),
(189,211,o),
(139,162,o),
(139,93,cs),
(139,24,o),
(189,-25,o),
(260,-25,cs)
);
}
);
width = 520;
}
);
unicode = 46;
}
{
glyphname = slash;
layers = (
{
guides = (
{
pos = (165,-307);
},
{
pos = (841,1479);
}
);
layerId = master01;
shapes = (
{
closed = 1;
nodes = (
(410,698,ls),
(414,707,o),
(364,728,o),
(360,719,cs),
(2,-126,ls),
(-2,-135,o),
(46,-157,o),
(50,-148,cs)
);
}
);
width = 350;
},
{
layerId = "75918100-ED89-42A8-B0FE-888EB9C86810";
shapes = (
{
closed = 1;
nodes = (
(368,689,ls),
(372,698,o),
(305,726,o),
(301,717,cs),
(-52,-116,ls),
(-56,-125,o),
(10,-153,o),
(14,-144,cs)
);
}
);
width = 254;
},
{
layerId = "6ABD9449-5E80-4451-809E-12ADEB9E9AB4";
shapes = (
{
closed = 1;
nodes = (
(408,701,ls),
(412,710,o),
(368,728,o),
(365,720,cs),
(4,-129,ls),
(0,-138,o),
(42,-158,o),
(46,-149,cs)
);
}
);
width = 351;
},
{
layerId = "70B83247-6FA0-4662-9656-C86DD2A17D3B";
shapes = (
{
closed = 1;
nodes = (
(352,701,ls),
(354,709,o),
(305,727,o),
(302,718,cs),
(-1,-124,ls),
(-5,-132,o),
(45,-150,o),
(48,-141,cs)
);
}
);
width = 295;
},
{
layerId = "9E6FDE2E-55A6-44A9-9556-F1822294BF26";
shapes = (
{
closed = 1;
nodes = (
(468,696,ls),
(472,704,o),
(423,729,o),
(419,720,cs),
(5,-128,ls),
(1,-137,o),
(48,-163,o),
(52,-155,cs)
);
}
);
width = 405;
},
{
guides = (
{
pos = (165,-307);
},
{
pos = (841,1479);
}
);
layerId = "00F4936D-6309-4DEC-83B3-42806ED1A477";
shapes = (
{
closed = 1;
nodes = (
(410,698,ls),
(414,707,o),
(364,728,o),
(360,719,cs),
(2,-126,ls),
(-2,-135,o),
(46,-157,o),
(50,-148,cs)
);
}
);
width = 350;
}
);
unicode = 47;
}
{
glyphname = zero;
kernRight = zero.osf;
layers = (
{
layerId = master01;
shapes = (
{
closed = 1;
nodes = (
(379,-12,o),
(473,86,o),
(473,207,cs),
(473,329,o),
(378,426,o),
(259,426,cs),
(140,426,o),
(45,328,o),
(45,207,cs),
(45,85,o),
(140,-12,o),
(259,-12,cs)
);
},
{
closed = 1;
nodes = (
(174,31,o),
(106,111,o),
(106,205,cs),
(106,298,o),
(172,381,o),
(259,381,cs),
(345,381,o),
(412,299,o),
(412,205,cs),
(412,112,o),
(346,31,o),
(259,31,cs)
);
}
);
width = 514;
},
{
layerId = "75918100-ED89-42A8-B0FE-888EB9C86810";
shapes = (
{
closed = 1;
nodes = (
(390,-12,o),
(510,66,o),
(510,207,cs),
(510,321,o),
(416,425,o),
(278,425,cs),
(171,425,o),
(46,346,o),
(46,207,cs),
(46,130,o),
(109,-12,o),
(278,-12,cs)
);
},
{
closed = 1;
nodes = (
(205,56,o),
(144,125,o),
(144,205,cs),
(144,284,o),
(203,354,o),
(278,354,cs),
(354,354,o),
(413,287,o),
(413,205,cs),
(413,125,o),
(354,56,o),
(278,56,cs)
);
}
);
width = 532;
},
{
layerId = "6ABD9449-5E80-4451-809E-12ADEB9E9AB4";
shapes = (
{
closed = 1;
nodes = (
(388,-12,o),
(474,92,o),
(474,207,cs),
(474,332,o),
(379,426,o),
(266,426,cs),
(142,426,o),
(58,322,o),
(58,207,cs),
(58,71,o),
(163,-12,o),
(266,-12,cs)
);
},
{
closed = 1;
nodes = (
(176,22,o),
(107,106,o),
(107,205,cs),
(107,302,o),
(175,390,o),
(266,390,cs),
(355,390,o),
(425,303,o),
(425,205,cs),
(425,108,o),
(356,22,o),
(266,22,cs)
);
}
);
width = 508;
},
{
layerId = "70B83247-6FA0-4662-9656-C86DD2A17D3B";
shapes = (
{
closed = 1;
nodes = (
(314,-12,o),
(397,80,o),
(397,207,cs),
(397,327,o),
(321,425,o),
(221,425,cs),
(129,425,o),
(44,333,o),
(44,207,cs),
(44,99,o),
(110,-12,o),
(221,-12,cs)
);
},
{
closed = 1;
nodes = (
(156,39,o),
(104,116,o),
(104,205,cs),
(104,294,o),
(155,373,o),
(221,373,cs),
(286,373,o),
(337,295,o),
(337,205,cs),
(337,116,o),
(286,39,o),
(221,39,cs)
);
}
);
width = 422;
},
{
layerId = "9E6FDE2E-55A6-44A9-9556-F1822294BF26";
shapes = (
{
closed = 1;
nodes = (
(444,-12,o),
(549,92,o),
(549,207,cs),
(549,332,o),
(436,426,o),
(298,426,cs),
(150,426,o),
(47,323,o),
(47,207,cs),
(47,72,o),
(169,-12,o),
(298,-12,cs)
);
},
{
closed = 1;
nodes = (
(191,23,o),
(109,107,o),
(109,205,cs),
(109,302,o),
(190,389,o),
(298,389,cs),
(404,389,o),
(487,302,o),
(487,205,cs),
(487,108,o),
(405,23,o),
(298,23,cs)
);
}
);
width = 605;
},
{
layerId = "00F4936D-6309-4DEC-83B3-42806ED1A477";
shapes = (
{
closed = 1;
nodes = (
(379,-12,o),
(473,86,o),
(473,207,cs),
(473,329,o),
(378,426,o),
(259,426,cs),
(140,426,o),
(45,328,o),
(45,207,cs),
(45,85,o),
(140,-12,o),
(259,-12,cs)
);
},
{
closed = 1;
nodes = (
(174,31,o),
(106,111,o),
(106,205,cs),
(106,298,o),
(172,381,o),
(259,381,cs),
(345,381,o),
(412,299,o),
(412,205,cs),
(412,112,o),
(346,31,o),
(259,31,cs)
);
}
);
width = 514;
}
);
unicode = 48;
userData = {
KernOnSpecialSpacing = {
L = NoKerning;
R = NoKerning;
};
};
}
{
glyphname = one;
kernLeft = one.osf;
kernRight = one.osf;
layers = (
{
layerId = master01;
shapes = (
{
closed = 1;
nodes = (
(95,-1,o),
(127,0,o),
(167,0,cs),
(202,0,o),
(232,-1,o),
(259,-4,c),
(269,-4,o),
(269,24,o),
(259,24,cs),
(221,24,o),
(201,37,o),
(201,62,cs),
(201,353,ls),
(201,379,o),
(221,392,o),
(259,392,cs),
(269,392,o),
(269,418,o),
(259,418,c),
(239,416,o),
(208,415,o),
(167,415,cs),
(121,415,o),
(88,416,o),
(68,418,c),
(58,418,o),
(58,392,o),
(68,392,cs),
(106,392,o),
(125,379,o),
(125,353,cs),
(125,62,ls),
(125,37,o),
(106,24,o),
(68,24,cs),
(58,24,o),
(58,-4,o),
(68,-4,c)
);
}
);
width = 318;
},
{
layerId = "75918100-ED89-42A8-B0FE-888EB9C86810";
shapes = (
{
closed = 1;
nodes = (
(95,-1,o),
(130,0,o),
(176,0,cs),
(216,0,o),
(247,-1,o),
(274,-4,c),
(284,-4,o),
(287,33,o),
(277,33,cs),
(239,33,o),
(228,43,o),
(228,71,cs),
(228,343,ls),
(228,373,o),
(244,381,o),
(277,381,cs),
(287,381,o),
(287,418,o),
(277,418,c),
(257,416,o),
(223,415,o),
(176,415,cs),
(124,415,o),
(88,416,o),
(68,418,c),
(58,418,o),
(58,381,o),
(68,381,cs),
(107,381,o),
(116,370,o),
(116,344,cs),
(116,70,ls),
(116,43,o),
(106,33,o),
(68,33,cs),
(58,33,o),
(58,-4,o),
(68,-4,c)
);
}
);
width = 335;
},
{
layerId = "6ABD9449-5E80-4451-809E-12ADEB9E9AB4";
shapes = (
{
closed = 1;
nodes = (
(95,-1,o),
(126,0,o),
(164,0,cs),
(197,0,o),
(228,-1,o),
(254,-4,c),
(261,-4,o),
(264,21,o),
(253,21,cs),
(215,21,o),
(192,34,o),
(192,59,cs),
(192,356,ls),
(192,381,o),
(213,396,o),
(253,396,cs),
(263,396,o),
(264,418,o),
(253,418,c),
(233,416,o),
(204,415,o),
(164,415,cs),
(120,415,o),
(88,416,o),
(68,418,c),
(58,418,o),
(58,396,o),
(68,396,cs),
(105,396,o),
(128,382,o),
(128,356,cs),
(128,60,ls),
(128,34,o),
(106,21,o),
(68,21,cs),
(58,21,o),
(58,-4,o),
(68,-4,c)
);
}
);
width = 312;
},
{
layerId = "70B83247-6FA0-4662-9656-C86DD2A17D3B";
shapes = (
{
closed = 1;
nodes = (
(75,-1,o),
(103,0,o),
(136,0,cs),
(166,0,o),
(190,-1,o),
(211,-4,c),
(221,-4,o),
(222,24,o),
(212,24,cs),
(179,24,o),
(169,39,o),
(169,61,cs),
(169,353,ls),
(169,378,o),
(181,392,o),
(212,392,cs),
(222,392,o),
(222,418,o),
(212,418,c),
(196,416,o),
(171,415,o),
(136,415,cs),
(98,415,o),
(70,416,o),
(54,418,c),
(44,418,o),
(44,392,o),
(54,392,cs),
(88,392,o),
(97,377,o),
(97,354,cs),
(97,61,ls),
(97,39,o),
(88,24,o),
(54,24,cs),
(44,24,o),
(44,-4,o),
(54,-4,c)
);
}
);
width = 260;
},
{
layerId = "9E6FDE2E-55A6-44A9-9556-F1822294BF26";
shapes = (
{
closed = 1;
nodes = (
(114,-1,o),
(152,0,o),
(198,0,cs),
(238,0,o),
(275,-1,o),
(306,-4,c),
(316,-4,o),
(316,24,o),
(306,24,cs),
(262,24,o),
(233,35,o),
(233,63,cs),
(233,352,ls),
(233,379,o),
(261,392,o),
(306,392,cs),
(316,392,o),
(316,418,o),
(306,418,c),
(282,416,o),
(246,415,o),
(198,415,cs),
(145,415,o),
(106,416,o),
(82,418,c),
(72,418,o),
(72,392,o),
(82,392,cs),
(124,392,o),
(153,380,o),
(153,351,cs),
(153,63,ls),
(153,34,o),
(124,24,o),
(82,24,cs),
(72,24,o),
(72,-4,o),
(82,-4,c)
);
}
);
width = 376;
},
{
layerId = "00F4936D-6309-4DEC-83B3-42806ED1A477";
shapes = (
{
closed = 1;
nodes = (
(95,-1,o),
(127,0,o),
(167,0,cs),
(202,0,o),
(232,-1,o),
(259,-4,c),
(268,-4,o),
(270,24,o),
(259,24,cs),
(221,24,o),
(201,37,o),
(201,62,cs),
(201,353,ls),
(201,379,o),
(221,392,o),
(259,392,cs),
(269,392,o),
(269,418,o),
(259,418,c),
(239,416,o),
(208,415,o),
(167,415,cs),
(121,415,o),
(88,416,o),
(68,418,c),
(57,418,o),
(57,392,o),
(68,392,cs),
(106,392,o),
(125,379,o),
(125,353,cs),
(125,62,ls),
(125,37,o),
(106,24,o),
(68,24,cs),
(57,24,o),
(57,-4,o),
(68,-4,c)
);
}
);
width = 318;
}
);
unicode = 49;
userData = {
KernOnSpecialSpacing = {
L = NoKerning;
R = NoKerning;
};
};
}
{
glyphname = three;
layers = (
{
layerId = master01;
shapes = (
{
closed = 1;
nodes = (
(617,-23,o),
(819,145,o),
(819,408,cs),
(819,578,o),
(734,707,o),
(565,741,cs),
(546,744,o),
(537,750,o),
(537,757,cs),
(537,762,o),
(548,770,o),
(569,782,cs),
(691,851,o),
(752,942,o),
(752,1053,cs),
(752,1210,o),
(631,1333,o),
(470,1333,cs),
(349,1333,o),
(245,1265,o),
(154,1130,cs),
(149,1124,o),
(156,1114,o),
(173,1100,cs),
(190,1086,o),
(200,1083,o),
(205,1090,cs),
(264,1181,o),
(335,1227,o),
(415,1227,cs),
(518,1227,o),
(600,1151,o),
(600,1021,cs),
(600,852,o),
(460,754,o),
(254,754,cs),
(245,754,o),
(240,741,o),
(240,715,cs),
(240,688,o),
(245,674,o),
(254,674,c),
(286,685,o),
(324,690,o),
(367,690,cs),
(547,690,o),
(649,561,o),
(649,370,cs),
(649,205,o),
(572,53,o),
(431,53,cs),
(373,53,o),
(325,78,o),
(280,127,cs),
(235,176,o),
(200,201,o),
(165,201,cs),
(135,201,o),
(96,169,o),
(96,120,cs),
(96,27,o),
(225,-23,o),
(365,-23,cs)
);
}
);
width = 956;
},
{
layerId = "75918100-ED89-42A8-B0FE-888EB9C86810";
shapes = (
{
closed = 1;
nodes = (
(645,-23,o),
(856,169,o),
(856,427,cs),
(856,572,o),
(792,687,o),
(665,742,cs),
(650,749,o),
(643,754,o),
(643,764,cs),
(643,773,o),
(649,781,o),
(663,792,cs),
(747,855,o),
(788,941,o),
(788,1036,cs),
(788,1209,o),
(658,1333,o),
(481,1333,cs),
(330,1333,o),
(224,1244,o),
(123,1094,cs),
(116,1083,o),
(122,1071,o),
(139,1057,cs),
(162,1038,o),
(179,1036,o),
(188,1049,cs),
(237,1121,o),
(302,1204,o),
(398,1204,cs),
(495,1204,o),
(563,1119,o),
(563,1009,cs),
(563,856,o),
(432,764,o),
(254,764,cs),
(239,764,o),
(231,747,o),
(231,713,cs),
(231,676,o),
(241,657,o),
(260,657,c),
(292,668,o),
(328,674,o),
(367,674,cs),
(509,674,o),
(612,562,o),
(612,370,cs),
(612,231,o),
(570,78,o),
(437,78,cs),
(382,78,o),
(339,105,o),
(290,163,cs),
(241,221,o),
(210,240,o),
(150,240,cs),
(99,240,o),
(59,207,o),
(59,143,cs),
(59,22,o),
(226,-23,o),
(371,-23,cs)
);
}
);
width = 954;
},
{
layerId = "6ABD9449-5E80-4451-809E-12ADEB9E9AB4";
shapes = (
{
closed = 1;
nodes = (
(608,-23,o),
(807,137,o),
(807,402,cs),
(807,580,o),
(715,714,o),
(532,741,cs),
(511,742,o),
(502,749,o),
(502,755,cs),
(502,758,o),
(514,766,o),
(538,779,cs),
(672,850,o),
(740,942,o),
(740,1059,cs),
(740,1210,o),
(622,1333,o),
(466,1333,cs),
(355,1333,o),
(252,1272,o),
(164,1142,cs),
(160,1138,o),
(167,1128,o),
(184,1114,cs),
(199,1102,o),
(207,1099,o),
(211,1104,cs),
(273,1201,o),
(346,1235,o),
(421,1235,cs),
(526,1235,o),
(612,1162,o),
(612,1025,cs),
(612,851,o),
(469,751,o),
(254,751,cs),
(247,751,o),
(243,739,o),
(243,716,cs),
(243,692,o),
(246,680,o),
(252,680,c),
(284,691,o),
(323,695,o),
(367,695,cs),
(560,695,o),
(661,561,o),
(661,370,cs),
(661,196,o),
(573,45,o),
(429,45,cs),
(370,45,o),
(320,69,o),
(277,115,cs),
(233,161,o),
(197,188,o),
(170,188,cs),
(147,188,o),
(108,156,o),
(108,112,cs),
(108,29,o),
(225,-23,o),
(363,-23,cs)
);
}
);
width = 957;
},
{
layerId = "70B83247-6FA0-4662-9656-C86DD2A17D3B";
shapes = (
{
closed = 1;
nodes = (
(513,-23,o),
(677,152,o),
(677,414,cs),
(677,576,o),
(615,701,o),
(494,741,cs),
(481,745,o),
(473,750,o),
(473,759,cs),
(473,765,o),
(480,774,o),
(494,785,cs),
(581,852,o),
(624,942,o),
(624,1048,cs),
(624,1209,o),
(524,1333,o),
(390,1333,cs),
(285,1333,o),
(201,1259,o),
(125,1120,cs),
(121,1112,o),
(124,1103,o),
(139,1087,cs),
(153,1072,o),
(165,1069,o),
(170,1078,cs),
(214,1163,o),
(269,1220,o),
(338,1220,cs),
(418,1220,o),
(480,1141,o),
(480,1017,cs),
(480,853,o),
(370,757,o),
(214,757,cs),
(205,757,o),
(200,742,o),
(200,714,cs),
(200,685,o),
(206,669,o),
(216,669,c),
(242,680,o),
(272,685,o),
(305,685,cs),
(438,685,o),
(519,560,o),
(519,370,cs),
(519,212,o),
(468,60,o),
(358,60,cs),
(312,60,o),
(275,86,o),
(238,138,cs),
(203,186,o),
(176,213,o),
(139,213,cs),
(108,213,o),
(77,180,o),
(77,127,cs),
(77,26,o),
(191,-23,o),
(305,-23,cs)
);
}
);
width = 787;
},
{
layerId = "9E6FDE2E-55A6-44A9-9556-F1822294BF26";
shapes = (
{
closed = 1;
nodes = (
(721,-23,o),
(961,138,o),
(961,402,cs),
(961,580,o),
(853,713,o),
(636,741,cs),
(611,743,o),
(601,750,o),
(601,755,cs),
(601,759,o),
(616,766,o),
(644,779,cs),
(801,850,o),
(880,942,o),
(880,1058,cs),
(880,1211,o),
(738,1333,o),
(550,1333,cs),
(413,1333,o),
(289,1271,o),
(183,1140,cs),
(177,1136,o),
(188,1125,o),
(207,1113,cs),
(227,1100,o),
(235,1097,o),
(240,1102,cs),
(314,1199,o),
(401,1234,o),
(492,1234,cs),
(618,1234,o),
(720,1161,o),
(720,1025,cs),
(720,851,o),
(550,751,o),
(294,751,cs),
(285,751,o),
(280,740,o),
(280,716,cs),
(280,691,o),
(284,679,o),
(292,679,c),
(330,690,o),
(376,695,o),
(429,695,cs),
(656,695,o),
(779,562,o),
(779,370,cs),
(779,198,o),
(676,46,o),
(504,46,cs),
(434,46,o),
(375,70,o),
(322,116,cs),
(267,166,o),
(224,189,o),
(191,189,cs),
(162,189,o),
(115,158,o),
(115,113,cs),
(115,28,o),
(259,-23,o),
(425,-23,cs)
);
}
);
width = 1125;
},
{
layerId = "00F4936D-6309-4DEC-83B3-42806ED1A477";
shapes = (
{
closed = 1;
nodes = (
(617,-23,o),
(819,145,o),
(819,408,cs),
(819,578,o),
(734,707,o),
(565,741,cs),
(546,744,o),
(537,750,o),
(537,757,cs),
(537,762,o),
(548,770,o),
(569,782,cs),
(691,851,o),
(752,942,o),
(752,1053,cs),
(752,1210,o),
(631,1333,o),
(470,1333,cs),
(349,1333,o),
(245,1265,o),
(154,1130,cs),
(149,1124,o),
(156,1114,o),
(173,1100,cs),
(190,1086,o),
(200,1083,o),
(205,1090,cs),
(264,1181,o),
(335,1227,o),
(415,1227,cs),
(518,1227,o),
(600,1151,o),
(600,1021,cs),
(600,852,o),
(460,754,o),
(254,754,cs),
(245,754,o),
(240,741,o),
(240,715,cs),
(240,688,o),
(245,674,o),
(254,674,c),
(286,685,o),
(324,690,o),
(367,690,cs),
(547,690,o),
(649,561,o),
(649,370,cs),
(649,205,o),
(572,53,o),
(431,53,cs),
(373,53,o),
(325,78,o),
(280,127,cs),
(235,176,o),
(200,201,o),
(165,201,cs),
(135,201,o),
(96,169,o),
(96,120,cs),
(96,27,o),
(225,-23,o),
(365,-23,cs)
);
}
);
width = 956;
}
);
metricWidth = zero;
unicode = 51;
}
{
glyphname = four;
layers = (
{
guides = (
{
angle = 54.191;
pos = (231,468);
}
);
layerId = master01;
shapes = (
{
closed = 1;
nodes = (
(230,-1,o),
(265,0,o),
(311,0,cs),
(356,0,o),
(391,-1,o),
(416,-4,c),
(426,-4,o),
(426,24,o),
(416,24,cs),
(376,24,o),
(357,37,o),
(357,62,cs),
(357,181,ls),
(357,188,o),
(361,191,o),
(368,191,cs),
(425,191,ls),
(437,191,o),
(437,233,o),
(425,233,cs),
(368,233,ls),
(361,233,o),
(357,236,o),
(357,243,cs),
(357,460,ls),
(357,465,o),
(345,467,o),
(320,467,cs),
(295,467,o),
(282,465,o),
(282,460,cs),
(282,243,ls),
(282,236,o),
(279,233,o),
(272,233,cs),
(82,233,ls),
(74,233,o),
(69,235,o),
(69,240,cs),
(69,242,o),
(71,246,o),
(73,249,cs),
(368,658,l),
(368,668,o),
(359,673,o),
(340,673,cs),
(330,673,o),
(324,671,o),
(321,667,cs),
(211,501,o),
(146,407,o),
(29,254,cs),
(18,239,o),
(6,221,o),
(6,209,cs),
(6,197,o),
(17,191,o),
(39,191,cs),
(272,191,ls),
(279,191,o),
(282,188,o),
(282,181,cs),
(282,62,ls),
(282,37,o),
(256,24,o),
(205,24,cs),
(195,24,o),
(195,-4,o),
(205,-4,c)
);
}
);
width = 467;
},
{
guides = (
{
pos = (344,673);
},
{
angle = 52.837;
pos = (239,469);
}
);
layerId = "75918100-ED89-42A8-B0FE-888EB9C86810";
shapes = (
{
closed = 1;
nodes = (
(223,-1,o),
(265,0,o),
(323,0,cs),
(365,0,o),
(399,-1,o),
(425,-4,c),
(436,-4,o),
(435,33,o),
(425,33,cs),
(392,33,o),
(375,47,o),
(375,76,cs),
(375,167,ls),
(375,176,o),
(380,181,o),
(390,181,cs),
(435,181,ls),
(447,181,o),
(447,246,o),
(435,246,cs),
(390,246,ls),
(380,246,o),
(375,251,o),
(375,261,cs),
(375,455,ls),
(375,462,o),
(356,466,o),
(319,466,cs),
(282,466,o),
(264,462,o),
(264,455,cs),
(264,261,ls),
(264,251,o),
(259,246,o),
(250,246,cs),
(90,246,ls),
(84,246,o),
(81,249,o),
(81,255,cs),
(81,258,o),
(82,262,o),
(85,266,cs),
(373,646,l),
(373,665,o),
(360,673,o),
(328,673,cs),
(318,673,o),
(310,671,o),
(306,665,cs),
(224,531,o),
(138,406,o),
(22,269,cs),
(3,246,o),
(-3,225,o),
(-3,209,cs),
(-3,190,o),
(11,181,o),
(39,181,cs),
(250,181,ls),
(259,181,o),
(264,176,o),
(264,167,cs),
(264,76,ls),
(264,47,o),
(241,33,o),
(195,33,cs),
(185,33,o),
(185,-4,o),
(195,-4,c)
);
}
);
width = 466;
},
{
guides = (
{
pos = (344,673);
},
{
angle = 54.6074;
pos = (229,468);
}
);
layerId = "6ABD9449-5E80-4451-809E-12ADEB9E9AB4";
shapes = (
{
closed = 1;
nodes = (
(232,-1,o),
(265,0,o),
(306,0,cs),
(353,0,o),
(389,-1,o),
(413,-4,c),
(423,-4,o),
(423,21,o),
(413,21,cs),
(372,21,o),
(351,33,o),
(351,57,cs),
(351,186,ls),
(351,191,o),
(354,194,o),
(361,194,cs),
(421,194,ls),
(433,194,o),
(433,229,o),
(421,229,cs),
(361,229,ls),
(354,229,o),
(351,231,o),
(351,237,cs),
(351,461,ls),
(351,466,o),
(341,468,o),
(320,468,cs),
(299,468,o),
(288,466,o),
(288,461,cs),
(288,237,ls),
(288,231,o),
(285,229,o),
(279,229,cs),
(80,229,ls),
(70,229,o),
(65,231,o),
(65,235,cs),
(65,237,o),
(67,240,o),
(69,243,cs),
(366,661,l),
(366,669,o),
(358,673,o),
(343,673,cs),
(334,673,o),
(328,671,o),
(325,667,cs),
(207,490,o),
(149,408,o),
(31,249,cs),
(22,237,o),
(9,219,o),
(9,209,cs),
(9,199,o),
(19,194,o),
(39,194,cs),
(279,194,ls),
(285,194,o),
(288,191,o),
(288,186,cs),
(288,57,ls),
(288,33,o),
(262,21,o),
(208,21,cs),
(200,21,o),
(200,-4,o),
(208,-4,c)
);
}
);
width = 467;
},
{
guides = (
{
pos = (344,673);
},
{
angle = 59.7103;
pos = (190,468);
}
);
layerId = "70B83247-6FA0-4662-9656-C86DD2A17D3B";
shapes = (
{
closed = 1;
nodes = (
(185,-1,o),
(214,0,o),
(255,0,cs),
(290,0,o),
(318,-1,o),
(338,-4,c),
(346,-4,o),
(346,27,o),
(338,27,cs),
(309,27,o),
(294,40,o),
(294,66,cs),
(294,177,ls),
(294,184,o),
(297,188,o),
(304,188,cs),
(346,188,ls),
(358,188,o),
(358,237,o),
(346,237,cs),
(304,237,ls),
(297,237,o),
(294,241,o),
(294,249,cs),
(294,458,ls),
(294,464,o),
(283,467,o),
(258,467,cs),
(234,467,o),
(223,464,o),
(223,458,cs),
(223,249,ls),
(223,241,o),
(220,237,o),
(214,237,cs),
(70,237,ls),
(65,237,o),
(62,240,o),
(62,244,cs),
(62,246,o),
(63,250,o),
(65,254,cs),
(299,654,l),
(299,667,o),
(290,673,o),
(271,673,cs),
(263,673,o),
(258,671,o),
(255,666,cs),
(176,510,o),
(118,407,o),
(23,258,cs),
(13,241,o),
(5,222,o),
(5,209,cs),
(5,195,o),
(15,188,o),
(34,188,cs),
(214,188,ls),
(220,188,o),
(223,184,o),
(223,177,cs),
(223,66,ls),
(223,40,o),
(203,27,o),
(164,27,cs),
(156,27,o),
(156,-4,o),
(164,-4,c)
);
}
);
width = 384;
},
{
guides = (
{
pos = (344,673);
},
{
angle = 49.6206;
pos = (273,468);
}
);
layerId = "9E6FDE2E-55A6-44A9-9556-F1822294BF26";
shapes = (
{
closed = 1;
nodes = (
(275,-1,o),
(316,0,o),
(366,0,cs),
(422,0,o),
(464,-1,o),
(494,-4,c),
(504,-4,o),
(506,21,o),
(494,21,cs),
(444,21,o),
(420,33,o),
(420,58,cs),
(420,186,ls),
(420,191,o),
(424,194,o),
(433,194,cs),
(504,194,ls),
(516,194,o),
(516,229,o),
(504,229,cs),
(433,229,ls),
(424,229,o),
(420,232,o),
(420,238,cs),
(420,461,ls),
(420,466,o),
(407,468,o),
(381,468,cs),
(356,468,o),
(341,466,o),
(341,461,cs),
(341,238,ls),
(341,232,o),
(338,229,o),
(330,229,cs),
(94,229,ls),
(83,229,o),
(77,231,o),
(77,235,cs),
(77,238,o),
(79,241,o),
(82,244,cs),
(438,662,l),
(438,670,o),
(429,673,o),
(410,673,cs),
(398,673,o),
(391,672,o),
(387,667,cs),
(248,492,o),
(175,408,o),
(34,250,cs),
(22,237,o),
(8,219,o),
(8,209,cs),
(8,199,o),
(19,194,o),
(44,194,cs),
(330,194,ls),
(338,194,o),
(341,191,o),
(341,186,cs),
(341,58,ls),
(341,33,o),
(310,21,o),
(247,21,cs),
(235,21,o),
(235,-4,o),
(247,-4,c)
);
}
);
width = 549;
},
{
layerId = "00F4936D-6309-4DEC-83B3-42806ED1A477";
shapes = (
{
closed = 1;
nodes = (
(230,-1,o),
(265,0,o),
(311,0,cs),
(356,0,o),
(391,-1,o),
(416,-4,c),
(426,-4,o),
(426,24,o),
(416,24,cs),
(376,24,o),
(357,37,o),
(357,62,cs),
(357,181,ls),
(357,188,o),
(361,191,o),
(368,191,cs),
(425,191,ls),
(437,191,o),
(437,233,o),
(425,233,cs),
(368,233,ls),
(361,233,o),
(357,236,o),
(357,243,cs),
(357,460,ls),
(357,465,o),
(345,467,o),
(320,467,cs),
(295,467,o),
(282,465,o),
(282,460,cs),
(282,243,ls),
(282,236,o),
(279,233,o),
(272,233,cs),
(82,233,ls),
(74,233,o),
(69,235,o),
(69,240,cs),
(69,242,o),
(71,246,o),
(73,249,cs),
(368,658,l),
(368,668,o),
(359,673,o),
(340,673,cs),
(330,673,o),
(324,671,o),
(321,667,cs),
(211,501,o),
(146,407,o),
(29,254,cs),
(18,239,o),
(6,221,o),
(6,209,cs),
(6,197,o),
(17,191,o),
(39,191,cs),
(272,191,ls),
(279,191,o),
(282,188,o),
(282,181,cs),
(282,62,ls),
(282,37,o),
(256,24,o),
(205,24,cs),
(195,24,o),
(195,-4,o),
(205,-4,c)
);
}
);
width = 467;
}
);
metricWidth = zero;
unicode = 52;
userData = {
KernOnSpecialSpacing = {
L = NoKerning;
R = NoKerning;
};
};
}
{
glyphname = five;
kernLeft = five.osf;
kernRight = five.osf;
layers = (
{
layerId = master01;
shapes = (
{
closed = 1;
nodes = (
(190,-202,o),
(285,-72,o),
(285,21,cs),
(285,125,o),
(220,190,o),
(143,240,cs),
(107,262,o),
(100,274,o),
(100,292,cs),
(100,327,o),
(131,359,o),
(174,359,cs),
(325,359,ls),
(342,359,o),
(358,389,o),
(358,406,cs),
(358,412,o),
(356,417,o),
(350,417,cs),
(155,417,ls),
(140,417,o),
(126,410,o),
(115,395,cs),
(86,354,o),
(54,286,o),
(54,244,cs),
(54,208,o),
(80,188,o),
(117,161,cs),
(180,114,o),
(210,72,o),
(210,4,cs),
(210,-97,o),
(143,-172,o),
(81,-225,cs),
(73,-232,o),
(88,-250,o),
(99,-245,cs)
);
}
);
width = 377;
},
{
layerId = "75918100-ED89-42A8-B0FE-888EB9C86810";
shapes = (
{
closed = 1;
nodes = (
(181,-218,o),
(308,-83,o),
(308,24,cs),
(308,121,o),
(247,194,o),
(161,246,cs),
(123,269,o),
(115,276,o),
(115,291,cs),
(115,314,o),
(131,336,o),
(166,336,cs),
(329,336,ls),
(352,336,o),
(370,372,o),
(370,396,cs),
(370,408,o),
(366,417,o),
(355,417,cs),
(154,417,ls),
(136,417,o),
(121,406,o),
(110,389,cs),
(83,351,o),
(45,288,o),
(45,235,cs),
(45,190,o),
(62,177,o),
(105,146,cs),
(178,95,o),
(196,69,o),
(196,7,cs),
(196,-73,o),
(169,-143,o),
(84,-217,cs),
(74,-226,o),
(93,-254,o),
(107,-248,cs)
);
}
);
width = 379;
},
{
layerId = "6ABD9449-5E80-4451-809E-12ADEB9E9AB4";
shapes = (
{
closed = 1;
nodes = (
(193,-195,o),
(277,-68,o),
(277,20,cs),
(277,126,o),
(211,188,o),
(136,238,cs),
(103,260,o),
(95,274,o),
(95,292,cs),
(95,332,o),
(131,367,o),
(176,367,cs),
(324,367,ls),
(338,367,o),
(355,396,o),
(355,410,cs),
(355,414,o),
(353,417,o),
(349,417,cs),
(155,417,ls),
(141,417,o),
(127,412,o),
(117,397,cs),
(87,354,o),
(57,286,o),
(57,247,cs),
(57,213,o),
(86,192,o),
(121,166,cs),
(181,120,o),
(215,73,o),
(215,3,cs),
(215,-104,o),
(134,-180,o),
(80,-228,cs),
(74,-234,o),
(86,-250,o),
(97,-244,cs)
);
}
);
width = 376;
},
{
layerId = "70B83247-6FA0-4662-9656-C86DD2A17D3B";
shapes = (
{
closed = 1;
nodes = (
(152,-206,o),
(238,-75,o),
(238,22,cs),
(238,122,o),
(188,190,o),
(124,241,cs),
(93,264,o),
(87,275,o),
(87,292,cs),
(87,323,o),
(108,352,o),
(140,352,cs),
(264,352,ls),
(279,352,o),
(293,384,o),
(293,403,cs),
(293,411,o),
(291,417,o),
(285,417,cs),
(126,417,ls),
(113,417,o),
(102,409,o),
(93,393,cs),
(71,352,o),
(43,286,o),
(43,241,cs),
(43,202,o),
(62,185,o),
(92,157,cs),
(146,108,o),
(167,72,o),
(167,5,cs),
(167,-89,o),
(125,-163,o),
(69,-222,cs),
(61,-231,o),
(76,-251,o),
(84,-246,cs)
);
}
);
width = 309;
},
{
layerId = "9E6FDE2E-55A6-44A9-9556-F1822294BF26";
shapes = (
{
closed = 1;
nodes = (
(228,-196,o),
(333,-69,o),
(333,20,cs),
(333,127,o),
(252,189,o),
(162,239,cs),
(122,260,o),
(113,274,o),
(113,292,cs),
(113,331,o),
(155,366,o),
(208,366,cs),
(391,366,ls),
(406,366,o),
(424,395,o),
(424,409,cs),
(424,414,o),
(422,417,o),
(416,417,cs),
(183,417,ls),
(167,417,o),
(150,412,o),
(137,397,cs),
(102,355,o),
(65,286,o),
(65,247,cs),
(65,213,o),
(99,191,o),
(142,165,cs),
(214,120,o),
(253,72,o),
(253,3,cs),
(253,-104,o),
(161,-179,o),
(99,-224,cs),
(91,-230,o),
(103,-249,o),
(112,-245,cs)
);
}
);
width = 445;
},
{
layerId = "00F4936D-6309-4DEC-83B3-42806ED1A477";
shapes = (
{
closed = 1;
nodes = (
(190,-202,o),
(285,-72,o),
(285,21,cs),
(285,125,o),
(220,190,o),
(143,240,cs),
(107,262,o),
(100,274,o),
(100,292,cs),
(100,327,o),
(131,359,o),
(174,359,cs),
(325,359,ls),
(342,359,o),
(358,389,o),
(358,406,cs),
(358,412,o),
(356,417,o),
(350,417,cs),
(155,417,ls),
(140,417,o),
(126,410,o),
(115,395,cs),
(86,354,o),
(54,286,o),
(54,244,cs),
(54,208,o),
(80,188,o),
(117,161,cs),
(180,114,o),
(210,72,o),
(210,4,cs),
(210,-97,o),
(143,-172,o),
(81,-225,cs),
(73,-232,o),
(88,-250,o),
(99,-245,cs)
);
}
);
width = 377;
}
);
unicode = 53;
userData = {
KernOnSpecialSpacing = {
L = NoKerning;
R = NoKerning;
};
};
}
{
glyphname = six;
layers = (
{
layerId = master01;
shapes = (
{
closed = 1;
nodes = (
(346,-8,o),
(422,82,o),
(422,191,cs),
(422,285,o),
(363,374,o),
(268,374,cs),
(230,374,o),
(187,352,o),
(137,307,c),
(145,356,o),
(159,400,o),
(177,440,cs),
(217,525,o),
(285,595,o),
(380,649,cs),
(385,652,o),
(385,656,o),
(381,664,cs),
(377,672,o),
(373,675,o),
(367,673,cs),
(284,636,o),
(209,576,o),
(146,492,cs),
(82,409,o),
(49,320,o),
(49,227,cs),
(49,101,o),
(108,-8,o),
(231,-8,cs)
);
},
{
closed = 1;
nodes = (
(166,31,o),
(129,105,o),
(129,225,cs),
(129,238,o),
(130,251,o),
(132,265,c),
(160,301,o),
(192,319,o),
(229,319,cs),
(303,319,o),
(346,246,o),
(346,161,cs),
(346,97,o),
(311,31,o),
(243,31,cs)
);
}
);
width = 467;
},
{
layerId = "75918100-ED89-42A8-B0FE-888EB9C86810";
shapes = (
{
closed = 1;
nodes = (
(352,-8,o),
(440,83,o),
(440,198,cs),
(440,298,o),
(371,389,o),
(268,389,cs),
(231,389,o),
(190,373,o),
(161,335,c),
(171,376,o),
(186,417,o),
(206,456,cs),
(249,540,o),
(309,603,o),
(387,645,cs),
(392,647,o),
(390,657,o),
(387,664,cs),
(381,680,o),
(375,677,o),
(372,676,cs),
(270,635,o),
(185,569,o),
(118,477,cs),
(60,397,o),
(31,315,o),
(31,232,cs),
(31,107,o),
(92,-8,o),
(231,-8,cs)
);
},
{
closed = 1;
nodes = (
(179,43,o),
(147,105,o),
(147,231,cs),
(147,248,o),
(148,263,o),
(151,276,c),
(174,301,o),
(200,314,o),
(229,314,cs),
(294,314,o),
(333,234,o),
(333,170,cs),
(333,114,o),
(309,43,o),
(243,43,cs)
);
}
);
width = 466;
},
{
layerId = "6ABD9449-5E80-4451-809E-12ADEB9E9AB4";
shapes = (
{
closed = 1;
nodes = (
(344,-8,o),
(416,81,o),
(416,188,cs),
(416,281,o),
(361,369,o),
(268,369,cs),
(230,369,o),
(185,344,o),
(129,298,c),
(136,349,o),
(149,395,o),
(167,435,cs),
(206,521,o),
(276,592,o),
(377,650,cs),
(382,653,o),
(384,656,o),
(379,664,cs),
(375,669,o),
(372,675,o),
(366,672,cs),
(289,636,o),
(218,578,o),
(155,497,cs),
(89,413,o),
(55,322,o),
(55,226,cs),
(55,99,o),
(114,-8,o),
(231,-8,cs)
);
},
{
closed = 1;
nodes = (
(162,27,o),
(123,105,o),
(123,223,cs),
(123,234,o),
(124,247,o),
(125,262,c),
(155,301,o),
(190,320,o),
(229,320,cs),
(306,320,o),
(351,250,o),
(351,158,cs),
(351,91,o),
(311,27,o),
(243,27,cs)
);
}
);
width = 467;
},
{
layerId = "70B83247-6FA0-4662-9656-C86DD2A17D3B";
shapes = (
{
closed = 1;
nodes = (
(283,-8,o),
(348,82,o),
(348,193,cs),
(348,289,o),
(298,378,o),
(220,378,cs),
(189,378,o),
(155,356,o),
(123,315,c),
(129,362,o),
(141,407,o),
(156,445,cs),
(188,529,o),
(240,597,o),
(312,648,cs),
(315,650,o),
(315,656,o),
(313,664,cs),
(309,674,o),
(304,676,o),
(301,674,cs),
(228,635,o),
(165,574,o),
(113,487,cs),
(65,407,o),
(39,319,o),
(39,229,cs),
(39,103,o),
(87,-8,o),
(190,-8,cs)
);
},
{
closed = 1;
nodes = (
(142,34,o),
(114,105,o),
(114,227,cs),
(114,242,o),
(115,257,o),
(117,269,c),
(138,301,o),
(161,317,o),
(188,317,cs),
(245,317,o),
(278,243,o),
(278,164,cs),
(278,102,o),
(253,34,o),
(200,34,cs)
);
}
);
width = 384;
},
{
layerId = "9E6FDE2E-55A6-44A9-9556-F1822294BF26";
shapes = (
{
closed = 1;
nodes = (
(408,-8,o),
(496,81,o),
(496,188,cs),
(496,282,o),
(428,370,o),
(316,370,cs),
(272,370,o),
(218,347,o),
(152,299,c),
(161,350,o),
(176,394,o),
(199,436,cs),
(246,521,o),
(329,592,o),
(448,650,cs),
(455,653,o),
(456,656,o),
(450,665,cs),
(445,669,o),
(441,675,o),
(434,672,cs),
(339,636,o),
(254,578,o),
(178,497,cs),
(98,411,o),
(59,321,o),
(59,226,cs),
(59,99,o),
(129,-8,o),
(272,-8,cs)
);
},
{
closed = 1;
nodes = (
(190,27,o),
(144,104,o),
(144,223,cs),
(144,233,o),
(145,245,o),
(147,262,c),
(182,301,o),
(224,320,o),
(270,320,cs),
(361,320,o),
(414,250,o),
(414,159,cs),
(414,91,o),
(368,27,o),
(287,27,cs)
);
}
);
width = 549;
},
{
layerId = "00F4936D-6309-4DEC-83B3-42806ED1A477";
shapes = (
{
closed = 1;
nodes = (
(346,-8,o),
(422,82,o),
(422,191,cs),
(422,285,o),
(363,374,o),
(268,374,cs),
(230,374,o),
(187,352,o),
(137,307,c),
(145,356,o),
(159,400,o),
(177,440,cs),
(217,525,o),
(285,595,o),
(380,649,cs),
(385,652,o),
(385,656,o),
(381,664,cs),
(377,672,o),
(373,675,o),
(367,673,cs),
(284,636,o),
(209,576,o),
(146,492,cs),
(82,409,o),
(49,320,o),
(49,227,cs),
(49,101,o),
(108,-8,o),
(231,-8,cs)
);
},
{
closed = 1;
nodes = (
(166,31,o),
(129,105,o),
(129,225,cs),
(129,238,o),
(130,251,o),
(132,265,c),
(160,301,o),
(192,319,o),
(229,319,cs),
(303,319,o),
(346,246,o),
(346,161,cs),
(346,97,o),
(311,31,o),
(243,31,cs)
);
}
);
width = 467;
}
);
metricWidth = zero;
unicode = 54;
userData = {
KernOnSpecialSpacing = {
L = NoKerning;
R = NoKerning;
};
};
}
{
glyphname = seven;
layers = (
{
layerId = master01;
shapes = (
{
closed = 1;
nodes = (
(170,-7,o),
(183,-4,o),
(185,0,cs),
(434,617,ls),
(437,624,o),
(438,628,o),
(438,632,cs),
(438,639,o),
(432,643,o),
(419,643,cs),
(86,643,ls),
(75,643,o),
(68,638,o),
(66,628,cs),
(41,507,ls),
(40,502,o),
(46,500,o),
(54,500,cs),
(63,500,o),
(68,502,o),
(70,507,cs),
(83,540,o),
(106,561,o),
(132,568,cs),
(157,576,o),
(191,577,o),
(244,577,cs),
(349,577,ls),
(360,577,o),
(365,575,o),
(365,571,cs),
(365,568,o),
(364,563,o),
(361,556,cs),
(112,0,l),
(112,-4,o),
(124,-7,o),
(147,-7,cs)
);
}
);
width = 467;
},
{
layerId = "75918100-ED89-42A8-B0FE-888EB9C86810";
shapes = (
{
closed = 1;
nodes = (
(181,-11,o),
(195,-7,o),
(198,0,cs),
(444,617,ls),
(445,621,o),
(446,625,o),
(446,627,cs),
(446,638,o),
(437,643,o),
(419,643,cs),
(86,643,ls),
(67,643,o),
(64,640,o),
(59,615,cs),
(34,497,ls),
(33,490,o),
(41,486,o),
(58,486,cs),
(69,486,o),
(76,489,o),
(78,494,cs),
(88,516,o),
(104,533,o),
(124,543,cs),
(143,552,o),
(170,557,o),
(208,557,cs),
(334,557,ls),
(341,557,o),
(348,556,o),
(348,552,cs),
(348,548,o),
(346,543,o),
(343,536,cs),
(85,10,l),
(85,-8,o),
(116,-11,o),
(153,-11,cs)
);
}
);
width = 466;
},
{
layerId = "6ABD9449-5E80-4451-809E-12ADEB9E9AB4";
shapes = (
{
closed = 1;
nodes = (
(167,-5,o),
(178,-3,o),
(181,0,cs),
(431,617,ls),
(434,625,o),
(436,630,o),
(436,633,cs),
(436,640,o),
(430,643,o),
(419,643,cs),
(86,643,ls),
(77,643,o),
(69,638,o),
(68,632,cs),
(43,510,ls),
(42,507,o),
(47,505,o),
(53,505,cs),
(60,505,o),
(65,507,o),
(67,511,cs),
(81,548,o),
(107,570,o),
(135,577,cs),
(162,583,o),
(198,584,o),
(256,584,cs),
(354,584,ls),
(366,584,o),
(371,581,o),
(371,577,cs),
(371,574,o),
(370,570,o),
(367,563,cs),
(121,-3,l),
(121,-3,o),
(126,-5,o),
(145,-5,cs)
);
}
);
width = 467;
},
{
layerId = "70B83247-6FA0-4662-9656-C86DD2A17D3B";
shapes = (
{
closed = 1;
nodes = (
(143,-8,o),
(152,-5,o),
(154,0,cs),
(352,617,ls),
(354,622,o),
(355,626,o),
(355,630,cs),
(355,639,o),
(349,643,o),
(337,643,cs),
(71,643,ls),
(60,643,o),
(55,639,o),
(53,624,cs),
(33,504,ls),
(32,499,o),
(37,496,o),
(47,496,cs),
(55,496,o),
(59,499,o),
(60,503,cs),
(70,532,o),
(86,552,o),
(105,561,cs),
(125,569,o),
(152,571,o),
(187,571,cs),
(277,571,ls),
(285,571,o),
(289,569,o),
(289,565,cs),
(289,562,o),
(288,557,o),
(285,550,cs),
(83,3,l),
(83,-5,o),
(99,-8,o),
(122,-8,cs)
);
}
);
width = 384;
},
{
layerId = "9E6FDE2E-55A6-44A9-9556-F1822294BF26";
shapes = (
{
closed = 1;
nodes = (
(197,-5,o),
(213,-4,o),
(216,0,cs),
(516,617,ls),
(520,625,o),
(521,630,o),
(521,633,cs),
(521,640,o),
(515,643,o),
(501,643,cs),
(101,643,ls),
(90,643,o),
(81,638,o),
(79,632,cs),
(49,510,ls),
(48,506,o),
(55,504,o),
(62,504,cs),
(70,504,o),
(77,506,o),
(80,511,cs),
(96,548,o),
(127,569,o),
(160,576,cs),
(188,582,o),
(230,583,o),
(302,583,cs),
(421,583,ls),
(435,583,o),
(441,581,o),
(441,577,cs),
(441,574,o),
(441,570,o),
(437,562,cs),
(140,-3,l),
(140,-3,o),
(148,-5,o),
(172,-5,cs)
);
}
);
width = 549;
},
{
layerId = "00F4936D-6309-4DEC-83B3-42806ED1A477";
shapes = (
{
closed = 1;
nodes = (
(170,-7,o),
(183,-4,o),
(185,0,cs),
(434,617,ls),
(437,624,o),
(438,628,o),
(438,632,cs),
(438,639,o),
(432,643,o),
(419,643,cs),
(86,643,ls),
(75,643,o),
(68,638,o),
(66,628,cs),
(41,507,ls),
(40,502,o),
(46,500,o),
(54,500,cs),
(63,500,o),
(68,502,o),
(70,507,cs),
(83,540,o),
(106,561,o),
(132,568,cs),
(157,576,o),
(191,577,o),
(244,577,cs),
(349,577,ls),
(360,577,o),
(365,575,o),
(365,571,cs),
(365,568,o),
(364,563,o),
(361,556,cs),
(112,0,l),
(112,-4,o),
(124,-7,o),
(147,-7,cs)
);
}
);
width = 467;
}
);
metricWidth = zero;
unicode = 55;
}
{
glyphname = eight;
layers = (
{
layerId = master01;
shapes = (
{
closed = 1;
nodes = (
(332,-8,o),
(416,59,o),
(416,162,cs),
(416,229,o),
(372,291,o),
(284,347,c),
(358,386,o),
(395,439,o),
(395,507,cs),
(395,595,o),
(335,651,o),
(233,651,cs),
(140,651,o),
(69,582,o),
(69,492,cs),
(69,418,o),
(115,371,o),
(184,326,c),
(95,279,o),
(51,222,o),
(51,154,cs),
(51,56,o),
(125,-8,o),
(233,-8,cs)
);
},
{
closed = 1;
nodes = (
(175,25,o),
(127,93,o),
(127,164,cs),
(127,225,o),
(155,272,o),
(212,305,c),
(284,255,o),
(346,210,o),
(346,127,cs),
(346,73,o),
(311,25,o),
(248,25,cs)
);
},
{
closed = 1;
nodes = (
(205,402,o),
(126,452,o),
(126,525,cs),
(126,573,o),
(161,614,o),
(221,614,cs),
(287,614,o),
(327,562,o),
(327,487,cs),
(327,440,o),
(304,401,o),
(258,368,c)
);
}
);
width = 467;
},
{
layerId = "75918100-ED89-42A8-B0FE-888EB9C86810";
shapes = (
{
closed = 1;
nodes = (
(339,-8,o),
(434,62,o),
(434,170,cs),
(434,241,o),
(393,301,o),
(310,350,c),
(379,390,o),
(413,438,o),
(413,497,cs),
(413,596,o),
(340,651,o),
(233,651,cs),
(130,651,o),
(51,581,o),
(51,483,cs),
(51,420,o),
(86,367,o),
(157,323,c),
(75,274,o),
(33,221,o),
(33,163,cs),
(33,55,o),
(125,-8,o),
(233,-8,cs)
);
},
{
closed = 1;
nodes = (
(185,37,o),
(145,100,o),
(145,172,cs),
(145,227,o),
(166,266,o),
(208,291,c),
(288,243,o),
(328,191,o),
(328,137,cs),
(328,91,o),
(303,37,o),
(248,37,cs)
);
},
{
closed = 1;
nodes = (
(181,426,o),
(144,470,o),
(144,514,cs),
(144,560,o),
(171,602,o),
(221,602,cs),
(279,602,o),
(309,550,o),
(309,478,cs),
(309,434,o),
(292,402,o),
(256,381,c)
);
}
);
width = 466;
},
{
layerId = "6ABD9449-5E80-4451-809E-12ADEB9E9AB4";
shapes = (
{
closed = 1;
nodes = (
(330,-8,o),
(410,58,o),
(410,160,cs),
(410,225,o),
(365,288,o),
(275,346,c),
(351,384,o),
(389,439,o),
(389,510,cs),
(389,595,o),
(333,651,o),
(233,651,cs),
(143,651,o),
(75,582,o),
(75,495,cs),
(75,417,o),
(124,373,o),
(193,327,c),
(102,281,o),
(57,222,o),
(57,151,cs),
(57,57,o),
(125,-8,o),
(233,-8,cs)
);
},
{
closed = 1;
nodes = (
(172,21,o),
(121,90,o),
(121,162,cs),
(121,225,o),
(152,274,o),
(213,310,c),
(282,259,o),
(352,216,o),
(352,124,cs),
(352,67,o),
(313,21,o),
(248,21,cs)
);
},
{
closed = 1;
nodes = (
(212,394,o),
(120,445,o),
(120,528,cs),
(120,578,o),
(158,618,o),
(221,618,cs),
(289,618,o),
(333,566,o),
(333,490,cs),
(333,442,o),
(309,400,o),
(258,364,c)
);
}
);
width = 467;
},
{
layerId = "70B83247-6FA0-4662-9656-C86DD2A17D3B";
shapes = (
{
closed = 1;
nodes = (
(273,-8,o),
(344,60,o),
(344,165,cs),
(344,233,o),
(309,294,o),
(241,348,c),
(297,387,o),
(327,438,o),
(327,504,cs),
(327,595,o),
(275,651,o),
(192,651,cs),
(114,651,o),
(55,582,o),
(55,489,cs),
(55,420,o),
(87,371,o),
(145,325,c),
(75,278,o),
(41,222,o),
(41,157,cs),
(41,56,o),
(106,-8,o),
(192,-8,cs)
);
},
{
closed = 1;
nodes = (
(148,28,o),
(112,95,o),
(112,167,cs),
(112,225,o),
(132,271,o),
(173,301,c),
(235,250,o),
(277,203,o),
(277,130,cs),
(277,79,o),
(251,28,o),
(204,28,cs)
);
},
{
closed = 1;
nodes = (
(161,410,o),
(111,458,o),
(111,521,cs),
(111,569,o),
(137,610,o),
(182,610,cs),
(232,610,o),
(262,558,o),
(262,484,cs),
(262,438,o),
(245,401,o),
(211,372,c)
);
}
);
width = 384;
},
{
layerId = "9E6FDE2E-55A6-44A9-9556-F1822294BF26";
shapes = (
{
closed = 1;
nodes = (
(391,-8,o),
(488,58,o),
(488,160,cs),
(488,225,o),
(435,288,o),
(328,346,c),
(418,385,o),
(463,439,o),
(463,510,cs),
(463,595,o),
(395,651,o),
(274,651,cs),
(165,651,o),
(83,582,o),
(83,495,cs),
(83,416,o),
(142,372,o),
(224,327,c),
(115,281,o),
(61,222,o),
(61,151,cs),
(61,57,o),
(145,-8,o),
(274,-8,cs)
);
},
{
closed = 1;
nodes = (
(202,21,o),
(142,91,o),
(142,162,cs),
(142,225,o),
(178,274,o),
(250,310,c),
(333,259,o),
(416,217,o),
(416,124,cs),
(416,67,o),
(370,21,o),
(292,21,cs)
);
},
{
closed = 1;
nodes = (
(248,394,o),
(141,446,o),
(141,528,cs),
(141,578,o),
(185,617,o),
(260,617,cs),
(341,617,o),
(393,566,o),
(393,489,cs),
(393,443,o),
(364,400,o),
(305,364,c)
);
}
);
width = 549;
},
{
layerId = "00F4936D-6309-4DEC-83B3-42806ED1A477";
shapes = (
{
closed = 1;
nodes = (
(332,-8,o),
(416,59,o),
(416,162,cs),
(416,229,o),
(372,291,o),
(284,347,c),
(358,386,o),
(395,439,o),
(395,507,cs),
(395,595,o),
(335,651,o),
(233,651,cs),
(140,651,o),
(69,582,o),
(69,492,cs),
(69,418,o),
(115,371,o),
(184,326,c),
(95,279,o),
(51,222,o),
(51,154,cs),
(51,56,o),
(125,-8,o),
(233,-8,cs)
);
},
{
closed = 1;
nodes = (
(175,25,o),
(127,93,o),
(127,164,cs),
(127,225,o),
(155,272,o),
(212,305,c),
(284,255,o),
(346,210,o),
(346,127,cs),
(346,73,o),
(311,25,o),
(248,25,cs)
);
},
{
closed = 1;
nodes = (
(205,402,o),
(126,452,o),
(126,525,cs),
(126,573,o),
(161,614,o),
(221,614,cs),
(287,614,o),
(327,562,o),
(327,487,cs),
(327,440,o),
(304,401,o),
(258,368,c)
);
}
);
width = 467;
}
);
metricWidth = zero;
unicode = 56;
}
{
glyphname = nine;
kernLeft = nine.osf;
kernRight = nine.osf;
layers = (
{
layerId = master01;
shapes = (
{
closed = 1;
nodes = (
(172,-182,o),
(242,-145,o),
(324,-57,cs),
(389,14,o),
(432,118,o),
(432,199,cs),
(432,308,o),
(390,424,o),
(251,424,cs),
(139,424,o),
(44,342,o),
(44,223,cs),
(44,117,o),
(113,41,o),
(208,41,cs),
(249,41,o),
(286,58,o),
(319,92,c),
(327,88,l),
(290,-39,o),
(152,-155,o),
(40,-204,cs),
(32,-208,o),
(39,-228,o),
(48,-225,cs)
);
},
{
closed = 1;
nodes = (
(158,96,o),
(121,179,o),
(121,251,cs),
(121,315,o),
(158,391,o),
(224,391,cs),
(310,391,o),
(354,317,o),
(354,235,cs),
(354,161,o),
(307,96,o),
(227,96,cs)
);
}
);
width = 473;
},
{
layerId = "75918100-ED89-42A8-B0FE-888EB9C86810";
shapes = (
{
closed = 1;
nodes = (
(174,-188,o),
(260,-149,o),
(346,-63,cs),
(416,7,o),
(461,115,o),
(461,194,cs),
(461,315,o),
(408,425,o),
(263,425,cs),
(146,425,o),
(38,344,o),
(38,216,cs),
(38,107,o),
(120,41,o),
(220,41,cs),
(256,41,o),
(287,52,o),
(302,69,c),
(310,64,l),
(266,-25,o),
(181,-143,o),
(48,-195,cs),
(36,-200,o),
(46,-230,o),
(59,-226,cs)
);
},
{
closed = 1;
nodes = (
(182,105,o),
(150,170,o),
(150,243,cs),
(150,317,o),
(190,383,o),
(241,383,cs),
(313,383,o),
(348,304,o),
(348,227,cs),
(348,167,o),
(309,105,o),
(238,105,cs)
);
}
);
width = 493;
},
{
layerId = "6ABD9449-5E80-4451-809E-12ADEB9E9AB4";
shapes = (
{
closed = 1;
nodes = (
(175,-180,o),
(240,-144,o),
(320,-55,cs),
(384,16,o),
(426,119,o),
(426,201,cs),
(426,306,o),
(388,423,o),
(251,423,cs),
(140,423,o),
(50,341,o),
(50,226,cs),
(50,120,o),
(115,41,o),
(208,41,cs),
(250,41,o),
(289,59,o),
(326,96,c),
(335,91,l),
(298,-45,o),
(146,-159,o),
(42,-208,cs),
(34,-212,o),
(39,-228,o),
(48,-225,cs)
);
},
{
closed = 1;
nodes = (
(154,93,o),
(115,182,o),
(115,253,cs),
(115,314,o),
(151,394,o),
(222,394,cs),
(313,394,o),
(360,322,o),
(360,237,cs),
(360,158,o),
(310,93,o),
(228,93,cs)
);
}
);
width = 469;
},
{
layerId = "70B83247-6FA0-4662-9656-C86DD2A17D3B";
shapes = (
{
closed = 1;
nodes = (
(138,-184,o),
(199,-146,o),
(266,-59,cs),
(319,12,o),
(354,118,o),
(354,198,cs),
(354,310,o),
(317,424,o),
(205,424,cs),
(113,424,o),
(34,342,o),
(34,221,cs),
(34,114,o),
(93,41,o),
(170,41,cs),
(203,41,o),
(228,57,o),
(250,85,c),
(257,81,l),
(226,-30,o),
(136,-149,o),
(36,-201,cs),
(24,-207,o),
(33,-229,o),
(45,-224,cs)
);
},
{
closed = 1;
nodes = (
(133,99,o),
(105,176,o),
(105,249,cs),
(105,315,o),
(136,389,o),
(184,389,cs),
(249,389,o),
(282,313,o),
(282,232,cs),
(282,163,o),
(246,99,o),
(185,99,cs)
);
}
);
width = 387;
},
{
layerId = "9E6FDE2E-55A6-44A9-9556-F1822294BF26";
shapes = (
{
closed = 1;
nodes = (
(206,-180,o),
(286,-144,o),
(382,-56,cs),
(459,16,o),
(510,119,o),
(510,201,cs),
(510,307,o),
(463,423,o),
(298,423,cs),
(164,423,o),
(55,341,o),
(55,225,cs),
(55,120,o),
(134,41,o),
(246,41,cs),
(296,41,o),
(346,59,o),
(389,97,c),
(397,94,l),
(353,-48,o),
(169,-162,o),
(49,-207,cs),
(37,-212,o),
(43,-229,o),
(56,-225,cs)
);
},
{
closed = 1;
nodes = (
(183,94,o),
(136,181,o),
(136,253,cs),
(136,314,o),
(181,394,o),
(264,394,cs),
(372,394,o),
(427,322,o),
(427,237,cs),
(427,158,o),
(368,94,o),
(270,94,cs)
);
}
);
width = 559;
},
{
layerId = "00F4936D-6309-4DEC-83B3-42806ED1A477";
shapes = (
{
closed = 1;
nodes = (
(172,-182,o),
(242,-145,o),
(324,-57,cs),
(389,14,o),
(432,118,o),
(432,199,cs),
(432,308,o),
(390,424,o),
(251,424,cs),
(139,424,o),
(44,342,o),
(44,223,cs),
(44,117,o),
(113,41,o),
(208,41,cs),
(249,41,o),
(286,58,o),
(319,92,c),
(327,88,l),
(290,-39,o),
(152,-155,o),
(40,-204,cs),
(32,-208,o),
(39,-228,o),
(48,-225,cs)
);
},
{
closed = 1;
nodes = (
(158,96,o),
(121,179,o),
(121,251,cs),
(121,315,o),
(158,391,o),
(224,391,cs),
(310,391,o),
(354,317,o),
(354,235,cs),
(354,161,o),
(307,96,o),
(227,96,cs)
);
}
);
width = 473;
}
);
unicode = 57;
userData = {
KernOnSpecialSpacing = {
L = NoKerning;
R = NoKerning;
};
};
}
{
glyphname = colon;
kernLeft = colon;
layers = (
{
hints = (
{
horizontal = 1;
options = 4;
origin = (0,11);
target = (0,5);
type = TTStem;
},
{
horizontal = 1;
options = 4;
origin = (1,5);
target = (1,11);
type = TTStem;
}
);
layerId = master01;
shapes = (
{
closed = 1;
nodes = (
(207,-12,o),
(231,12,o),
(231,45,cs),
(231,79,o),
(207,103,o),
(172,103,cs),
(138,103,o),
(113,79,o),
(113,45,cs),
(113,12,o),
(138,-12,o),
(172,-12,cs)
);
},
{
closed = 1;
nodes = (
(207,302,o),
(231,326,o),
(231,360,cs),
(231,394,o),
(207,417,o),
(172,417,cs),
(138,417,o),
(113,394,o),
(113,360,cs),
(113,326,o),
(138,302,o),
(172,302,cs)
);
}
);
width = 290;
},
{
layerId = "75918100-ED89-42A8-B0FE-888EB9C86810";
shapes = (
{
closed = 1;
nodes = (
(208,-13,o),
(240,18,o),
(240,62,cs),
(240,105,o),
(208,136,o),
(163,136,cs),
(118,136,o),
(86,105,o),
(86,62,cs),
(86,18,o),
(118,-13,o),
(163,-13,cs)
);
},
{
closed = 1;
nodes = (
(208,268,o),
(240,298,o),
(240,342,cs),
(240,386,o),
(208,417,o),
(163,417,cs),
(118,417,o),
(86,386,o),
(86,342,cs),
(86,298,o),
(118,268,o),
(163,268,cs)
);
}
);
width = 289;
},
{
layerId = "6ABD9449-5E80-4451-809E-12ADEB9E9AB4";
shapes = (
{
closed = 1;
nodes = (
(196,-12,o),
(218,10,o),
(218,40,cs),
(218,70,o),
(196,92,o),
(165,92,cs),
(133,92,o),
(111,70,o),
(111,40,cs),
(111,10,o),
(133,-12,o),
(165,-12,cs)
);
},
{
closed = 1;
nodes = (
(196,312,o),
(218,334,o),
(218,364,cs),
(218,395,o),
(196,416,o),
(165,416,cs),
(133,416,o),
(111,395,o),
(111,364,cs),
(111,334,o),
(133,312,o),
(165,312,cs)
);
}
);
width = 291;
},
{
layerId = "70B83247-6FA0-4662-9656-C86DD2A17D3B";
shapes = (
{
closed = 1;
nodes = (
(170,-12,o),
(194,12,o),
(194,45,cs),
(194,79,o),
(170,103,o),
(135,103,cs),
(101,103,o),
(76,79,o),
(76,45,cs),
(76,12,o),
(101,-12,o),
(135,-12,cs)
);
},
{
closed = 1;
nodes = (
(170,300,o),
(194,324,o),
(194,358,cs),
(194,392,o),
(170,416,o),
(135,416,cs),
(101,416,o),
(76,392,o),
(76,358,cs),
(76,324,o),
(101,300,o),
(135,300,cs)
);
}
);
width = 240;
},
{
layerId = "9E6FDE2E-55A6-44A9-9556-F1822294BF26";
shapes = (
{
closed = 1;
nodes = (
(228,-12,o),
(252,12,o),
(252,45,cs),
(252,79,o),
(228,103,o),
(193,103,cs),
(158,103,o),
(134,79,o),
(134,45,cs),
(134,12,o),
(158,-12,o),
(193,-12,cs)
);
},
{
closed = 1;
nodes = (
(226,302,o),
(250,326,o),
(250,360,cs),
(250,394,o),
(226,417,o),
(191,417,cs),
(156,417,o),
(132,394,o),
(132,360,cs),
(132,326,o),
(156,302,o),
(191,302,cs)
);
}
);
width = 340;
},
{
layerId = "00F4936D-6309-4DEC-83B3-42806ED1A477";
shapes = (
{
closed = 1;
nodes = (
(207,-12,o),
(231,12,o),
(231,45,cs),
(231,79,o),
(207,103,o),
(172,103,cs),
(138,103,o),
(113,79,o),
(113,45,cs),
(113,12,o),
(138,-12,o),
(172,-12,cs)
);
},
{
closed = 1;
nodes = (
(207,302,o),
(231,326,o),
(231,360,cs),
(231,394,o),
(207,417,o),
(172,417,cs),
(138,417,o),
(113,394,o),
(113,360,cs),
(113,326,o),
(138,302,o),
(172,302,cs)
);
}
);
width = 290;
}
);
unicode = 58;
}
{
glyphname = semicolon;
kernLeft = colon;
layers = (
{
layerId = master01;
shapes = (
{
closed = 1;
nodes = (
(183,301,o),
(208,325,o),
(208,359,cs),
(208,393,o),
(183,417,o),
(148,417,cs),
(114,417,o),
(89,393,o),
(89,359,cs),
(89,325,o),
(114,301,o),
(148,301,cs)
);
},
{
closed = 1;
nodes = (
(191,-118,o),
(234,-53,o),
(234,23,cs),
(234,76,o),
(198,115,o),
(150,115,cs),
(117,115,o),
(97,98,o),
(97,69,cs),
(97,44,o),
(108,26,o),
(130,16,cs),
(160,1,o),
(167,-7,o),
(167,-23,cs),
(167,-71,o),
(140,-115,o),
(88,-154,cs),
(83,-157,o),
(82,-160,o),
(88,-168,cs),
(93,-174,o),
(97,-176,o),
(102,-173,cs)
);
}
);
width = 290;
},
{
layerId = "75918100-ED89-42A8-B0FE-888EB9C86810";
shapes = (
{
closed = 1;
nodes = (
(194,268,o),
(226,299,o),
(226,343,cs),
(226,386,o),
(194,417,o),
(149,417,cs),
(104,417,o),
(72,386,o),
(72,343,cs),
(72,299,o),
(104,268,o),
(149,268,cs)
);
},
{
closed = 1;
nodes = (
(194,-140,o),
(256,-61,o),
(256,14,cs),
(256,77,o),
(215,127,o),
(162,127,cs),
(116,127,o),
(83,102,o),
(83,65,cs),
(83,33,o),
(102,3,o),
(130,-7,cs),
(148,-14,o),
(150,-19,o),
(150,-29,cs),
(150,-75,o),
(126,-125,o),
(85,-162,cs),
(80,-167,o),
(80,-169,o),
(85,-177,cs),
(89,-184,o),
(94,-186,o),
(100,-183,cs)
);
}
);
width = 289;
},
{
layerId = "6ABD9449-5E80-4451-809E-12ADEB9E9AB4";
shapes = (
{
closed = 1;
nodes = (
(180,312,o),
(202,333,o),
(202,364,cs),
(202,394,o),
(180,416,o),
(148,416,cs),
(117,416,o),
(95,394,o),
(95,364,cs),
(95,333,o),
(117,312,o),
(148,312,cs)
);
},
{
closed = 1;
nodes = (
(190,-111,o),
(229,-51,o),
(229,27,cs),
(229,77,o),
(194,115,o),
(146,115,cs),
(117,115,o),
(100,100,o),
(100,73,cs),
(100,49,o),
(108,35,o),
(130,24,cs),
(166,6,o),
(173,-2,o),
(173,-21,cs),
(173,-69,o),
(145,-112,o),
(87,-154,cs),
(82,-157,o),
(81,-159,o),
(88,-168,cs),
(93,-174,o),
(96,-176,o),
(101,-173,cs)
);
}
);
width = 291;
},
{
layerId = "70B83247-6FA0-4662-9656-C86DD2A17D3B";
shapes = (
{
closed = 1;
nodes = (
(156,301,o),
(180,325,o),
(180,359,cs),
(180,393,o),
(156,417,o),
(121,417,cs),
(86,417,o),
(62,393,o),
(62,359,cs),
(62,325,o),
(86,301,o),
(121,301,cs)
);
},
{
closed = 1;
nodes = (
(156,-123,o),
(194,-57,o),
(194,19,cs),
(194,72,o),
(164,115,o),
(126,115,cs),
(97,115,o),
(77,95,o),
(77,65,cs),
(77,39,o),
(87,19,o),
(107,7,cs),
(126,-4,o),
(131,-10,o),
(131,-25,cs),
(131,-72,o),
(110,-117,o),
(73,-154,cs),
(70,-157,o),
(70,-163,o),
(73,-169,cs),
(76,-174,o),
(80,-176,o),
(85,-173,cs)
);
}
);
width = 240;
},
{
layerId = "9E6FDE2E-55A6-44A9-9556-F1822294BF26";
shapes = (
{
closed = 1;
nodes = (
(211,301,o),
(236,325,o),
(236,359,cs),
(236,393,o),
(211,417,o),
(177,417,cs),
(142,417,o),
(118,393,o),
(118,359,cs),
(118,325,o),
(142,301,o),
(177,301,cs)
);
},
{
closed = 1;
nodes = (
(227,-115,o),
(273,-61,o),
(273,5,cs),
(273,69,o),
(231,111,o),
(169,111,cs),
(137,111,o),
(115,94,o),
(115,69,cs),
(115,45,o),
(126,31,o),
(152,20,cs),
(193,3,o),
(203,-8,o),
(203,-32,cs),
(203,-74,o),
(168,-117,o),
(101,-158,cs),
(96,-161,o),
(94,-163,o),
(102,-172,cs),
(109,-178,o),
(112,-180,o),
(118,-177,cs)
);
}
);
width = 340;
},
{
layerId = "00F4936D-6309-4DEC-83B3-42806ED1A477";
shapes = (
{
closed = 1;
nodes = (
(183,301,o),
(208,325,o),
(208,359,cs),
(208,393,o),
(183,417,o),
(148,417,cs),
(114,417,o),
(89,393,o),
(89,359,cs),
(89,325,o),
(114,301,o),
(148,301,cs)
);
},
{
closed = 1;
nodes = (
(191,-118,o),
(234,-53,o),
(234,23,cs),
(234,76,o),
(198,115,o),
(150,115,cs),
(117,115,o),
(97,98,o),
(97,69,cs),
(97,44,o),
(108,26,o),
(130,16,cs),
(160,1,o),
(167,-7,o),
(167,-23,cs),
(167,-71,o),
(140,-115,o),
(88,-154,cs),
(83,-157,o),
(82,-160,o),
(88,-168,cs),
(93,-174,o),
(97,-176,o),
(102,-173,cs)
);
}
);
width = 290;
}
);
unicode = 59;
}
{
glyphname = less;
layers = (
{
layerId = master01;
shapes = (
{
closed = 1;
nodes = (
(911,115,l),
(223,438,l),
(223,407,l),
(911,727,l),
(911,846,l),
(115,467,l),
(115,375,l),
(911,-2,l)
);
}
);
width = 1024;
},
{
layerId = "75918100-ED89-42A8-B0FE-888EB9C86810";
shapes = (
{
closed = 1;
nodes = (
(948,162,l),
(249,463,l),
(249,381,l),
(948,682,l),
(948,866,l),
(78,485,l),
(78,356,l),
(948,-23,l)
);
}
);
width = 1024;
},
{
layerId = "6ABD9449-5E80-4451-809E-12ADEB9E9AB4";
shapes = (
{
closed = 1;
nodes = (
(899,99,l),
(214,430,l),
(214,416,l),
(899,742,l),
(899,839,l),
(127,461,l),
(127,381,l),
(899,5,l)
);
}
);
width = 1024;
},
{
layerId = "70B83247-6FA0-4662-9656-C86DD2A17D3B";
shapes = (
{
closed = 1;
nodes = (
(751,129,l),
(197,445,l),
(197,399,l),
(751,714,l),
(751,852,l),
(92,472,l),
(92,369,l),
(751,-8,l)
);
}
);
width = 841;
},
{
layerId = "9E6FDE2E-55A6-44A9-9556-F1822294BF26";
shapes = (
{
closed = 1;
nodes = (
(1071,101,l),
(249,431,l),
(249,415,l),
(1071,740,l),
(1071,840,l),
(138,462,l),
(138,381,l),
(1071,4,l)
);
}
);
width = 1207;
},
{
layerId = "00F4936D-6309-4DEC-83B3-42806ED1A477";
shapes = (
{
closed = 1;
nodes = (
(911,115,l),
(223,438,l),
(223,407,l),
(911,727,l),
(911,846,l),
(115,467,l),
(115,375,l),
(911,-2,l)
);
}
);
width = 1024;
}
);
unicode = 60;
}
{
glyphname = equal;
kernLeft = KO_emdash;
kernRight = KO_equal;
layers = (
{
layerId = master01;
shapes = (
{
closed = 1;
nodes = (
(443,291,l),
(443,340,l),
(58,340,l),
(58,291,l)
);
},
{
closed = 1;
nodes = (
(443,161,l),
(443,210,l),
(58,210,l),
(58,161,l)
);
}
);
width = 500;
},
{
layerId = "75918100-ED89-42A8-B0FE-888EB9C86810";
shapes = (
{
closed = 1;
nodes = (
(438,281,l),
(438,350,l),
(33,350,l),
(33,281,l)
);
},
{
closed = 1;
nodes = (
(438,131,l),
(438,200,l),
(33,200,l),
(33,131,l)
);
}
);
width = 487;
},
{
layerId = "6ABD9449-5E80-4451-809E-12ADEB9E9AB4";
shapes = (
{
closed = 1;
nodes = (
(444,294,l),
(444,336,l),
(66,336,l),
(66,294,l)
);
},
{
closed = 1;
nodes = (
(444,171,l),
(444,213,l),
(66,213,l),
(66,171,l)
);
}
);
width = 504;
},
{
layerId = "70B83247-6FA0-4662-9656-C86DD2A17D3B";
shapes = (
{
closed = 1;
nodes = (
(360,288,l),
(360,343,l),
(46,343,l),
(46,288,l)
);
},
{
closed = 1;
nodes = (
(360,152,l),
(360,207,l),
(46,207,l),
(46,152,l)
);
}
);
width = 406;
},
{
layerId = "9E6FDE2E-55A6-44A9-9556-F1822294BF26";
shapes = (
{
closed = 1;
nodes = (
(525,294,l),
(525,337,l),
(70,337,l),
(70,294,l)
);
},
{
closed = 1;
nodes = (
(525,170,l),
(525,213,l),
(70,213,l),
(70,170,l)
);
}
);
width = 594;
},
{
layerId = "00F4936D-6309-4DEC-83B3-42806ED1A477";
shapes = (
{
closed = 1;
nodes = (
(443,291,l),
(443,340,l),
(58,340,l),
(58,291,l)
);
},
{
closed = 1;
nodes = (
(443,161,l),
(443,210,l),
(58,210,l),
(58,161,l)
);
}
);
width = 500;
}
);
unicode = 61;
userData = {
KernOnSpecialSpacing = {
L = math;
R = math;
};
};
}
{
glyphname = greater;
layers = (
{
layerId = master01;
shapes = (
{
closed = 1;
nodes = (
(444,183,l),
(444,228,l),
(55,413,l),
(55,355,l),
(391,198,l),
(391,213,l),
(55,56,l),
(55,-1,l)
);
}
);
width = 500;
},
{
layerId = "75918100-ED89-42A8-B0FE-888EB9C86810";
shapes = (
{
closed = 1;
nodes = (
(462,174,l),
(462,237,l),
(37,423,l),
(37,333,l),
(378,186,l),
(378,226,l),
(37,79,l),
(37,-11,l)
);
}
);
width = 500;
},
{
layerId = "6ABD9449-5E80-4451-809E-12ADEB9E9AB4";
shapes = (
{
closed = 1;
nodes = (
(438,186,l),
(438,225,l),
(61,410,l),
(61,362,l),
(396,202,l),
(396,209,l),
(61,48,l),
(61,2,l)
);
}
);
width = 500;
},
{
layerId = "70B83247-6FA0-4662-9656-C86DD2A17D3B";
shapes = (
{
closed = 1;
nodes = (
(366,180,l),
(366,230,l),
(44,416,l),
(44,349,l),
(314,195,l),
(314,217,l),
(44,63,l),
(44,-4,l)
);
}
);
width = 411;
},
{
layerId = "9E6FDE2E-55A6-44A9-9556-F1822294BF26";
shapes = (
{
closed = 1;
nodes = (
(522,186,l),
(522,226,l),
(66,410,l),
(66,361,l),
(468,202,l),
(468,209,l),
(66,49,l),
(66,2,l)
);
}
);
width = 589;
},
{
layerId = "00F4936D-6309-4DEC-83B3-42806ED1A477";
shapes = (
{
closed = 1;
nodes = (
(444,183,l),
(444,228,l),
(55,413,l),
(55,355,l),
(391,198,l),
(391,213,l),
(55,56,l),
(55,-1,l)
);
}
);
width = 500;
}
);
unicode = 62;
}
{
glyphname = at;
layers = (
{
layerId = master01;
shapes = (
{
closed = 1;
nodes = (
(460,-16,o),
(524,2,o),
(579,35,cs),
(582,37,o),
(582,40,o),
(579,46,cs),
(576,53,o),
(573,55,o),
(571,54,cs),
(514,32,o),
(463,19,o),
(416,19,cs),
(230,19,o),
(118,130,o),
(118,294,cs),
(118,490,o),
(240,642,o),
(445,642,cs),
(587,642,o),
(696,549,o),
(696,412,cs),
(696,292,o),
(610,208,o),
(493,208,cs),
(468,208,o),
(470,234,o),
(477,260,cs),
(546,500,ls),
(547,505,o),
(539,509,o),
(525,509,cs),
(512,509,o),
(504,506,o),
(502,500,cs),
(494,475,l),
(478,488,o),
(462,495,o),
(445,495,cs),
(344,495,o),
(247,337,o),
(247,238,cs),
(247,196,o),
(262,176,o),
(292,176,cs),
(332,176,o),
(381,215,o),
(440,293,c),
(444,291,l),
(432,267,o),
(420,217,o),
(420,206,cs),
(420,181,o),
(437,175,o),
(480,175,cs),
(629,175,o),
(739,276,o),
(739,416,cs),
(739,571,o),
(615,676,o),
(444,676,cs),
(227,676,o),
(49,518,o),
(49,293,cs),
(49,98,o),
(197,-16,o),
(386,-16,cs)
);
},
{
closed = 1;
nodes = (
(308,216,o),
(301,227,o),
(301,250,cs),
(301,320,o),
(363,471,o),
(435,471,cs),
(467,471,o),
(483,461,o),
(483,440,c),
(472,402,ls),
(456,345,o),
(437,317,o),
(405,280,cs),
(368,237,o),
(340,216,o),
(323,216,cs)
);
}
);
width = 788;
},
{
layerId = "75918100-ED89-42A8-B0FE-888EB9C86810";
shapes = (
{
closed = 1;
nodes = (
(458,-16,o),
(525,1,o),
(582,37,cs),
(587,41,o),
(587,46,o),
(584,53,cs),
(580,62,o),
(575,65,o),
(569,62,cs),
(516,38,o),
(462,27,o),
(411,27,cs),
(226,27,o),
(123,144,o),
(123,295,cs),
(123,484,o),
(251,634,o),
(430,634,cs),
(576,634,o),
(681,541,o),
(681,410,cs),
(681,297,o),
(599,210,o),
(488,210,cs),
(472,210,o),
(474,236,o),
(481,260,cs),
(550,493,ls),
(552,501,o),
(545,507,o),
(529,512,cs),
(509,518,o),
(498,516,o),
(493,505,cs),
(483,480,l),
(473,490,o),
(458,495,o),
(438,495,cs),
(328,495,o),
(232,338,o),
(232,241,cs),
(232,197,o),
(250,175,o),
(287,175,cs),
(319,175,o),
(360,202,o),
(409,256,c),
(414,253,l),
(408,235,o),
(405,222,o),
(405,213,cs),
(405,182,o),
(431,172,o),
(475,172,cs),
(633,172,o),
(744,280,o),
(744,414,cs),
(744,574,o),
(611,676,o),
(439,676,cs),
(201,676,o),
(34,509,o),
(34,294,cs),
(34,90,o),
(201,-16,o),
(381,-16,cs)
);
},
{
closed = 1;
nodes = (
(311,219,o),
(306,230,o),
(306,253,cs),
(306,322,o),
(370,472,o),
(430,472,cs),
(451,472,o),
(465,464,o),
(471,449,c),
(450,377,ls),
(439,338,o),
(422,307,o),
(402,283,cs),
(365,241,o),
(338,219,o),
(321,219,cs)
);
}
);
width = 778;
},
{
layerId = "6ABD9449-5E80-4451-809E-12ADEB9E9AB4";
shapes = (
{
closed = 1;
nodes = (
(461,-16,o),
(523,2,o),
(578,35,cs),
(580,35,o),
(580,38,o),
(577,44,cs),
(574,50,o),
(572,52,o),
(571,52,cs),
(514,30,o),
(463,17,o),
(417,17,cs),
(231,17,o),
(116,125,o),
(116,293,cs),
(116,492,o),
(236,645,o),
(450,645,cs),
(590,645,o),
(701,552,o),
(701,413,cs),
(701,290,o),
(614,208,o),
(494,208,cs),
(466,208,o),
(468,232,o),
(476,260,cs),
(543,498,ls),
(546,507,o),
(537,509,o),
(526,509,cs),
(513,509,o),
(506,504,o),
(505,499,cs),
(498,474,l),
(479,488,o),
(463,495,o),
(447,495,cs),
(349,495,o),
(252,337,o),
(252,237,cs),
(252,196,o),
(266,176,o),
(293,176,cs),
(335,176,o),
(388,219,o),
(450,305,c),
(454,304,l),
(439,278,o),
(425,216,o),
(425,204,cs),
(425,181,o),
(439,176,o),
(481,176,cs),
(628,176,o),
(737,275,o),
(737,417,cs),
(737,570,o),
(616,676,o),
(445,676,cs),
(235,676,o),
(54,521,o),
(54,292,cs),
(54,100,o),
(196,-16,o),
(387,-16,cs)
);
},
{
closed = 1;
nodes = (
(307,215,o),
(299,226,o),
(299,249,cs),
(299,320,o),
(360,471,o),
(437,471,cs),
(472,471,o),
(485,460,o),
(487,437,c),
(479,411,ls),
(461,348,o),
(442,320,o),
(406,279,cs),
(368,236,o),
(340,215,o),
(323,215,cs)
);
}
);
width = 791;
},
{
layerId = "70B83247-6FA0-4662-9656-C86DD2A17D3B";
shapes = (
{
closed = 1;
nodes = (
(370,-16,o),
(424,1,o),
(467,35,cs),
(472,38,o),
(472,41,o),
(469,49,cs),
(466,55,o),
(463,58,o),
(460,57,cs),
(416,34,o),
(375,21,o),
(336,21,cs),
(187,21,o),
(100,135,o),
(100,294,cs),
(100,488,o),
(200,640,o),
(356,640,cs),
(471,640,o),
(557,547,o),
(557,412,cs),
(557,293,o),
(489,208,o),
(397,208,cs),
(380,208,o),
(381,235,o),
(387,260,cs),
(442,499,ls),
(444,504,o),
(437,508,o),
(425,510,cs),
(414,511,o),
(405,509,o),
(403,501,cs),
(396,477,l),
(385,489,o),
(373,495,o),
(358,495,cs),
(274,495,o),
(198,337,o),
(198,239,cs),
(198,196,o),
(211,175,o),
(236,175,cs),
(266,175,o),
(303,211,o),
(347,282,c),
(351,280,l),
(342,257,o),
(336,217,o),
(336,208,cs),
(336,181,o),
(353,174,o),
(387,174,cs),
(509,174,o),
(597,277,o),
(597,416,cs),
(597,572,o),
(495,676,o),
(358,676,cs),
(178,676,o),
(39,515,o),
(39,293,cs),
(39,95,o),
(164,-16,o),
(312,-16,cs)
);
},
{
closed = 1;
nodes = (
(252,217,o),
(247,228,o),
(247,251,cs),
(247,321,o),
(297,472,o),
(351,472,cs),
(373,472,o),
(386,462,o),
(387,443,c),
(376,395,ls),
(365,349,o),
(353,318,o),
(327,281,cs),
(298,238,o),
(276,217,o),
(262,217,cs)
);
}
);
width = 636;
},
{
layerId = "9E6FDE2E-55A6-44A9-9556-F1822294BF26";
shapes = (
{
closed = 1;
nodes = (
(551,-16,o),
(624,2,o),
(691,36,cs),
(691,36,o),
(691,39,o),
(688,44,cs),
(685,50,o),
(683,52,o),
(681,52,cs),
(612,30,o),
(550,17,o),
(496,17,cs),
(273,17,o),
(135,125,o),
(135,293,cs),
(135,492,o),
(280,645,o),
(534,645,cs),
(703,645,o),
(835,552,o),
(835,413,cs),
(835,290,o),
(731,208,o),
(588,208,cs),
(556,208,o),
(558,233,o),
(567,260,cs),
(649,501,ls),
(651,506,o),
(641,509,o),
(625,508,cs),
(610,506,o),
(603,503,o),
(601,499,cs),
(592,474,l),
(571,488,o),
(551,495,o),
(531,495,cs),
(413,495,o),
(296,337,o),
(296,237,cs),
(296,196,o),
(313,176,o),
(348,176,cs),
(397,176,o),
(459,219,o),
(533,304,c),
(537,302,l),
(521,277,o),
(504,217,o),
(504,204,cs),
(504,181,o),
(521,176,o),
(573,176,cs),
(750,176,o),
(881,275,o),
(881,417,cs),
(881,570,o),
(735,676,o),
(530,676,cs),
(276,676,o),
(59,521,o),
(59,292,cs),
(59,100,o),
(231,-16,o),
(460,-16,cs)
);
},
{
closed = 1;
nodes = (
(364,215,o),
(355,226,o),
(355,249,cs),
(355,319,o),
(429,471,o),
(519,471,cs),
(561,471,o),
(580,460,o),
(579,437,c),
(568,410,ls),
(547,342,o),
(521,316,o),
(483,280,cs),
(438,236,o),
(404,215,o),
(383,215,cs)
);
}
);
width = 939;
},
{
layerId = "00F4936D-6309-4DEC-83B3-42806ED1A477";
shapes = (
{
closed = 1;
nodes = (
(460,-16,o),
(524,2,o),
(579,35,cs),
(582,37,o),
(582,40,o),
(579,46,cs),
(576,53,o),
(573,55,o),
(571,54,cs),
(514,32,o),
(463,19,o),
(416,19,cs),
(230,19,o),
(118,130,o),
(118,294,cs),
(118,490,o),
(240,642,o),
(445,642,cs),
(587,642,o),
(696,549,o),
(696,412,cs),
(696,292,o),
(610,208,o),
(493,208,cs),
(468,208,o),
(470,234,o),
(477,260,cs),
(546,500,ls),
(547,505,o),
(539,509,o),
(525,509,cs),
(512,509,o),
(504,506,o),
(502,500,cs),
(494,475,l),
(478,488,o),
(462,495,o),
(445,495,cs),
(344,495,o),
(247,337,o),
(247,238,cs),
(247,196,o),
(262,176,o),
(292,176,cs),
(332,176,o),
(381,215,o),
(440,293,c),
(444,291,l),
(432,267,o),
(420,217,o),
(420,206,cs),
(420,181,o),
(437,175,o),
(480,175,cs),
(629,175,o),
(739,276,o),
(739,416,cs),
(739,571,o),
(615,676,o),
(444,676,cs),
(227,676,o),
(49,518,o),
(49,293,cs),
(49,98,o),
(197,-16,o),
(386,-16,cs)
);
},
{
closed = 1;
nodes = (
(308,216,o),
(301,227,o),
(301,250,cs),
(301,320,o),
(363,471,o),
(435,471,cs),
(467,471,o),
(483,461,o),
(483,440,c),
(472,402,ls),
(456,345,o),
(437,317,o),
(405,280,cs),
(368,237,o),
(340,216,o),
(323,216,cs)
);
}
);
width = 788;
}
);
unicode = 64;
}
{
glyphname = A;
kernLeft = KO_A;
kernRight = KO_A;
layers = (
{
anchors = (
{
name = bottom;
pos = (325,0);
},
{
name = ogonek;
pos = (604,0);
},
{
name = ogonek_above;
pos = (356,653);
},
{
name = top;
pos = (339,663);
},
{
name = zzcurly;
pos = (358,655);
}
);
layerId = master01;
shapes = (
{
closed = 1;
nodes = (
(40,-1,o),
(74,0,o),
(109,0,cs),
(143,0,o),
(178,-1,o),
(212,-3,c),
(221,-3,o),
(221,34,o),
(212,34,cs),
(148,34,o),
(127,45,o),
(143,89,cs),
(204,257,l),
(434,257,l),
(487,91,ls),
(501,46,o),
(490,34,o),
(443,34,cs),
(434,34,o),
(433,-3,o),
(443,-3,c),
(480,-1,o),
(518,0,o),
(556,0,cs),
(593,0,o),
(630,-1,o),
(668,-3,c),
(677,-3,o),
(677,34,o),
(668,34,cs),
(618,34,o),
(589,46,o),
(574,91,cs),
(412,575,ls),
(404,597,o),
(396,624,o),
(388,656,cs),
(384,670,o),
(378,677,o),
(371,677,cs),
(367,677,o),
(356,671,o),
(339,659,cs),
(322,647,o),
(307,638,o),
(294,631,cs),
(281,624,o),
(274,619,o),
(274,617,cs),
(274,612,o),
(287,604,o),
(287,595,cs),
(287,590,o),
(286,585,o),
(284,580,cs),
(100,98,ls),
(79,42,o),
(63,34,o),
(5,34,cs),
(-4,34,o),
(-4,-3,o),
(5,-3,c)
);
},
{
closed = 1;
nodes = (
(322,581,l),
(330,581,l),
(421,296,l),
(218,296,l)
);
}
);
width = 683;
},
{
anchors = (
{
name = bottom;
pos = (333,0);
},
{
name = ogonek;
pos = (635,0);
},
{
name = ogonek_above;
pos = (373,653);
},
{
name = top;
pos = (356,663);
},
{
name = zzcurly;
pos = (383,655);
}
);
layerId = "75918100-ED89-42A8-B0FE-888EB9C86810";
shapes = (
{
closed = 1;
nodes = (
(42,-1,o),
(79,0,o),
(117,0,cs),
(154,0,o),
(191,-1,o),
(229,-3,c),
(238,-3,o),
(238,42,o),
(229,42,cs),
(165,42,o),
(146,55,o),
(163,98,cs),
(220,253,l),
(426,253,l),
(478,99,ls),
(492,57,o),
(483,42,o),
(436,42,cs),
(426,42,o),
(426,-3,o),
(436,-3,c),
(480,-1,o),
(524,0,o),
(568,0,cs),
(612,0,o),
(656,-1,o),
(700,-3,c),
(711,-3,o),
(711,42,o),
(700,42,cs),
(645,42,o),
(616,57,o),
(601,99,cs),
(433,575,ls),
(420,612,o),
(411,640,o),
(408,655,cs),
(404,670,o),
(397,678,o),
(386,678,cs),
(379,678,o),
(365,671,o),
(342,658,cs),
(320,645,o),
(303,635,o),
(292,632,cs),
(280,628,o),
(275,624,o),
(275,619,cs),
(275,613,o),
(289,604,o),
(289,598,cs),
(289,595,o),
(287,589,o),
(283,579,cs),
(102,106,ls),
(83,57,o),
(53,42,o),
(4,42,cs),
(-6,42,o),
(-6,-3,o),
(4,-3,c)
);
},
{
closed = 1;
nodes = (
(322,532,l),
(331,532,l),
(411,297,l),
(236,297,l)
);
}
);
width = 715;
},
{
anchors = (
{
name = bottom;
pos = (323,0);
},
{
name = ogonek;
pos = (593,0);
},
{
name = ogonek_above;
pos = (355,653);
},
{
name = top;
pos = (335,663);
},
{
name = zzcurly;
pos = (359,655);
}
);
layerId = "6ABD9449-5E80-4451-809E-12ADEB9E9AB4";
shapes = (
{
closed = 1;
nodes = (
(39,-1,o),
(73,0,o),
(106,0,cs),
(140,0,o),
(173,-1,o),
(207,-3,c),
(216,-3,o),
(217,31,o),
(207,31,cs),
(142,31,o),
(122,44,o),
(137,86,cs),
(199,258,l),
(437,258,l),
(491,88,ls),
(504,45,o),
(492,31,o),
(445,31,cs),
(437,31,o),
(436,-3,o),
(445,-3,c),
(481,-1,o),
(516,0,o),
(552,0,cs),
(587,0,o),
(623,-1,o),
(658,-3,c),
(666,-3,o),
(666,31,o),
(658,31,cs),
(609,31,o),
(579,47,o),
(565,88,cs),
(405,575,ls),
(399,592,o),
(391,619,o),
(381,656,cs),
(377,670,o),
(372,677,o),
(366,677,cs),
(363,677,o),
(354,671,o),
(338,660,cs),
(323,648,o),
(308,639,o),
(295,630,cs),
(281,622,o),
(274,618,o),
(274,617,cs),
(274,611,o),
(287,604,o),
(287,594,cs),
(287,589,o),
(286,584,o),
(285,581,cs),
(100,96,ls),
(80,44,o),
(66,31,o),
(5,31,cs),
(-3,31,o),
(-4,-3,o),
(5,-3,c)
);
},
{
closed = 1;
nodes = (
(322,595,l),
(331,595,l),
(425,295,l),
(213,295,l)
);
}
);
width = 673;
},
{
anchors = (
{
name = bottom;
pos = (263,0);
},
{
name = ogonek;
pos = (493,0);
},
{
name = ogonek_above;
pos = (290,653);
},
{
name = top;
pos = (276,663);
},
{
name = zzcurly;
pos = (295,655);
}
);
layerId = "70B83247-6FA0-4662-9656-C86DD2A17D3B";
shapes = (
{
closed = 1;
nodes = (
(33,-1,o),
(61,0,o),
(90,0,cs),
(118,0,o),
(147,-1,o),
(175,-3,c),
(183,-3,o),
(183,34,o),
(175,34,cs),
(122,34,o),
(108,47,o),
(121,92,cs),
(169,259,l),
(344,259,l),
(387,93,ls),
(399,48,o),
(395,34,o),
(353,34,cs),
(345,34,o),
(345,-3,o),
(353,-3,c),
(384,-1,o),
(417,0,o),
(448,0,cs),
(480,0,o),
(512,-1,o),
(544,-3,c),
(552,-3,o),
(552,34,o),
(544,34,cs),
(503,34,o),
(480,48,o),
(468,93,cs),
(336,575,ls),
(330,596,o),
(322,626,o),
(316,655,cs),
(313,670,o),
(309,678,o),
(301,678,cs),
(297,678,o),
(288,671,o),
(272,659,cs),
(261,649,o),
(243,636,o),
(234,631,cs),
(225,625,o),
(220,620,o),
(220,618,cs),
(220,612,o),
(230,604,o),
(230,596,cs),
(230,591,o),
(229,586,o),
(228,580,cs),
(81,101,ls),
(64,47,o),
(47,34,o),
(4,34,cs),
(-4,34,o),
(-4,-3,o),
(4,-3,c)
);
},
{
closed = 1;
nodes = (
(258,567,l),
(264,567,l),
(335,293,l),
(179,293,l)
);
}
);
width = 557;
},
{
anchors = (
{
name = bottom;
pos = (388,0);
},
{
name = ogonek;
pos = (714,0);
},
{
name = ogonek_above;
pos = (423,653);
},
{
name = top;
pos = (401,663);
},
{
name = zzcurly;
pos = (422,655);
}
);
layerId = "9E6FDE2E-55A6-44A9-9556-F1822294BF26";
shapes = (
{
closed = 1;
nodes = (
(47,-1,o),
(87,0,o),
(128,0,cs),
(169,0,o),
(209,-1,o),
(250,-3,c),
(260,-3,o),
(260,34,o),
(250,34,cs),
(174,34,o),
(147,43,o),
(166,86,cs),
(241,259,l),
(523,259,l),
(587,88,ls),
(604,43,o),
(586,34,o),
(533,34,cs),
(522,34,o),
(521,-3,o),
(533,-3,c),
(576,-1,o),
(619,0,o),
(663,0,cs),
(706,0,o),
(749,-1,o),
(792,-3,c),
(801,-3,o),
(802,34,o),
(792,34,cs),
(733,34,o),
(699,43,o),
(681,89,cs),
(487,575,ls),
(478,598,o),
(470,622,o),
(459,656,cs),
(455,670,o),
(447,677,o),
(440,677,cs),
(437,677,o),
(424,672,o),
(405,660,cs),
(383,645,o),
(370,639,o),
(354,631,cs),
(336,623,o),
(329,618,o),
(329,617,cs),
(329,611,o),
(344,604,o),
(344,594,cs),
(344,589,o),
(343,585,o),
(341,581,cs),
(119,96,ls),
(93,38,o),
(78,34,o),
(6,34,cs),
(-4,34,o),
(-4,-3,o),
(6,-3,c)
);
},
{
closed = 1;
nodes = (
(386,594,l),
(396,594,l),
(510,293,l),
(255,293,l)
);
}
);
width = 809;
},
{
anchors = (
{
name = bottom;
pos = (325,0);
},
{
name = ogonek;
pos = (604,0);
},
{
name = ogonek_above;
pos = (356,653);
},
{
name = top;
pos = (339,663);
},
{
name = zzcurly;
pos = (358,655);
}
);
guides = (
{
angle = 17.7023;
pos = (770,895);
showMeasurement = 1;
}
);
layerId = "00F4936D-6309-4DEC-83B3-42806ED1A477";
shapes = (
{
closed = 1;
nodes = (
(40,-1,o),
(74,0,o),
(109,0,cs),
(143,0,o),
(178,-1,o),
(212,-3,c),
(221,-3,o),
(221,34,o),
(212,34,cs),
(148,34,o),
(127,45,o),
(143,89,cs),
(204,259,l),
(433,259,l),
(487,91,ls),
(502,46,o),
(490,34,o),
(443,34,cs),
(434,34,o),
(433,-3,o),
(443,-3,c),
(480,-1,o),
(518,0,o),
(556,0,cs),
(593,0,o),
(630,-1,o),
(668,-3,c),
(677,-3,o),
(677,34,o),
(668,34,cs),
(618,34,o),
(589,46,o),
(574,91,cs),
(412,575,ls),
(404,597,o),
(396,624,o),
(388,656,cs),
(384,670,o),
(378,677,o),
(371,677,cs),
(367,677,o),
(356,671,o),
(339,659,cs),
(322,647,o),
(307,638,o),
(294,631,cs),
(281,624,o),
(274,619,o),
(274,617,cs),
(274,612,o),
(287,604,o),
(287,595,cs),
(287,590,o),
(286,585,o),
(284,580,cs),
(100,98,ls),
(79,42,o),
(63,34,o),
(5,34,cs),
(-4,34,o),
(-4,-3,o),
(5,-3,c)
);
},
{
closed = 1;
nodes = (
(322,581,l),
(330,581,l),
(422,293,l),
(215,293,l)
);
}
);
width = 683;
}
);
unicode = 65;
userData = {
KernOnName = A;
KernOnSpecialSpacing = {
};
};
}
{
glyphname = B;
kernLeft = B;
kernRight = B;
layers = (
{
anchors = (
{
name = bottom;
pos = (623,0);
},
{
name = top;
pos = (550,1358);
},
{
name = zzcurly;
pos = (504,1341);
}
);
hints = (
{
horizontal = 1;
options = 4;
origin = (0,2);
target = (0,34);
type = TTStem;
},
{
horizontal = 1;
options = 4;
origin = (0,2);
target = (1,10);
type = TTStem;
},
{
horizontal = 1;
options = 4;
origin = (0,21);
target = (0,27);
type = TTStem;
},
{
horizontal = 1;
options = 4;
origin = (0,21);
target = (2,3);
type = TTStem;
},
{
horizontal = 1;
origin = (0,2);
other1 = (1,3);
target = (0,21);
type = TTInterpolate;
},
{
horizontal = 1;
options = 4;
origin = (1,3);
target = (2,10);
type = TTStem;
},
{
horizontal = 1;
options = 4;
origin = (1,3);
other1 = (0,11);
target = (2,10);
type = TTInterpolate;
}
);
layerId = master01;
shapes = (
{
closed = 1;
nodes = (
(178,-2,o),
(264,0,o),
(351,0,cs),
(441,0,o),
(559,-7,o),
(629,-7,cs),
(941,-7,o),
(1129,101,o),
(1129,350,cs),
(1129,549,o),
(991,687,o),
(816,729,c),
(816,736,l),
(961,802,o),
(1036,899,o),
(1036,1041,cs),
(1036,1263,o),
(852,1364,o),
(629,1364,cs),
(559,1364,o),
(441,1358,o),
(351,1358,cs),
(261,1358,o),
(172,1359,o),
(82,1364,c),
(62,1364,o),
(63,1288,o),
(82,1288,cs),
(208,1288,o),
(271,1251,o),
(271,1178,cs),
(271,186,ls),
(271,108,o),
(211,69,o),
(91,69,cs),
(72,69,o),
(73,-7,o),
(91,-7,c)
);
},
{
closed = 1;
nodes = (
(492,57,o),
(431,131,o),
(431,280,cs),
(431,694,l),
(466,694,ls),
(706,694,o),
(948,640,o),
(948,375,cs),
(948,163,o),
(837,57,o),
(615,57,cs)
);
},
{
closed = 1;
nodes = (
(431,1236,ls),
(431,1281,o),
(448,1303,o),
(483,1303,cs),
(737,1303,o),
(864,1215,o),
(864,1038,cs),
(864,850,o),
(746,756,o),
(510,756,cs),
(431,756,l)
);
}
);
width = 1250;
},
{
anchors = (
{
name = bottom;
pos = (559,0);
},
{
name = top;
pos = (549,1352);
},
{
name = zzcurly;
pos = (504,1341);
}
);
layerId = "75918100-ED89-42A8-B0FE-888EB9C86810";
shapes = (
{
closed = 1;
nodes = (
(171,-2,o),
(265,0,o),
(360,0,cs),
(450,0,o),
(573,-6,o),
(643,-6,cs),
(978,-6,o),
(1180,111,o),
(1180,374,cs),
(1180,552,o),
(1028,698,o),
(861,734,c),
(861,739,l),
(986,776,o),
(1083,891,o),
(1083,1024,cs),
(1083,1255,o),
(899,1364,o),
(639,1364,cs),
(573,1364,o),
(450,1358,o),
(360,1358,cs),
(262,1358,o),
(164,1359,o),
(66,1364,c),
(47,1364,o),
(46,1272,o),
(66,1272,cs),
(181,1272,o),
(238,1234,o),
(238,1161,cs),
(238,203,ls),
(238,133,o),
(172,86,o),
(76,86,cs),
(57,86,o),
(56,-6,o),
(76,-6,c)
);
},
{
closed = 1;
nodes = (
(531,76,o),
(481,134,o),
(481,250,cs),
(481,677,l),
(506,677,ls),
(754,677,o),
(909,589,o),
(909,374,cs),
(909,182,o),
(816,76,o),
(631,76,cs)
);
},
{
closed = 1;
nodes = (
(481,1219,ls),
(481,1264,o),
(498,1286,o),
(533,1286,cs),
(707,1286,o),
(840,1205,o),
(840,1020,cs),
(840,857,o),
(732,771,o),
(553,771,cs),
(481,771,l)
);
}
);
width = 1288;
},
{
anchors = (
{
name = bottom;
pos = (644,0);
},
{
name = top;
pos = (550,1360);
},
{
name = zzcurly;
pos = (484,1341);
}
);
layerId = "6ABD9449-5E80-4451-809E-12ADEB9E9AB4";
shapes = (
{
closed = 1;
nodes = (
(180,-2,o),
(264,0,o),
(348,0,cs),
(438,0,o),
(554,-7,o),
(624,-7,cs),
(929,-7,o),
(1112,98,o),
(1112,342,cs),
(1112,547,o),
(975,668,o),
(803,729,c),
(803,737,l),
(948,814,o),
(1020,901,o),
(1020,1047,cs),
(1020,1266,o),
(836,1364,o),
(626,1364,cs),
(554,1364,o),
(438,1358,o),
(348,1358,cs),
(261,1358,o),
(174,1359,o),
(87,1364,c),
(67,1364,o),
(69,1293,o),
(87,1293,cs),
(217,1293,o),
(282,1257,o),
(282,1184,cs),
(282,180,ls),
(282,100,o),
(224,63,o),
(96,63,cs),
(77,63,o),
(79,-7,o),
(96,-7,c)
);
},
{
closed = 1;
nodes = (
(479,51,o),
(414,129,o),
(414,286,cs),
(414,700,l),
(453,700,ls),
(690,700,o),
(961,657,o),
(961,375,cs),
(961,157,o),
(844,51,o),
(610,51,cs)
);
},
{
closed = 1;
nodes = (
(414,1242,ls),
(414,1287,o),
(431,1309,o),
(466,1309,cs),
(747,1309,o),
(872,1218,o),
(872,1044,cs),
(872,848,o),
(751,751,o),
(496,751,cs),
(414,751,l)
);
}
);
width = 1237;
},
{
anchors = (
{
name = bottom;
pos = (525,0);
},
{
name = top;
pos = (481,1356);
},
{
name = zzcurly;
pos = (434,1341);
}
);
layerId = "70B83247-6FA0-4662-9656-C86DD2A17D3B";
shapes = (
{
closed = 1;
nodes = (
(159,-2,o),
(232,0,o),
(305,0,cs),
(375,0,o),
(483,-7,o),
(553,-7,cs),
(824,-7,o),
(989,104,o),
(989,357,cs),
(989,549,o),
(870,685,o),
(722,731,c),
(722,738,l),
(839,792,o),
(908,897,o),
(908,1036,cs),
(908,1261,o),
(751,1364,o),
(552,1364,cs),
(483,1364,o),
(375,1358,o),
(305,1358,cs),
(230,1358,o),
(154,1359,o),
(79,1364,c),
(62,1364,o),
(63,1288,o),
(79,1288,cs),
(182,1288,o),
(234,1251,o),
(234,1178,cs),
(234,186,ls),
(234,110,o),
(180,69,o),
(86,69,cs),
(70,69,o),
(71,-7,o),
(86,-7,c)
);
},
{
closed = 1;
nodes = (
(443,57,o),
(394,126,o),
(394,263,cs),
(394,694,l),
(421,694,ls),
(627,694,o),
(808,629,o),
(808,375,cs),
(808,164,o),
(718,57,o),
(541,57,cs)
);
},
{
closed = 1;
nodes = (
(394,1236,ls),
(394,1281,o),
(410,1303,o),
(439,1303,cs),
(630,1303,o),
(741,1215,o),
(741,1033,cs),
(741,849,o),
(643,756,o),
(460,756,cs),
(394,756,l)
);
}
);
width = 1110;
},
{
anchors = (
{
name = bottom;
pos = (721,0);
},
{
name = top;
pos = (619,1360);
},
{
name = zzcurly;
pos = (574,1341);
}
);
layerId = "9E6FDE2E-55A6-44A9-9556-F1822294BF26";
shapes = (
{
closed = 1;
nodes = (
(197,-2,o),
(296,0,o),
(397,0,cs),
(507,0,o),
(635,-7,o),
(705,-7,cs),
(1058,-7,o),
(1269,98,o),
(1269,343,cs),
(1269,549,o),
(1112,689,o),
(910,727,c),
(910,734,l),
(1083,812,o),
(1164,901,o),
(1164,1046,cs),
(1164,1265,o),
(953,1364,o),
(706,1364,cs),
(635,1364,o),
(507,1358,o),
(397,1358,cs),
(292,1358,o),
(190,1359,o),
(85,1364,c),
(62,1364,o),
(63,1288,o),
(85,1288,cs),
(234,1288,o),
(308,1251,o),
(308,1178,cs),
(308,186,ls),
(308,106,o),
(242,69,o),
(96,69,cs),
(74,69,o),
(75,-7,o),
(96,-7,c)
);
},
{
closed = 1;
nodes = (
(541,57,o),
(468,136,o),
(468,297,cs),
(468,694,l),
(511,694,ls),
(785,694,o),
(1088,651,o),
(1088,375,cs),
(1088,162,o),
(956,57,o),
(689,57,cs)
);
},
{
closed = 1;
nodes = (
(468,1236,ls),
(468,1281,o),
(486,1303,o),
(527,1303,cs),
(844,1303,o),
(987,1215,o),
(987,1043,cs),
(987,851,o),
(849,756,o),
(560,756,cs),
(468,756,l)
);
}
);
width = 1390;
},
{
anchors = (
{
name = bottom;
pos = (623,0);
},
{
name = top;
pos = (550,1358);
},
{
name = zzcurly;
pos = (504,1341);
}
);
layerId = "00F4936D-6309-4DEC-83B3-42806ED1A477";
shapes = (
{
closed = 1;
nodes = (
(178,-2,o),
(264,0,o),
(351,0,cs),
(441,0,o),
(559,-7,o),
(629,-7,cs),
(941,-7,o),
(1129,101,o),
(1129,350,cs),
(1129,549,o),
(991,687,o),
(816,729,c),
(816,736,l),
(961,802,o),
(1036,899,o),
(1036,1041,cs),
(1036,1263,o),
(852,1364,o),
(629,1364,cs),
(559,1364,o),
(441,1358,o),
(351,1358,cs),
(261,1358,o),
(172,1359,o),
(82,1364,c),
(62,1364,o),
(63,1288,o),
(82,1288,cs),
(208,1288,o),
(271,1251,o),
(271,1178,cs),
(271,186,ls),
(271,108,o),
(211,69,o),
(91,69,cs),
(72,69,o),
(73,-7,o),
(91,-7,c)
);
},
{
closed = 1;
nodes = (
(492,57,o),
(431,131,o),
(431,280,cs),
(431,694,l),
(466,694,ls),
(706,694,o),
(948,640,o),
(948,375,cs),
(948,163,o),
(837,57,o),
(615,57,cs)
);
},
{
closed = 1;
nodes = (
(431,1236,ls),
(431,1281,o),
(448,1303,o),
(483,1303,cs),
(737,1303,o),
(864,1215,o),
(864,1038,cs),
(864,850,o),
(746,756,o),
(510,756,cs),
(431,756,l)
);
}
);
width = 1250;
}
);
unicode = 66;
}
{
glyphname = C;
kernLeft = KO_uniA7C3;
kernRight = KO_C;
layers = (
{
anchors = (
{
name = bottom;
pos = (371,0);
},
{
name = cedilla;
pos = (371,0);
},
{
name = ogonek;
pos = (435,0);
},
{
name = top;
pos = (381,663);
},
{
name = zzcurly;
pos = (319,655);
}
);
background = {
shapes = (
{
closed = 0;
nodes = (
(601,648,l),
(531,656,o),
(472,676,o),
(397,676,cs),
(174,676,o),
(44,517,o),
(44,326,cs),
(44,123,o),
(192,-13,o),
(396,-13,cs),
(448,-13,o),
(511,-5,o),
(553,9,cs),
(567,14,o),
(580,16,o),
(590,18,c)
);
}
);
};
layerId = master01;
shapes = (
{
closed = 1;
nodes = (
(453,-13,o),
(511,-5,o),
(553,9,cs),
(570,15,o),
(581,17,o),
(590,18,c),
(607,43,o),
(622,87,o),
(634,149,c),
(634,153,o),
(633,156,o),
(631,158,cs),
(627,162,o),
(604,162,o),
(602,155,cs),
(571,68,o),
(480,23,o),
(393,23,cs),
(231,23,o),
(138,178,o),
(138,345,cs),
(138,495,o),
(203,642,o),
(375,642,cs),
(491,642,o),
(572,578,o),
(581,495,cs),
(582,486,o),
(615,485,o),
(615,496,c),
(615,554,o),
(610,604,o),
(601,648,c),
(529,656,o),
(476,676,o),
(399,676,cs),
(179,676,o),
(44,517,o),
(44,326,cs),
(44,123,o),
(198,-13,o),
(394,-13,cs)
);
}
);
width = 656;
},
{
anchors = (
{
name = bottom;
pos = (379,0);
},
{
name = cedilla;
pos = (379,0);
},
{
name = ogonek;
pos = (444,0);
},
{
name = top;
pos = (390,663);
},
{
name = zzcurly;
pos = (323,655);
}
);
layerId = "75918100-ED89-42A8-B0FE-888EB9C86810";
shapes = (
{
closed = 1;
nodes = (
(460,-13,o),
(521,-2,o),
(565,10,cs),
(582,15,o),
(594,17,o),
(603,18,c),
(621,43,o),
(648,122,o),
(654,157,c),
(654,161,o),
(651,164,o),
(647,166,cs),
(634,173,o),
(610,177,o),
(607,168,cs),
(578,79,o),
(492,33,o),
(410,33,cs),
(257,33,o),
(169,183,o),
(169,346,cs),
(169,491,o),
(230,633,o),
(393,633,cs),
(503,633,o),
(579,569,o),
(588,486,cs),
(589,476,o),
(634,478,o),
(634,490,c),
(631,567,o),
(625,620,o),
(614,649,c),
(539,657,o),
(485,676,o),
(404,676,cs),
(176,676,o),
(36,517,o),
(36,326,cs),
(36,123,o),
(196,-13,o),
(399,-13,cs)
);
}
);
width = 671;
},
{
anchors = (
{
name = bottom;
pos = (369,0);
},
{
name = cedilla;
pos = (369,0);
},
{
name = ogonek;
pos = (434,0);
},
{
name = top;
pos = (379,663);
},
{
name = zzcurly;
pos = (328,655);
}
);
layerId = "6ABD9449-5E80-4451-809E-12ADEB9E9AB4";
shapes = (
{
closed = 1;
nodes = (
(452,-13,o),
(509,-5,o),
(551,9,cs),
(567,14,o),
(578,16,o),
(587,18,c),
(604,43,o),
(615,76,o),
(629,147,c),
(629,150,o),
(629,153,o),
(627,155,cs),
(626,158,o),
(604,157,o),
(601,150,cs),
(569,64,o),
(477,20,o),
(388,20,cs),
(224,20,o),
(129,177,o),
(129,346,cs),
(129,496,o),
(195,645,o),
(370,645,cs),
(488,645,o),
(571,581,o),
(580,498,cs),
(581,489,o),
(610,488,o),
(610,498,c),
(611,549,o),
(606,600,o),
(598,647,c),
(527,656,o),
(475,676,o),
(399,676,cs),
(182,676,o),
(49,516,o),
(49,326,cs),
(49,123,o),
(201,-13,o),
(393,-13,cs)
);
}
);
width = 654;
},
{
anchors = (
{
name = bottom;
pos = (317,0);
},
{
name = cedilla;
pos = (317,0);
},
{
name = ogonek;
pos = (367,0);
},
{
name = top;
pos = (326,663);
},
{
name = zzcurly;
pos = (263,655);
}
);
layerId = "70B83247-6FA0-4662-9656-C86DD2A17D3B";
shapes = (
{
closed = 1;
nodes = (
(385,-13,o),
(435,-3,o),
(471,10,cs),
(485,15,o),
(495,17,o),
(502,18,c),
(516,43,o),
(533,100,o),
(541,152,c),
(541,157,o),
(539,159,o),
(537,161,cs),
(531,166,o),
(510,168,o),
(508,160,cs),
(483,69,o),
(409,23,o),
(338,23,cs),
(207,23,o),
(131,178,o),
(131,346,cs),
(131,495,o),
(184,642,o),
(324,642,cs),
(419,642,o),
(485,576,o),
(492,491,cs),
(493,484,o),
(524,482,o),
(524,494,c),
(523,559,o),
(519,607,o),
(511,648,c),
(450,658,o),
(405,676,o),
(339,676,cs),
(153,676,o),
(38,517,o),
(38,326,cs),
(38,124,o),
(169,-13,o),
(335,-13,cs)
);
}
);
width = 560;
},
{
anchors = (
{
name = bottom;
pos = (426,0);
},
{
name = cedilla;
pos = (426,0);
},
{
name = ogonek;
pos = (505,0);
},
{
name = top;
pos = (438,663);
},
{
name = zzcurly;
pos = (378,655);
}
);
guides = (
{
pos = (379,23);
},
{
pos = (590,66);
},
{
pos = (627,150);
}
);
layerId = "9E6FDE2E-55A6-44A9-9556-F1822294BF26";
shapes = (
{
closed = 1;
nodes = (
(523,-13,o),
(590,-2,o),
(639,10,cs),
(658,15,o),
(671,17,o),
(681,18,c),
(701,43,o),
(713,75,o),
(729,146,c),
(729,149,o),
(729,152,o),
(728,154,cs),
(726,157,o),
(700,156,o),
(697,150,cs),
(660,66,o),
(552,23,o),
(449,23,cs),
(256,23,o),
(146,178,o),
(146,346,cs),
(146,495,o),
(223,642,o),
(427,642,cs),
(565,642,o),
(661,580,o),
(672,499,cs),
(673,488,o),
(707,488,o),
(707,499,c),
(707,548,o),
(703,602,o),
(692,647,c),
(609,656,o),
(549,676,o),
(460,676,cs),
(208,676,o),
(53,517,o),
(53,326,cs),
(53,123,o),
(230,-13,o),
(455,-13,cs)
);
}
);
width = 756;
},
{
anchors = (
{
name = bottom;
pos = (371,0);
},
{
name = cedilla;
pos = (371,0);
},
{
name = ogonek;
pos = (435,0);
},
{
name = top;
pos = (381,663);
},
{
name = zzcurly;
pos = (319,655);
}
);
layerId = "00F4936D-6309-4DEC-83B3-42806ED1A477";
shapes = (
{
closed = 1;
nodes = (
(453,-13,o),
(511,-5,o),
(553,9,cs),
(570,15,o),
(581,17,o),
(590,18,c),
(607,43,o),
(622,87,o),
(634,149,c),
(634,153,o),
(633,156,o),
(631,158,cs),
(627,162,o),
(604,162,o),
(602,155,cs),
(571,68,o),
(480,23,o),
(393,23,cs),
(231,23,o),
(138,178,o),
(138,345,cs),
(138,495,o),
(203,642,o),
(375,642,cs),
(491,642,o),
(572,578,o),
(581,495,cs),
(582,486,o),
(615,485,o),
(615,496,c),
(615,554,o),
(610,604,o),
(601,648,c),
(529,656,o),
(476,676,o),
(399,676,cs),
(179,676,o),
(44,517,o),
(44,326,cs),
(44,123,o),
(198,-13,o),
(394,-13,cs)
);
}
);
width = 656;
}
);
unicode = 67;
userData = {
KernOnName = C;
};
}
{
glyphname = D;
kernLeft = B;
kernRight = O;
layers = (
{
anchors = (
{
name = bottom;
pos = (319,0);
},
{
name = cedilla;
pos = (312,0);
},
{
name = center;
pos = (185,331);
},
{
name = top;
pos = (323,663);
},
{
name = zzcurly;
pos = (329,655);
}
);
layerId = master01;
shapes = (
{
closed = 1;
nodes = (
(87,-1,o),
(129,0,o),
(171,0,cs),
(236,0,o),
(302,-3,o),
(367,-3,cs),
(576,-3,o),
(699,149,o),
(699,357,cs),
(699,557,o),
(541,666,o),
(343,666,cs),
(286,666,o),
(229,663,o),
(171,663,cs),
(127,663,o),
(84,664,o),
(40,666,c),
(31,666,o),
(30,629,o),
(40,629,cs),
(102,629,o),
(132,611,o),
(132,575,cs),
(132,91,ls),
(132,53,o),
(103,34,o),
(44,34,cs),
(36,34,o),
(35,-3,o),
(44,-3,c)
);
},
{
closed = 1;
nodes = (
(240,26,o),
(210,55,o),
(210,146,cs),
(210,580,ls),
(210,625,o),
(229,636,o),
(303,636,cs),
(475,636,o),
(606,521,o),
(606,351,cs),
(606,163,o),
(508,26,o),
(333,26,cs)
);
}
);
width = 745;
},
{
anchors = (
{
name = bottom;
pos = (345,0);
},
{
name = cedilla;
pos = (333,0);
},
{
name = center;
pos = (196,331);
},
{
name = top;
pos = (349,663);
},
{
name = zzcurly;
pos = (326,655);
}
);
layerId = "75918100-ED89-42A8-B0FE-888EB9C86810";
shapes = (
{
closed = 1;
nodes = (
(85,-1,o),
(131,0,o),
(177,0,cs),
(243,0,o),
(310,-3,o),
(375,-3,cs),
(589,-3,o),
(728,136,o),
(728,355,cs),
(728,559,o),
(557,666,o),
(353,666,cs),
(294,666,o),
(236,663,o),
(177,663,cs),
(129,663,o),
(82,664,o),
(34,666,c),
(24,666,o),
(24,621,o),
(34,621,cs),
(90,621,o),
(118,603,o),
(118,567,cs),
(118,99,ls),
(118,61,o),
(91,42,o),
(39,42,cs),
(29,42,o),
(28,-3,o),
(39,-3,c)
);
},
{
closed = 1;
nodes = (
(261,35,o),
(236,58,o),
(236,133,cs),
(236,571,ls),
(236,615,o),
(254,628,o),
(313,628,cs),
(479,628,o),
(594,504,o),
(594,352,cs),
(594,171,o),
(500,35,o),
(342,35,cs)
);
}
);
width = 764;
},
{
anchors = (
{
name = bottom;
pos = (312,0);
},
{
name = cedilla;
pos = (307,0);
},
{
name = center;
pos = (182,331);
},
{
name = top;
pos = (315,663);
},
{
name = zzcurly;
pos = (320,655);
}
);
layerId = "6ABD9449-5E80-4451-809E-12ADEB9E9AB4";
shapes = (
{
closed = 1;
nodes = (
(89,-1,o),
(130,0,o),
(171,0,cs),
(236,0,o),
(300,-3,o),
(365,-3,cs),
(573,-3,o),
(691,154,o),
(691,357,cs),
(691,557,o),
(537,666,o),
(342,666,cs),
(285,666,o),
(228,663,o),
(171,663,cs),
(128,663,o),
(86,664,o),
(43,666,c),
(34,666,o),
(34,631,o),
(43,631,cs),
(107,631,o),
(139,614,o),
(139,578,cs),
(139,88,ls),
(139,50,o),
(108,31,o),
(48,31,cs),
(40,31,o),
(39,-3,o),
(48,-3,c)
);
},
{
closed = 1;
nodes = (
(238,23,o),
(203,58,o),
(203,150,cs),
(203,583,ls),
(203,628,o),
(223,639,o),
(302,639,cs),
(475,639,o),
(611,526,o),
(611,351,cs),
(611,160,o),
(512,23,o),
(332,23,cs)
);
}
);
width = 741;
},
{
anchors = (
{
name = bottom;
pos = (280,0);
},
{
name = cedilla;
pos = (272,0);
},
{
name = center;
pos = (162,331);
},
{
name = top;
pos = (283,663);
},
{
name = zzcurly;
pos = (280,655);
}
);
layerId = "70B83247-6FA0-4662-9656-C86DD2A17D3B";
shapes = (
{
closed = 1;
nodes = (
(74,-1,o),
(112,0,o),
(149,0,cs),
(205,0,o),
(260,-3,o),
(315,-3,cs),
(495,-3,o),
(604,146,o),
(604,356,cs),
(604,558,o),
(465,666,o),
(296,666,cs),
(247,666,o),
(198,663,o),
(149,663,cs),
(110,663,o),
(72,664,o),
(34,666,c),
(26,666,o),
(25,629,o),
(34,629,cs),
(84,629,o),
(109,611,o),
(109,575,cs),
(109,91,ls),
(109,53,o),
(85,34,o),
(37,34,cs),
(30,34,o),
(29,-3,o),
(37,-3,c)
);
},
{
closed = 1;
nodes = (
(213,26,o),
(188,55,o),
(188,139,cs),
(188,580,ls),
(188,625,o),
(202,636,o),
(262,636,cs),
(406,636,o),
(513,517,o),
(513,351,cs),
(513,164,o),
(431,26,o),
(287,26,cs)
);
}
);
width = 643;
},
{
anchors = (
{
name = bottom;
pos = (359,0);
},
{
name = cedilla;
pos = (353,0);
},
{
name = center;
pos = (208,331);
},
{
name = top;
pos = (363,663);
},
{
name = zzcurly;
pos = (379,655);
}
);
layerId = "9E6FDE2E-55A6-44A9-9556-F1822294BF26";
shapes = (
{
closed = 1;
nodes = (
(101,-1,o),
(147,0,o),
(195,0,cs),
(269,0,o),
(345,-3,o),
(419,-3,cs),
(658,-3,o),
(795,153,o),
(795,357,cs),
(795,557,o),
(617,666,o),
(392,666,cs),
(326,666,o),
(260,663,o),
(195,663,cs),
(146,663,o),
(97,664,o),
(47,666,c),
(37,666,o),
(36,629,o),
(47,629,cs),
(120,629,o),
(156,611,o),
(156,575,cs),
(156,91,ls),
(156,53,o),
(122,34,o),
(53,34,cs),
(42,34,o),
(42,-3,o),
(53,-3,c)
);
},
{
closed = 1;
nodes = (
(269,26,o),
(234,55,o),
(234,152,cs),
(234,580,ls),
(234,625,o),
(257,636,o),
(346,636,cs),
(544,636,o),
(700,524,o),
(700,351,cs),
(700,162,o),
(586,26,o),
(380,26,cs)
);
}
);
width = 850;
},
{
anchors = (
{
name = bottom;
pos = (319,0);
},
{
name = cedilla;
pos = (312,0);
},
{
name = center;
pos = (185,331);
},
{
name = top;
pos = (323,663);
},
{
name = zzcurly;
pos = (329,655);
}
);
layerId = "00F4936D-6309-4DEC-83B3-42806ED1A477";
shapes = (
{
closed = 1;
nodes = (
(87,-1,o),
(129,0,o),
(171,0,cs),
(236,0,o),
(302,-3,o),
(367,-3,cs),
(576,-3,o),
(699,149,o),
(699,357,cs),
(699,557,o),
(541,666,o),
(343,666,cs),
(286,666,o),
(229,663,o),
(171,663,cs),
(127,663,o),
(84,664,o),
(40,666,c),
(31,666,o),
(30,629,o),
(40,629,cs),
(102,629,o),
(132,611,o),
(132,575,cs),
(132,91,ls),
(132,53,o),
(103,34,o),
(44,34,cs),
(36,34,o),
(35,-3,o),
(44,-3,c)
);
},
{
closed = 1;
nodes = (
(240,26,o),
(210,55,o),
(210,146,cs),
(210,580,ls),
(210,625,o),
(229,636,o),
(303,636,cs),
(475,636,o),
(606,521,o),
(606,351,cs),
(606,163,o),
(508,26,o),
(333,26,cs)
);
}
);
width = 745;
}
);
metricLeft = B;
unicode = 68;
}
{
glyphname = E;
kernLeft = B;
kernRight = E;
layers = (
{
anchors = (
{
name = bottom;
pos = (348,0);
},
{
name = cedilla;
pos = (296,0);
},
{
name = ogonek;
pos = (523,5);
},
{
name = ogonek_above;
pos = (307,653);
},
{
name = ogonek_left;
pos = (371,5);
},
{
name = top;
pos = (304,663);
},
{
name = topleft;
pos = (9,663);
},
{
name = zzcurly;
pos = (266,655);
}
);
guides = (
{
pos = (1227,1327);
}
);
hints = (
{
horizontal = 1;
options = 4;
origin = (0,2);
target = (0,73);
type = TTStem;
},
{
horizontal = 1;
options = 4;
origin = (0,60);
target = (0,66);
type = TTStem;
},
{
horizontal = 1;
options = 4;
origin = (0,60);
target = (0,46);
type = TTStem;
},
{
horizontal = 1;
options = 4;
origin = (0,2);
target = (0,16);
type = TTStem;
},
{
horizontal = 1;
origin = (0,2);
other1 = (0,20);
target = (0,60);
type = TTInterpolate;
},
{
horizontal = 1;
options = 4;
origin = (0,20);
target = (0,42);
type = TTStem;
},
{
horizontal = 1;
options = 4;
origin = (0,20);
target = (0,25);
type = TTShift;
},
{
horizontal = 1;
options = 4;
origin = (0,42);
target = (0,37);
type = TTShift;
}
);
layerId = master01;
shapes = (
{
closed = 1;
nodes = (
(83,-1,o),
(127,0,o),
(170,0,cs),
(290,0,o),
(409,-3,o),
(528,-3,cs),
(553,-3,o),
(563,3,o),
(563,18,cs),
(563,166,ls),
(563,178,o),
(527,178,o),
(527,166,cs),
(527,78,o),
(487,36,o),
(400,34,cs),
(286,30,ls),
(240,29,o),
(209,69,o),
(209,128,cs),
(209,295,l),
(324,295,ls),
(364,295,o),
(381,290,o),
(381,251,cs),
(381,211,ls),
(381,202,o),
(415,203,o),
(415,211,c),
(412,247,o),
(411,283,o),
(411,318,cs),
(411,354,o),
(412,389,o),
(415,425,c),
(415,434,o),
(381,434,o),
(381,425,cs),
(381,389,ls),
(381,344,o),
(369,334,o),
(324,334,cs),
(209,334,l),
(209,609,ls),
(209,625,o),
(216,633,o),
(229,632,cs),
(368,629,ls),
(455,627,o),
(494,585,o),
(494,496,cs),
(494,485,o),
(531,484,o),
(531,496,cs),
(531,653,ls),
(531,662,o),
(520,666,o),
(496,666,cs),
(387,666,o),
(279,663,o),
(170,663,cs),
(127,663,o),
(83,664,o),
(40,666,c),
(31,666,o),
(30,629,o),
(40,629,cs),
(101,629,o),
(131,611,o),
(131,575,cs),
(131,86,ls),
(131,51,o),
(101,34,o),
(40,34,cs),
(31,33,o),
(30,-3,o),
(40,-3,c)
);
}
);
width = 602;
},
{
anchors = (
{
name = bottom;
pos = (351,0);
},
{
name = cedilla;
pos = (299,0);
},
{
name = ogonek;
pos = (526,5);
},
{
name = ogonek_above;
pos = (304,653);
},
{
name = ogonek_left;
pos = (387,5);
},
{
name = top;
pos = (307,663);
},
{
name = topleft;
pos = (11,663);
},
{
name = zzcurly;
pos = (257,655);
}
);
layerId = "75918100-ED89-42A8-B0FE-888EB9C86810";
shapes = (
{
closed = 1;
nodes = (
(87,-1,o),
(135,0,o),
(184,0,cs),
(299,0,o),
(415,-3,o),
(530,-3,cs),
(565,-3,o),
(581,6,o),
(581,28,cs),
(581,168,ls),
(581,179,o),
(530,179,o),
(530,168,cs),
(530,84,o),
(496,45,o),
(421,44,cs),
(313,42,ls),
(278,42,o),
(236,63,o),
(236,108,cs),
(236,292,l),
(316,292,ls),
(356,292,o),
(376,277,o),
(376,248,cs),
(376,206,ls),
(376,194,o),
(427,197,o),
(427,206,c),
(425,243,o),
(424,280,o),
(424,318,cs),
(424,355,o),
(425,392,o),
(427,429,c),
(427,439,o),
(376,438,o),
(376,429,cs),
(376,381,ls),
(376,351,o),
(356,336,o),
(316,336,cs),
(236,336,l),
(236,597,ls),
(236,614,o),
(241,621,o),
(256,621,cs),
(395,616,ls),
(469,613,o),
(503,574,o),
(503,492,cs),
(503,480,o),
(552,480,o),
(552,492,cs),
(552,641,ls),
(552,659,o),
(544,666,o),
(524,666,cs),
(410,666,o),
(294,663,o),
(180,663,cs),
(131,663,o),
(83,664,o),
(34,666,c),
(24,666,o),
(24,621,o),
(34,621,cs),
(90,621,o),
(118,603,o),
(118,567,cs),
(118,99,ls),
(118,61,o),
(91,42,o),
(39,42,cs),
(28,42,o),
(29,-3,o),
(39,-3,c)
);
}
);
width = 611;
},
{
anchors = (
{
name = bottom;
pos = (340,0);
},
{
name = cedilla;
pos = (298,0);
},
{
name = ogonek;
pos = (525,5);
},
{
name = ogonek_above;
pos = (310,653);
},
{
name = ogonek_left;
pos = (367,5);
},
{
name = top;
pos = (306,663);
},
{
name = topleft;
pos = (11,663);
},
{
name = zzcurly;
pos = (261,655);
}
);
guides = (
{
pos = (1231,1327);
}
);
layerId = "6ABD9449-5E80-4451-809E-12ADEB9E9AB4";
shapes = (
{
closed = 1;
nodes = (
(87,-1,o),
(130,0,o),
(174,0,cs),
(292,0,o),
(411,-3,o),
(530,-3,cs),
(551,-3,o),
(561,2,o),
(561,15,cs),
(561,166,ls),
(561,177,o),
(528,177,o),
(528,166,cs),
(528,76,o),
(487,33,o),
(396,30,cs),
(279,26,ls),
(229,25,o),
(203,71,o),
(203,135,cs),
(203,297,l),
(329,297,ls),
(369,297,o),
(385,290,o),
(385,252,cs),
(385,213,ls),
(385,205,o),
(414,205,o),
(414,213,c),
(410,248,o),
(410,283,o),
(410,318,cs),
(410,353,o),
(410,388,o),
(414,423,c),
(414,432,o),
(385,432,o),
(385,423,cs),
(385,391,ls),
(385,345,o),
(376,333,o),
(329,333,cs),
(203,333,l),
(203,613,ls),
(203,628,o),
(211,637,o),
(223,636,cs),
(362,633,ls),
(452,631,o),
(494,588,o),
(494,498,cs),
(494,486,o),
(526,486,o),
(526,498,cs),
(526,657,ls),
(526,663,o),
(515,666,o),
(489,666,cs),
(383,666,o),
(277,663,o),
(172,663,cs),
(129,663,o),
(87,664,o),
(45,666,c),
(36,666,o),
(35,631,o),
(45,631,cs),
(107,631,o),
(139,614,o),
(139,578,cs),
(139,82,ls),
(139,48,o),
(107,31,o),
(43,31,cs),
(34,31,o),
(34,-3,o),
(43,-3,c)
);
}
);
width = 603;
},
{
anchors = (
{
name = bottom;
pos = (289,0);
},
{
name = cedilla;
pos = (206,0);
},
{
name = ogonek;
pos = (462,5);
},
{
name = ogonek_above;
pos = (210,653);
},
{
name = ogonek_left;
pos = (317,5);
},
{
name = top;
pos = (265,663);
},
{
name = topleft;
pos = (10,663);
},
{
name = zzcurly;
pos = (192,655);
}
);
layerId = "70B83247-6FA0-4662-9656-C86DD2A17D3B";
shapes = (
{
closed = 1;
nodes = (
(74,-1,o),
(114,0,o),
(153,0,cs),
(252,0,o),
(352,-3,o),
(451,-3,cs),
(476,-3,o),
(486,4,o),
(486,21,cs),
(486,167,ls),
(486,178,o),
(451,178,o),
(451,167,cs),
(451,80,o),
(418,39,o),
(349,37,cs),
(252,34,ls),
(217,33,o),
(188,67,o),
(188,122,cs),
(188,298,l),
(274,298,ls),
(313,298,o),
(324,283,o),
(324,252,cs),
(324,210,ls),
(324,200,o),
(358,201,o),
(358,210,c),
(355,246,o),
(355,282,o),
(355,318,cs),
(355,354,o),
(355,390,o),
(358,426,c),
(358,436,o),
(324,435,o),
(324,426,cs),
(324,385,ls),
(324,342,o),
(308,332,o),
(274,332,cs),
(188,332,l),
(188,605,ls),
(188,621,o),
(193,629,o),
(208,629,cs),
(323,625,ls),
(393,623,o),
(425,582,o),
(425,495,cs),
(425,483,o),
(459,483,o),
(459,495,cs),
(459,649,ls),
(459,661,o),
(451,666,o),
(432,666,cs),
(338,666,o),
(244,663,o),
(150,663,cs),
(111,663,o),
(73,664,o),
(34,666,c),
(26,666,o),
(25,629,o),
(34,629,cs),
(84,629,o),
(109,611,o),
(109,575,cs),
(109,88,ls),
(109,52,o),
(84,34,o),
(35,34,cs),
(27,33,o),
(27,-3,o),
(35,-3,c)
);
}
);
width = 519;
},
{
anchors = (
{
name = bottom;
pos = (409,0);
},
{
name = cedilla;
pos = (389,0);
},
{
name = ogonek;
pos = (586,5);
},
{
name = ogonek_above;
pos = (405,653);
},
{
name = ogonek_left;
pos = (427,5);
},
{
name = top;
pos = (346,663);
},
{
name = topleft;
pos = (9,663);
},
{
name = zzcurly;
pos = (341,655);
}
);
layerId = "9E6FDE2E-55A6-44A9-9556-F1822294BF26";
shapes = (
{
closed = 1;
nodes = (
(95,-1,o),
(142,0,o),
(190,0,cs),
(329,0,o),
(468,-3,o),
(606,-3,cs),
(632,-3,o),
(643,2,o),
(643,15,cs),
(643,166,ls),
(643,178,o),
(605,179,o),
(605,166,cs),
(605,79,o),
(558,37,o),
(454,34,cs),
(321,30,ls),
(264,29,o),
(233,74,o),
(233,137,cs),
(233,298,l),
(375,298,ls),
(417,298,o),
(439,294,o),
(439,250,cs),
(439,213,ls),
(439,204,o),
(474,204,o),
(474,213,c),
(470,248,o),
(469,283,o),
(469,318,cs),
(469,353,o),
(470,388,o),
(474,423,c),
(474,433,o),
(439,432,o),
(439,423,cs),
(439,392,ls),
(439,348,o),
(432,332,o),
(375,332,cs),
(233,332,l),
(233,609,ls),
(233,625,o),
(242,632,o),
(253,632,cs),
(416,629,ls),
(519,627,o),
(565,586,o),
(565,498,cs),
(565,486,o),
(604,485,o),
(604,498,cs),
(604,656,ls),
(604,663,o),
(591,666,o),
(562,666,cs),
(438,666,o),
(315,663,o),
(192,663,cs),
(145,663,o),
(96,664,o),
(48,666,c),
(38,666,o),
(38,629,o),
(48,629,cs),
(120,629,o),
(155,611,o),
(155,575,cs),
(155,85,ls),
(155,51,o),
(120,34,o),
(47,34,cs),
(36,34,o),
(36,-3,o),
(47,-3,c)
);
}
);
width = 689;
},
{
anchors = (
{
name = bottom;
pos = (348,0);
},
{
name = cedilla;
pos = (296,0);
},
{
name = ogonek;
pos = (523,5);
},
{
name = ogonek_above;
pos = (307,653);
},
{
name = ogonek_left;
pos = (371,5);
},
{
name = top;
pos = (304,663);
},
{
name = topleft;
pos = (9,663);
},
{
name = zzcurly;
pos = (266,655);
}
);
guides = (
{
pos = (1227,1327);
}
);
layerId = "00F4936D-6309-4DEC-83B3-42806ED1A477";
shapes = (
{
closed = 1;
nodes = (
(83,-1,o),
(127,0,o),
(170,0,cs),
(290,0,o),
(409,-3,o),
(528,-3,cs),
(553,-3,o),
(563,3,o),
(563,18,cs),
(563,166,ls),
(563,178,o),
(527,178,o),
(527,166,cs),
(527,78,o),
(487,36,o),
(400,34,cs),
(286,30,ls),
(240,30,o),
(209,69,o),
(209,128,cs),
(209,298,l),
(324,298,ls),
(364,298,o),
(381,289,o),
(381,251,cs),
(381,211,ls),
(381,202,o),
(415,203,o),
(415,211,c),
(412,247,o),
(411,283,o),
(411,318,cs),
(411,354,o),
(412,389,o),
(415,425,c),
(415,434,o),
(381,434,o),
(381,425,cs),
(381,389,ls),
(381,345,o),
(369,332,o),
(324,332,cs),
(209,332,l),
(209,609,ls),
(209,625,o),
(216,632,o),
(229,632,cs),
(368,629,ls),
(455,627,o),
(494,585,o),
(494,496,cs),
(494,485,o),
(531,484,o),
(531,496,cs),
(531,653,ls),
(531,662,o),
(520,666,o),
(496,666,cs),
(387,666,o),
(279,663,o),
(170,663,cs),
(127,663,o),
(83,664,o),
(40,666,c),
(31,666,o),
(30,629,o),
(40,629,cs),
(101,629,o),
(131,611,o),
(131,575,cs),
(131,86,ls),
(131,51,o),
(101,34,o),
(40,34,cs),
(31,33,o),
(30,-3,o),
(40,-3,c)
);
}
);
width = 602;
}
);
metricLeft = B;
unicode = 69;
}
{
glyphname = F;
kernLeft = KO_H;
kernRight = KO_T;
layers = (
{
anchors = (
{
name = bottom;
pos = (293,0);
},
{
name = top;
pos = (293,663);
},
{
name = zzcurly;
pos = (274,655);
}
);
layerId = master01;
shapes = (
{
closed = 1;
nodes = (
(94,-1,o),
(137,0,o),
(180,0,cs),
(223,0,o),
(266,-1,o),
(309,-3,c),
(319,-3,o),
(318,34,o),
(309,34,cs),
(248,34,o),
(217,43,o),
(217,91,cs),
(217,313,l),
(311,313,ls),
(354,313,o),
(368,299,o),
(368,251,cs),
(368,194,ls),
(368,185,o),
(403,186,o),
(403,194,c),
(399,241,o),
(399,287,o),
(399,333,cs),
(399,379,o),
(399,425,o),
(403,472,c),
(403,481,o),
(368,480,o),
(368,472,cs),
(368,415,ls),
(368,366,o),
(358,352,o),
(311,352,cs),
(217,352,l),
(217,605,ls),
(217,622,o),
(224,629,o),
(237,629,cs),
(384,624,ls),
(471,621,o),
(511,581,o),
(511,496,cs),
(511,484,o),
(548,484,o),
(548,496,cs),
(548,654,ls),
(548,664,o),
(541,666,o),
(512,666,cs),
(468,666,o),
(222,663,o),
(178,663,cs),
(135,663,o),
(91,664,o),
(48,666,c),
(38,666,o),
(39,629,o),
(48,629,cs),
(109,629,o),
(139,620,o),
(139,575,cs),
(139,91,ls),
(139,43,o),
(110,34,o),
(51,34,cs),
(42,34,o),
(43,-3,o),
(51,-3,c)
);
}
);
width = 568;
},
{
anchors = (
{
name = bottom;
pos = (294,0);
},
{
name = top;
pos = (294,663);
},
{
name = zzcurly;
pos = (259,655);
}
);
layerId = "75918100-ED89-42A8-B0FE-888EB9C86810";
shapes = (
{
closed = 1;
nodes = (
(86,-1,o),
(131,0,o),
(177,0,cs),
(223,0,o),
(268,-1,o),
(314,-3,c),
(323,-3,o),
(322,42,o),
(314,42,cs),
(263,42,o),
(238,51,o),
(238,99,cs),
(238,311,l),
(318,311,ls),
(348,311,o),
(363,296,o),
(363,267,cs),
(363,196,ls),
(363,187,o),
(415,188,o),
(415,196,c),
(412,241,o),
(412,286,o),
(412,332,cs),
(412,376,o),
(412,421,o),
(415,466,c),
(415,477,o),
(363,476,o),
(363,466,cs),
(363,399,ls),
(363,370,o),
(348,355,o),
(318,355,cs),
(238,355,l),
(238,598,ls),
(238,614,o),
(243,622,o),
(258,621,cs),
(397,616,ls),
(471,613,o),
(505,574,o),
(505,492,cs),
(505,480,o),
(554,480,o),
(554,492,cs),
(554,649,ls),
(554,663,o),
(548,666,o),
(525,666,cs),
(410,666,o),
(294,663,o),
(179,663,cs),
(131,663,o),
(84,664,o),
(36,666,c),
(26,666,o),
(26,621,o),
(36,621,cs),
(92,621,o),
(120,612,o),
(120,567,cs),
(120,99,ls),
(120,51,o),
(93,42,o),
(41,42,cs),
(30,42,o),
(31,-3,o),
(41,-3,c)
);
}
);
width = 570;
},
{
anchors = (
{
name = bottom;
pos = (293,0);
},
{
name = top;
pos = (293,663);
},
{
name = zzcurly;
pos = (270,655);
}
);
layerId = "6ABD9449-5E80-4451-809E-12ADEB9E9AB4";
shapes = (
{
closed = 1;
nodes = (
(97,-1,o),
(140,0,o),
(182,0,cs),
(224,0,o),
(266,-1,o),
(308,-3,c),
(318,-3,o),
(317,31,o),
(308,31,cs),
(243,31,o),
(211,40,o),
(211,88,cs),
(211,314,l),
(309,314,ls),
(356,314,o),
(370,298,o),
(370,247,cs),
(370,194,ls),
(370,185,o),
(399,185,o),
(399,194,c),
(395,241,o),
(395,287,o),
(395,334,cs),
(395,380,o),
(395,427,o),
(399,474,c),
(399,482,o),
(370,482,o),
(370,474,cs),
(370,419,ls),
(370,367,o),
(362,351,o),
(309,351,cs),
(211,351,l),
(211,607,ls),
(211,625,o),
(218,631,o),
(231,631,cs),
(381,626,ls),
(471,624,o),
(513,583,o),
(513,497,cs),
(513,485,o),
(546,485,o),
(546,497,cs),
(546,654,ls),
(546,663,o),
(539,665,o),
(509,666,cs),
(399,667,o),
(288,663,o),
(178,663,cs),
(136,663,o),
(94,664,o),
(52,666,c),
(43,666,o),
(43,631,o),
(52,631,cs),
(115,631,o),
(146,622,o),
(146,578,cs),
(146,88,ls),
(146,40,o),
(116,31,o),
(55,31,cs),
(47,31,o),
(47,-3,o),
(55,-3,c)
);
}
);
width = 568;
},
{
anchors = (
{
name = bottom;
pos = (240,0);
},
{
name = top;
pos = (240,663);
},
{
name = zzcurly;
pos = (199,655);
}
);
layerId = "70B83247-6FA0-4662-9656-C86DD2A17D3B";
shapes = (
{
closed = 1;
nodes = (
(79,-1,o),
(114,0,o),
(150,0,cs),
(184,0,o),
(219,-1,o),
(255,-3,c),
(262,-3,o),
(262,34,o),
(255,34,cs),
(210,34,o),
(186,43,o),
(186,91,cs),
(186,314,l),
(257,314,ls),
(290,314,o),
(299,294,o),
(299,257,cs),
(299,194,ls),
(299,185,o),
(332,186,o),
(332,194,c),
(330,240,o),
(329,286,o),
(329,332,cs),
(329,378,o),
(330,424,o),
(332,470,c),
(332,479,o),
(299,479,o),
(299,470,cs),
(299,409,ls),
(299,361,o),
(285,351,o),
(257,351,cs),
(186,351,l),
(186,604,ls),
(186,620,o),
(191,628,o),
(206,628,cs),
(317,625,ls),
(383,624,o),
(413,582,o),
(413,494,cs),
(413,482,o),
(446,483,o),
(446,494,cs),
(446,654,ls),
(446,663,o),
(441,666,o),
(420,666,cs),
(330,666,o),
(239,663,o),
(149,663,cs),
(113,663,o),
(77,664,o),
(41,666,c),
(33,666,o),
(33,628,o),
(41,628,cs),
(88,628,o),
(112,619,o),
(112,575,cs),
(112,91,ls),
(112,43,o),
(89,34,o),
(44,34,cs),
(36,34,o),
(37,-3,o),
(44,-3,c)
);
}
);
width = 463;
},
{
anchors = (
{
name = bottom;
pos = (343,0);
},
{
name = top;
pos = (343,663);
},
{
name = zzcurly;
pos = (346,655);
}
);
layerId = "9E6FDE2E-55A6-44A9-9556-F1822294BF26";
shapes = (
{
closed = 1;
nodes = (
(108,-1,o),
(159,0,o),
(210,0,cs),
(261,0,o),
(312,-1,o),
(362,-3,c),
(374,-3,o),
(373,34,o),
(362,34,cs),
(285,34,o),
(247,43,o),
(247,91,cs),
(247,314,l),
(364,314,ls),
(416,314,o),
(436,302,o),
(436,246,cs),
(436,194,ls),
(436,185,o),
(472,185,o),
(472,194,c),
(467,241,o),
(466,287,o),
(466,334,cs),
(466,381,o),
(467,427,o),
(472,474,c),
(472,483,o),
(436,482,o),
(436,474,cs),
(436,420,ls),
(436,373,o),
(429,351,o),
(364,351,cs),
(247,351,l),
(247,606,ls),
(247,624,o),
(256,630,o),
(267,630,cs),
(452,627,ls),
(536,625,o),
(574,585,o),
(574,498,cs),
(574,485,o),
(616,486,o),
(616,498,cs),
(616,654,ls),
(616,664,o),
(607,667,o),
(570,667,cs),
(438,667,o),
(339,663,o),
(206,663,cs),
(155,663,o),
(105,663,o),
(54,667,c),
(42,667,o),
(43,629,o),
(54,629,cs),
(129,629,o),
(165,620,o),
(165,576,cs),
(165,91,ls),
(165,43,o),
(130,34,o),
(57,34,cs),
(47,34,o),
(47,-3,o),
(57,-3,c)
);
}
);
width = 639;
},
{
anchors = (
{
name = bottom;
pos = (293,0);
},
{
name = top;
pos = (293,663);
},
{
name = zzcurly;
pos = (274,655);
}
);
layerId = "00F4936D-6309-4DEC-83B3-42806ED1A477";
shapes = (
{
closed = 1;
nodes = (
(94,-1,o),
(137,0,o),
(180,0,cs),
(223,0,o),
(266,-1,o),
(309,-3,c),
(319,-3,o),
(318,34,o),
(309,34,cs),
(248,34,o),
(217,43,o),
(217,91,cs),
(217,313,l),
(311,313,ls),
(354,313,o),
(368,299,o),
(368,251,cs),
(368,194,ls),
(368,185,o),
(403,186,o),
(403,194,c),
(399,241,o),
(399,287,o),
(399,333,cs),
(399,379,o),
(399,425,o),
(403,472,c),
(403,481,o),
(368,480,o),
(368,472,cs),
(368,415,ls),
(368,366,o),
(358,352,o),
(311,352,cs),
(217,352,l),
(217,605,ls),
(217,622,o),
(224,629,o),
(237,629,cs),
(384,624,ls),
(471,621,o),
(511,581,o),
(511,496,cs),
(511,484,o),
(548,484,o),
(548,496,cs),
(548,654,ls),
(548,664,o),
(541,666,o),
(512,666,cs),
(468,666,o),
(222,663,o),
(178,663,cs),
(135,663,o),
(91,664,o),
(48,666,c),
(38,666,o),
(39,629,o),
(48,629,cs),
(109,629,o),
(139,620,o),
(139,575,cs),
(139,91,ls),
(139,43,o),
(110,34,o),
(51,34,cs),
(42,34,o),
(43,-3,o),
(51,-3,c)
);
}
);
width = 568;
}
);
metricLeft = B;
unicode = 70;
}
{
glyphname = G;
kernLeft = C;
kernRight = G;
layers = (
{
anchors = (
{
name = bottom;
pos = (769,0);
},
{
name = cedilla;
pos = (759,0);
},
{
name = center;
pos = (1131,304);
},
{
name = top;
pos = (780,1358);
},
{
name = zzcurly;
pos = (654,1341);
}
);
hints = (
{
horizontal = 1;
options = 4;
origin = (0,61);
target = (0,34);
type = TTStem;
},
{
horizontal = 1;
options = 4;
origin = (0,55);
target = (0,40);
type = TTStem;
},
{
horizontal = 1;
options = 4;
origin = (0,21);
target = (0,27);
type = TTStem;
},
{
horizontal = 1;
options = 4;
origin = (0,27);
target = (0,15);
type = TTShift;
}
);
layerId = master01;
shapes = (
{
closed = 1;
nodes = (
(864,-27,o),
(904,-23,o),
(1050,2,cs),
(1129,16,o),
(1236,31,o),
(1268,31,cs),
(1286,31,o),
(1286,77,o),
(1267,77,cs),
(1242,77,o),
(1230,99,o),
(1230,144,cs),
(1230,363,ls),
(1230,440,o),
(1277,478,o),
(1371,478,cs),
(1392,478,o),
(1391,554,o),
(1371,554,c),
(1291,549,o),
(1210,548,o),
(1130,548,cs),
(1034,548,o),
(938,549,o),
(842,554,c),
(822,554,o),
(823,478,o),
(842,478,cs),
(994,478,o),
(1070,440,o),
(1070,363,cs),
(1070,173,ls),
(1070,73,o),
(1011,48,o),
(836,48,cs),
(493,48,o),
(282,339,o),
(282,726,cs),
(282,1066,o),
(502,1314,o),
(805,1314,cs),
(1029,1314,o),
(1192,1188,o),
(1192,1014,c),
(1193,996,o),
(1261,993,o),
(1261,1019,cs),
(1261,1178,o),
(1252,1271,o),
(1232,1327,c),
(1203,1327,o),
(1161,1336,o),
(1077,1355,cs),
(996,1373,o),
(920,1385,o),
(836,1385,cs),
(416,1385,o),
(91,1072,o),
(91,667,cs),
(91,270,o),
(381,-27,o),
(768,-27,cs)
);
}
);
width = 1409;
},
{
anchors = (
{
name = bottom;
pos = (769,0);
},
{
name = cedilla;
pos = (759,0);
},
{
name = center;
pos = (1141,304);
},
{
name = top;
pos = (780,1358);
},
{
name = zzcurly;
pos = (644,1341);
}
);
layerId = "75918100-ED89-42A8-B0FE-888EB9C86810";
shapes = (
{
closed = 1;
nodes = (
(862,-27,o),
(971,-16,o),
(1090,4,cs),
(1214,25,o),
(1292,35,o),
(1325,35,cs),
(1345,35,o),
(1344,115,o),
(1325,115,cs),
(1296,115,o),
(1282,130,o),
(1282,160,cs),
(1282,401,ls),
(1282,452,o),
(1318,477,o),
(1391,477,cs),
(1410,477,o),
(1409,569,o),
(1391,569,c),
(1307,564,o),
(1224,563,o),
(1140,563,cs),
(1042,563,o),
(944,564,o),
(846,569,c),
(826,569,o),
(827,477,o),
(846,477,cs),
(1005,477,o),
(1038,465,o),
(1038,401,cs),
(1038,160,ls),
(1038,96,o),
(962,68,o),
(826,68,cs),
(523,68,o),
(328,341,o),
(328,705,cs),
(328,1058,o),
(529,1296,o),
(826,1296,cs),
(1043,1296,o),
(1187,1176,o),
(1186,995,c),
(1192,972,o),
(1280,980,o),
(1280,1004,cs),
(1280,1156,o),
(1268,1253,o),
(1239,1329,c),
(1201,1331,o),
(1159,1339,o),
(1082,1354,cs),
(988,1372,o),
(909,1384,o),
(819,1384,cs),
(361,1384,o),
(55,1089,o),
(55,647,cs),
(55,262,o),
(361,-27,o),
(770,-27,cs)
);
}
);
width = 1441;
},
{
anchors = (
{
name = bottom;
pos = (769,0);
},
{
name = cedilla;
pos = (759,0);
},
{
name = center;
pos = (1128,304);
},
{
name = top;
pos = (780,1358);
},
{
name = zzcurly;
pos = (657,1341);
}
);
layerId = "6ABD9449-5E80-4451-809E-12ADEB9E9AB4";
shapes = (
{
closed = 1;
nodes = (
(869,-27,o),
(900,-24,o),
(1037,1,cs),
(1101,13,o),
(1217,30,o),
(1249,30,cs),
(1266,30,o),
(1267,64,o),
(1248,64,cs),
(1224,64,o),
(1213,89,o),
(1213,139,cs),
(1213,350,ls),
(1213,436,o),
(1263,478,o),
(1364,478,cs),
(1386,478,o),
(1385,549,o),
(1364,549,c),
(1286,544,o),
(1205,543,o),
(1127,543,cs),
(1031,543,o),
(936,544,o),
(841,549,c),
(821,549,o),
(822,478,o),
(841,478,cs),
(990,478,o),
(1081,432,o),
(1081,350,cs),
(1081,177,ls),
(1081,78,o),
(949,41,o),
(812,41,cs),
(413,41,o),
(267,388,o),
(267,713,cs),
(267,1112,o),
(501,1320,o),
(801,1320,cs),
(1024,1320,o),
(1193,1191,o),
(1194,1020,c),
(1193,1004,o),
(1255,997,o),
(1255,1024,cs),
(1255,1185,o),
(1247,1277,o),
(1230,1326,c),
(1204,1326,o),
(1162,1335,o),
(1075,1355,cs),
(986,1376,o),
(914,1385,o),
(837,1385,cs),
(426,1385,o),
(103,1072,o),
(103,674,cs),
(103,273,o),
(388,-27,o),
(767,-27,cs)
);
}
);
width = 1398;
},
{
anchors = (
{
name = bottom;
pos = (629,0);
},
{
name = cedilla;
pos = (618,0);
},
{
name = center;
pos = (916,304);
},
{
name = top;
pos = (635,1358);
},
{
name = zzcurly;
pos = (534,1341);
}
);
layerId = "70B83247-6FA0-4662-9656-C86DD2A17D3B";
shapes = (
{
closed = 1;
nodes = (
(704,-27,o),
(751,-21,o),
(864,3,cs),
(934,18,o),
(1019,32,o),
(1042,32,cs),
(1057,32,o),
(1057,88,o),
(1042,88,cs),
(1021,88,o),
(1010,109,o),
(1010,149,cs),
(1010,374,ls),
(1010,443,o),
(1045,478,o),
(1114,478,cs),
(1130,478,o),
(1129,554,o),
(1114,554,c),
(1047,549,o),
(981,548,o),
(914,548,cs),
(838,548,o),
(762,549,o),
(686,554,c),
(670,554,o),
(670,478,o),
(686,478,cs),
(820,478,o),
(857,440,o),
(857,374,cs),
(857,169,ls),
(857,81,o),
(806,48,o),
(669,48,cs),
(403,48,o),
(264,336,o),
(264,720,cs),
(264,1057,o),
(439,1314,o),
(669,1314,cs),
(841,1314,o),
(963,1187,o),
(963,1008,c),
(966,989,o),
(1025,988,o),
(1025,1015,cs),
(1025,1188,o),
(1016,1281,o),
(999,1328,c),
(981,1329,o),
(944,1338,o),
(879,1354,cs),
(801,1373,o),
(735,1385,o),
(665,1385,cs),
(327,1385,o),
(73,1075,o),
(73,661,cs),
(73,270,o),
(312,-27,o),
(625,-27,cs)
);
}
);
width = 1144;
},
{
anchors = (
{
name = bottom;
pos = (629,0);
},
{
name = cedilla;
pos = (618,0);
},
{
name = center;
pos = (926,304);
},
{
name = top;
pos = (635,1358);
},
{
name = zzcurly;
pos = (564,1341);
}
);
associatedMasterId = "70B83247-6FA0-4662-9656-C86DD2A17D3B";
attr = {
coordinates = (
700,
60,
0
);
};
layerId = "DA81EE6A-BFBA-45DA-8FA3-F847DECF3989";
name = "{700, 60, 0}";
shapes = (
{
closed = 1;
nodes = (
(702,-27,o),
(804,-15,o),
(904,5,cs),
(1019,28,o),
(1075,36,o),
(1099,36,cs),
(1116,36,o),
(1115,126,o),
(1100,126,cs),
(1075,126,o),
(1062,140,o),
(1062,165,cs),
(1062,412,ls),
(1062,455,o),
(1086,477,o),
(1134,477,cs),
(1148,477,o),
(1147,569,o),
(1134,569,c),
(1064,564,o),
(994,563,o),
(924,563,cs),
(846,563,o),
(768,564,o),
(690,569,c),
(674,569,o),
(674,477,o),
(690,477,cs),
(811,477,o),
(825,465,o),
(825,412,cs),
(825,150,ls),
(825,101,o),
(752,68,o),
(663,68,cs),
(435,68,o),
(297,338,o),
(297,699,cs),
(297,1058,o),
(448,1296,o),
(677,1296,cs),
(848,1296,o),
(960,1173,o),
(957,989,c),
(965,965,o),
(1044,975,o),
(1044,1000,cs),
(1044,1139,o),
(1029,1271,o),
(1006,1330,c),
(984,1333,o),
(953,1338,o),
(891,1352,cs),
(779,1376,o),
(723,1384,o),
(663,1384,cs),
(296,1384,o),
(37,1076,o),
(37,641,cs),
(37,260,o),
(291,-27,o),
(627,-27,cs)
);
}
);
width = 1176;
},
{
anchors = (
{
name = bottom;
pos = (909,0);
},
{
name = cedilla;
pos = (900,0);
},
{
name = center;
pos = (1346,304);
},
{
name = top;
pos = (925,1358);
},
{
name = zzcurly;
pos = (774,1341);
}
);
layerId = "9E6FDE2E-55A6-44A9-9556-F1822294BF26";
shapes = (
{
closed = 1;
nodes = (
(1022,-27,o),
(1064,-23,o),
(1236,1,cs),
(1324,14,o),
(1453,30,o),
(1494,30,cs),
(1515,30,o),
(1515,66,o),
(1492,66,cs),
(1463,66,o),
(1450,89,o),
(1450,139,cs),
(1450,352,ls),
(1450,437,o),
(1509,478,o),
(1628,478,cs),
(1654,478,o),
(1653,554,o),
(1628,554,c),
(1535,549,o),
(1439,548,o),
(1346,548,cs),
(1230,548,o),
(1114,549,o),
(998,554,c),
(974,554,o),
(976,478,o),
(998,478,cs),
(1168,478,o),
(1283,440,o),
(1283,352,cs),
(1283,177,ls),
(1283,74,o),
(1210,48,o),
(971,48,cs),
(564,48,o),
(300,301,o),
(300,691,cs),
(300,1068,o),
(538,1314,o),
(941,1314,cs),
(1215,1314,o),
(1421,1188,o),
(1421,1020,c),
(1420,1003,o),
(1497,998,o),
(1497,1023,cs),
(1497,1168,o),
(1488,1261,o),
(1465,1326,c),
(1425,1325,o),
(1378,1334,o),
(1275,1356,cs),
(1166,1377,o),
(1056,1385,o),
(976,1385,cs),
(423,1385,o),
(109,1090,o),
(109,663,cs),
(109,252,o),
(439,-27,o),
(905,-27,cs)
);
}
);
width = 1674;
},
{
anchors = (
{
name = bottom;
pos = (629,0);
},
{
name = cedilla;
pos = (618,0);
},
{
name = center;
pos = (913,304);
},
{
name = top;
pos = (635,1358);
},
{
name = zzcurly;
pos = (524,1341);
}
);
associatedMasterId = "70B83247-6FA0-4662-9656-C86DD2A17D3B";
attr = {
coordinates = (
300,
60,
0
);
};
layerId = "844F77FD-62BE-4217-9380-BAE511D94D7A";
name = "{300, 60, 0}";
shapes = (
{
closed = 1;
nodes = (
(705,-27,o),
(733,-23,o),
(851,2,cs),
(906,15,o),
(1000,31,o),
(1023,31,cs),
(1037,31,o),
(1038,75,o),
(1023,75,cs),
(1003,75,o),
(993,99,o),
(993,144,cs),
(993,361,ls),
(993,439,o),
(1031,478,o),
(1107,478,cs),
(1124,478,o),
(1123,549,o),
(1107,549,c),
(1041,544,o),
(977,543,o),
(911,543,cs),
(835,543,o),
(760,544,o),
(685,549,c),
(669,549,o),
(669,478,o),
(685,478,cs),
(823,478,o),
(868,432,o),
(868,361,cs),
(868,175,ls),
(868,74,o),
(814,41,o),
(707,41,cs),
(382,41,o),
(253,355,o),
(253,687,cs),
(253,1077,o),
(436,1320,o),
(666,1320,cs),
(839,1320,o),
(964,1192,o),
(965,1014,c),
(966,997,o),
(1019,992,o),
(1019,1020,cs),
(1019,1204,o),
(1012,1284,o),
(997,1327,c),
(980,1328,o),
(941,1338,o),
(875,1355,cs),
(808,1372,o),
(739,1385,o),
(666,1385,cs),
(337,1385,o),
(85,1075,o),
(85,668,cs),
(85,273,o),
(319,-27,o),
(624,-27,cs)
);
}
);
width = 1133;
},
{
anchors = (
{
name = bottom;
pos = (769,0);
},
{
name = cedilla;
pos = (759,0);
},
{
name = center;
pos = (1131,304);
},
{
name = top;
pos = (780,1358);
},
{
name = zzcurly;
pos = (654,1341);
}
);
layerId = "00F4936D-6309-4DEC-83B3-42806ED1A477";
shapes = (
{
closed = 1;
nodes = (
(864,-27,o),
(904,-23,o),
(1050,2,cs),
(1129,16,o),
(1236,31,o),
(1268,31,cs),
(1286,31,o),
(1286,77,o),
(1267,77,cs),
(1242,77,o),
(1230,99,o),
(1230,144,cs),
(1230,363,ls),
(1230,440,o),
(1277,478,o),
(1371,478,cs),
(1392,478,o),
(1391,554,o),
(1371,554,c),
(1291,549,o),
(1210,548,o),
(1130,548,cs),
(1034,548,o),
(938,549,o),
(842,554,c),
(822,554,o),
(823,478,o),
(842,478,cs),
(994,478,o),
(1070,440,o),
(1070,363,cs),
(1070,173,ls),
(1070,73,o),
(1011,48,o),
(836,48,cs),
(493,48,o),
(282,339,o),
(282,726,cs),
(282,1066,o),
(502,1314,o),
(805,1314,cs),
(1029,1314,o),
(1192,1188,o),
(1192,1014,c),
(1193,996,o),
(1261,993,o),
(1261,1019,cs),
(1261,1178,o),
(1252,1271,o),
(1232,1327,c),
(1203,1327,o),
(1161,1336,o),
(1077,1355,cs),
(996,1373,o),
(920,1385,o),
(836,1385,cs),
(416,1385,o),
(91,1072,o),
(91,667,cs),
(91,270,o),
(381,-27,o),
(768,-27,cs)
);
}
);
width = 1409;
}
);
metricLeft = C;
unicode = 71;
}
{
glyphname = H;
kernLeft = KO_H;
kernRight = KO_H;
layers = (
{
anchors = (
{
name = bottom;
pos = (409,0);
},
{
name = cedilla;
pos = (241,0);
},
{
name = top;
pos = (406,663);
},
{
name = zzcurly;
pos = (518,655);
}
);
layerId = master01;
shapes = (
{
closed = 1;
nodes = (
(95,-1,o),
(138,0,o),
(180,0,cs),
(222,0,o),
(264,-1,o),
(306,-3,c),
(315,-3,o),
(316,34,o),
(306,34,cs),
(248,34,o),
(218,43,o),
(218,91,cs),
(218,322,l),
(599,322,l),
(599,91,ls),
(599,43,o),
(571,34,o),
(512,34,cs),
(504,34,o),
(503,-3,o),
(512,-3,c),
(554,-1,o),
(597,0,o),
(639,0,cs),
(681,0,o),
(723,-1,o),
(765,-3,c),
(774,-3,o),
(775,34,o),
(765,34,cs),
(707,34,o),
(677,43,o),
(677,91,cs),
(677,572,ls),
(677,619,o),
(707,628,o),
(765,628,cs),
(774,628,o),
(775,666,o),
(765,666,c),
(722,664,o),
(679,663,o),
(636,663,cs),
(593,663,o),
(550,664,o),
(507,666,c),
(498,666,o),
(497,628,o),
(507,628,cs),
(569,628,o),
(599,619,o),
(599,572,cs),
(599,363,l),
(218,363,l),
(218,572,ls),
(218,619,o),
(248,628,o),
(306,628,cs),
(315,628,o),
(316,666,o),
(306,666,c),
(263,664,o),
(220,663,o),
(177,663,cs),
(134,663,o),
(91,664,o),
(48,666,c),
(39,666,o),
(38,628,o),
(48,628,cs),
(110,628,o),
(140,619,o),
(140,572,cs),
(140,91,ls),
(140,43,o),
(112,34,o),
(53,34,cs),
(45,34,o),
(44,-3,o),
(53,-3,c)
);
}
);
width = 813;
},
{
anchors = (
{
name = bottom;
pos = (410,0);
},
{
name = cedilla;
pos = (248,0);
},
{
name = top;
pos = (407,663);
},
{
name = zzcurly;
pos = (514,655);
}
);
layerId = "75918100-ED89-42A8-B0FE-888EB9C86810";
shapes = (
{
closed = 1;
nodes = (
(83,-1,o),
(128,0,o),
(174,0,cs),
(220,0,o),
(266,-1,o),
(312,-3,c),
(321,-3,o),
(321,34,o),
(312,34,cs),
(260,34,o),
(234,43,o),
(234,91,cs),
(234,319,l),
(580,319,l),
(580,91,ls),
(580,43,o),
(553,34,o),
(501,34,cs),
(491,34,o),
(491,-3,o),
(501,-3,c),
(546,-1,o),
(592,0,o),
(639,0,cs),
(685,0,o),
(731,-1,o),
(776,-3,c),
(786,-3,o),
(787,34,o),
(776,34,cs),
(725,34,o),
(699,43,o),
(699,91,cs),
(699,572,ls),
(699,619,o),
(725,629,o),
(778,629,cs),
(788,629,o),
(789,666,o),
(778,666,c),
(732,664,o),
(686,663,o),
(640,663,cs),
(594,663,o),
(548,664,o),
(502,666,c),
(492,666,o),
(492,629,o),
(502,629,cs),
(554,629,o),
(580,619,o),
(580,572,cs),
(580,365,l),
(234,365,l),
(234,572,ls),
(234,619,o),
(261,629,o),
(314,629,cs),
(323,629,o),
(324,666,o),
(314,666,c),
(268,664,o),
(221,663,o),
(175,663,cs),
(129,663,o),
(83,664,o),
(37,666,c),
(27,666,o),
(27,629,o),
(37,629,cs),
(89,629,o),
(116,619,o),
(116,572,cs),
(116,91,ls),
(116,43,o),
(89,34,o),
(37,34,cs),
(27,34,o),
(26,-3,o),
(37,-3,c)
);
}
);
width = 815;
},
{
anchors = (
{
name = bottom;
pos = (410,0);
},
{
name = cedilla;
pos = (240,0);
},
{
name = top;
pos = (407,663);
},
{
name = zzcurly;
pos = (524,655);
}
);
layerId = "6ABD9449-5E80-4451-809E-12ADEB9E9AB4";
shapes = (
{
closed = 1;
nodes = (
(101,-1,o),
(142,0,o),
(183,0,cs),
(223,0,o),
(264,-1,o),
(305,-3,c),
(314,-3,o),
(314,31,o),
(305,31,cs),
(244,31,o),
(214,40,o),
(214,88,cs),
(214,323,l),
(607,323,l),
(607,88,ls),
(607,40,o),
(577,31,o),
(517,31,cs),
(509,31,o),
(508,-3,o),
(517,-3,c),
(558,-1,o),
(599,0,o),
(640,0,cs),
(680,0,o),
(721,-1,o),
(762,-3,c),
(771,-3,o),
(771,31,o),
(762,31,cs),
(701,31,o),
(671,40,o),
(671,88,cs),
(671,575,ls),
(671,622,o),
(701,631,o),
(761,631,cs),
(770,631,o),
(771,666,o),
(761,666,c),
(719,664,o),
(677,663,o),
(635,663,cs),
(593,663,o),
(551,664,o),
(509,666,c),
(500,666,o),
(500,631,o),
(509,631,cs),
(574,631,o),
(607,622,o),
(607,575,cs),
(607,362,l),
(214,362,l),
(214,575,ls),
(214,622,o),
(244,631,o),
(304,631,cs),
(313,631,o),
(314,666,o),
(304,666,c),
(262,664,o),
(220,663,o),
(178,663,cs),
(136,663,o),
(94,664,o),
(52,666,c),
(43,666,o),
(43,631,o),
(52,631,cs),
(117,631,o),
(149,622,o),
(149,575,cs),
(149,88,ls),
(149,40,o),
(119,31,o),
(60,31,cs),
(51,31,o),
(51,-3,o),
(60,-3,c)
);
}
);
width = 814;
},
{
anchors = (
{
name = bottom;
pos = (351,0);
},
{
name = cedilla;
pos = (210,0);
},
{
name = top;
pos = (349,663);
},
{
name = zzcurly;
pos = (453,655);
}
);
layerId = "70B83247-6FA0-4662-9656-C86DD2A17D3B";
shapes = (
{
closed = 1;
nodes = (
(81,-1,o),
(117,0,o),
(154,0,cs),
(191,0,o),
(228,-1,o),
(265,-3,c),
(273,-3,o),
(273,34,o),
(265,34,cs),
(217,34,o),
(193,43,o),
(193,91,cs),
(193,322,l),
(507,322,l),
(507,91,ls),
(507,43,o),
(483,34,o),
(435,34,cs),
(427,34,o),
(427,-3,o),
(435,-3,c),
(472,-1,o),
(509,0,o),
(546,0,cs),
(583,0,o),
(620,-1,o),
(656,-3,c),
(664,-3,o),
(665,34,o),
(656,34,cs),
(609,34,o),
(585,43,o),
(585,91,cs),
(585,572,ls),
(585,619,o),
(609,628,o),
(657,628,cs),
(665,628,o),
(666,666,o),
(657,666,c),
(620,664,o),
(582,663,o),
(545,663,cs),
(507,663,o),
(470,664,o),
(432,666,c),
(424,666,o),
(424,628,o),
(432,628,cs),
(482,628,o),
(507,619,o),
(507,572,cs),
(507,363,l),
(193,363,l),
(193,572,ls),
(193,619,o),
(217,628,o),
(265,628,cs),
(273,628,o),
(274,666,o),
(265,666,c),
(228,664,o),
(191,663,o),
(153,663,cs),
(115,663,o),
(78,664,o),
(41,666,c),
(33,666,o),
(32,628,o),
(41,628,cs),
(90,628,o),
(115,619,o),
(115,572,cs),
(115,91,ls),
(115,43,o),
(91,34,o),
(44,34,cs),
(36,34,o),
(35,-3,o),
(44,-3,c)
);
}
);
width = 698;
},
{
anchors = (
{
name = bottom;
pos = (465,0);
},
{
name = cedilla;
pos = (271,0);
},
{
name = top;
pos = (462,663);
},
{
name = zzcurly;
pos = (580,655);
}
);
layerId = "9E6FDE2E-55A6-44A9-9556-F1822294BF26";
shapes = (
{
closed = 1;
nodes = (
(109,-1,o),
(156,0,o),
(204,0,cs),
(251,0,o),
(298,-1,o),
(346,-3,c),
(356,-3,o),
(356,34,o),
(346,34,cs),
(276,34,o),
(242,43,o),
(242,91,cs),
(242,322,l),
(690,322,l),
(690,91,ls),
(690,43,o),
(656,34,o),
(588,34,cs),
(578,34,o),
(577,-3,o),
(588,-3,c),
(635,-1,o),
(682,0,o),
(730,0,cs),
(777,0,o),
(825,-1,o),
(872,-3,c),
(882,-3,o),
(882,34,o),
(872,34,cs),
(802,34,o),
(768,43,o),
(768,91,cs),
(768,572,ls),
(768,619,o),
(802,628,o),
(871,628,cs),
(881,628,o),
(881,666,o),
(871,666,c),
(823,664,o),
(774,663,o),
(726,663,cs),
(677,663,o),
(629,664,o),
(580,666,c),
(569,666,o),
(568,628,o),
(580,628,cs),
(653,628,o),
(690,619,o),
(690,572,cs),
(690,363,l),
(242,363,l),
(242,572,ls),
(242,619,o),
(276,628,o),
(345,628,cs),
(355,628,o),
(355,666,o),
(345,666,c),
(297,664,o),
(248,663,o),
(199,663,cs),
(151,663,o),
(102,664,o),
(53,666,c),
(43,666,o),
(42,628,o),
(53,628,cs),
(127,628,o),
(164,619,o),
(164,572,cs),
(164,91,ls),
(164,43,o),
(130,34,o),
(61,34,cs),
(51,34,o),
(51,-3,o),
(61,-3,c)
);
}
);
width = 924;
},
{
anchors = (
{
name = bottom;
pos = (409,0);
},
{
name = cedilla;
pos = (241,0);
},
{
name = top;
pos = (406,663);
},
{
name = zzcurly;
pos = (518,655);
}
);
layerId = "00F4936D-6309-4DEC-83B3-42806ED1A477";
shapes = (
{
closed = 1;
nodes = (
(95,-1,o),
(138,0,o),
(180,0,cs),
(222,0,o),
(264,-1,o),
(306,-3,c),
(315,-3,o),
(316,34,o),
(306,34,cs),
(248,34,o),
(218,43,o),
(218,91,cs),
(218,322,l),
(599,322,l),
(599,91,ls),
(599,43,o),
(571,34,o),
(512,34,cs),
(504,34,o),
(503,-3,o),
(512,-3,c),
(554,-1,o),
(597,0,o),
(639,0,cs),
(681,0,o),
(723,-1,o),
(765,-3,c),
(774,-3,o),
(775,34,o),
(765,34,cs),
(707,34,o),
(677,43,o),
(677,91,cs),
(677,572,ls),
(677,619,o),
(707,628,o),
(765,628,cs),
(774,628,o),
(775,666,o),
(765,666,c),
(722,664,o),
(679,663,o),
(636,663,cs),
(593,663,o),
(550,664,o),
(507,666,c),
(498,666,o),
(497,628,o),
(507,628,cs),
(569,628,o),
(599,619,o),
(599,572,cs),
(599,363,l),
(218,363,l),
(218,572,ls),
(218,619,o),
(248,628,o),
(306,628,cs),
(315,628,o),
(316,666,o),
(306,666,c),
(263,664,o),
(220,663,o),
(177,663,cs),
(134,663,o),
(91,664,o),
(48,666,c),
(39,666,o),
(38,628,o),
(48,628,cs),
(110,628,o),
(140,619,o),
(140,572,cs),
(140,91,ls),
(140,43,o),
(112,34,o),
(53,34,cs),
(45,34,o),
(44,-3,o),
(53,-3,c)
);
}
);
width = 813;
}
);
metricLeft = B;
unicode = 72;
userData = {
KernOnName = H;
KernOnSpecialSpacing = {
R = superiors;
};
};
}
{
glyphname = I;
kernLeft = B;
kernRight = H;
layers = (
{
anchors = (
{
name = bottom;
pos = (350,0);
},
{
name = center;
pos = (348,701);
},
{
name = ogonek;
pos = (523,0);
},
{
name = ogonek_above;
pos = (410,1330);
},
{
name = top;
pos = (350,1358);
},
{
name = zzcurly;
pos = (254,1341);
}
);
hints = (
{
horizontal = 1;
options = 4;
origin = (0,21);
target = (0,27);
type = TTStem;
},
{
horizontal = 1;
options = 4;
origin = (0,2);
target = (0,8);
type = TTStem;
},
{
horizontal = 1;
options = 4;
origin = (0,27);
target = (0,15);
type = TTShift;
},
{
horizontal = 1;
options = 4;
origin = (0,8);
target = (0,34);
type = TTShift;
}
);
layerId = master01;
shapes = (
{
closed = 1;
nodes = (
(179,-2,o),
(266,0,o),
(352,0,cs),
(438,0,o),
(525,-2,o),
(611,-7,c),
(629,-7,o),
(630,69,o),
(611,69,cs),
(491,69,o),
(431,88,o),
(431,186,cs),
(431,1172,ls),
(431,1268,o),
(491,1287,o),
(611,1287,cs),
(629,1287,o),
(630,1363,o),
(611,1363,c),
(523,1359,o),
(435,1358,o),
(347,1358,cs),
(258,1358,o),
(170,1359,o),
(82,1363,c),
(63,1363,o),
(62,1287,o),
(82,1287,cs),
(208,1287,o),
(271,1268,o),
(271,1172,cs),
(271,186,ls),
(271,88,o),
(212,69,o),
(93,69,cs),
(75,69,o),
(74,-7,o),
(93,-7,c)
);
}
);
width = 680;
},
{
anchors = (
{
name = bottom;
pos = (343,0);
},
{
name = center;
pos = (341,701);
},
{
name = ogonek;
pos = (526,0);
},
{
name = ogonek_above;
pos = (413,1330);
},
{
name = top;
pos = (343,1358);
},
{
name = zzcurly;
pos = (267,1341);
}
);
layerId = "75918100-ED89-42A8-B0FE-888EB9C86810";
shapes = (
{
closed = 1;
nodes = (
(163,-2,o),
(257,0,o),
(351,0,cs),
(444,0,o),
(538,-2,o),
(632,-6,c),
(651,-6,o),
(652,86,o),
(632,86,cs),
(527,86,o),
(474,105,o),
(474,203,cs),
(474,1153,ls),
(474,1251,o),
(528,1270,o),
(636,1270,cs),
(655,1270,o),
(656,1364,o),
(636,1364,c),
(542,1359,o),
(447,1358,o),
(353,1358,cs),
(258,1358,o),
(164,1359,o),
(69,1364,c),
(50,1364,o),
(49,1270,o),
(69,1270,cs),
(177,1270,o),
(231,1251,o),
(231,1153,cs),
(231,203,ls),
(231,105,o),
(177,86,o),
(69,86,cs),
(49,86,o),
(48,-6,o),
(69,-6,c)
);
}
);
width = 695;
},
{
anchors = (
{
name = bottom;
pos = (355,0);
},
{
name = center;
pos = (353,701);
},
{
name = ogonek;
pos = (525,0);
},
{
name = ogonek_above;
pos = (402,1330);
},
{
name = top;
pos = (355,1358);
},
{
name = zzcurly;
pos = (255,1341);
}
);
layerId = "6ABD9449-5E80-4451-809E-12ADEB9E9AB4";
shapes = (
{
closed = 1;
nodes = (
(188,-2,o),
(272,0,o),
(356,0,cs),
(439,0,o),
(523,-2,o),
(607,-7,c),
(624,-7,o),
(625,63,o),
(607,63,cs),
(482,63,o),
(419,82,o),
(419,180,cs),
(419,1178,ls),
(419,1274,o),
(481,1293,o),
(605,1293,cs),
(623,1293,o),
(624,1363,o),
(605,1363,c),
(519,1359,o),
(433,1358,o),
(347,1358,cs),
(261,1358,o),
(175,1359,o),
(89,1363,c),
(70,1363,o),
(69,1293,o),
(89,1293,cs),
(221,1293,o),
(287,1274,o),
(287,1178,cs),
(287,180,ls),
(287,82,o),
(226,63,o),
(104,63,cs),
(86,63,o),
(85,-7,o),
(104,-7,c)
);
}
);
width = 681;
},
{
anchors = (
{
name = bottom;
pos = (285,0);
},
{
name = center;
pos = (283,701);
},
{
name = ogonek;
pos = (426,0);
},
{
name = ogonek_above;
pos = (337,1330);
},
{
name = top;
pos = (285,1358);
},
{
name = zzcurly;
pos = (214,1341);
}
);
layerId = "70B83247-6FA0-4662-9656-C86DD2A17D3B";
shapes = (
{
closed = 1;
nodes = (
(145,-2,o),
(217,0,o),
(288,0,cs),
(359,0,o),
(431,-2,o),
(502,-7,c),
(517,-7,o),
(517,69,o),
(502,69,cs),
(411,69,o),
(365,88,o),
(365,186,cs),
(365,1161,ls),
(365,1258,o),
(411,1277,o),
(503,1277,cs),
(517,1277,o),
(519,1363,o),
(503,1363,c),
(431,1359,o),
(358,1358,o),
(286,1358,cs),
(214,1358,o),
(141,1359,o),
(69,1363,c),
(53,1363,o),
(53,1277,o),
(69,1277,cs),
(164,1277,o),
(212,1258,o),
(212,1161,cs),
(212,186,ls),
(212,88,o),
(166,69,o),
(74,69,cs),
(59,69,o),
(59,-7,o),
(74,-7,c)
);
}
);
width = 561;
},
{
anchors = (
{
name = bottom;
pos = (417,0);
},
{
name = center;
pos = (415,701);
},
{
name = ogonek;
pos = (622,0);
},
{
name = ogonek_above;
pos = (485,1330);
},
{
name = top;
pos = (417,1358);
},
{
name = zzcurly;
pos = (296,1341);
}
);
layerId = "9E6FDE2E-55A6-44A9-9556-F1822294BF26";
shapes = (
{
closed = 1;
nodes = (
(215,-2,o),
(317,0,o),
(418,0,cs),
(519,0,o),
(621,-2,o),
(722,-7,c),
(743,-7,o),
(745,69,o),
(722,69,cs),
(573,69,o),
(499,88,o),
(499,186,cs),
(499,1183,ls),
(499,1278,o),
(573,1297,o),
(721,1297,cs),
(743,1297,o),
(743,1363,o),
(721,1363,c),
(617,1359,o),
(514,1358,o),
(410,1358,cs),
(304,1358,o),
(201,1359,o),
(97,1363,c),
(75,1363,o),
(73,1297,o),
(97,1297,cs),
(254,1297,o),
(332,1278,o),
(332,1183,cs),
(332,186,ls),
(332,88,o),
(260,69,o),
(114,69,cs),
(93,69,o),
(91,-7,o),
(114,-7,c)
);
}
);
width = 805;
},
{
anchors = (
{
name = bottom;
pos = (350,0);
},
{
name = center;
pos = (348,701);
},
{
name = ogonek;
pos = (523,0);
},
{
name = ogonek_above;
pos = (410,1330);
},
{
name = top;
pos = (350,1358);
},
{
name = zzcurly;
pos = (254,1341);
}
);
layerId = "00F4936D-6309-4DEC-83B3-42806ED1A477";
shapes = (
{
closed = 1;
nodes = (
(179,-2,o),
(266,0,o),
(352,0,cs),
(438,0,o),
(525,-2,o),
(611,-7,c),
(629,-7,o),
(630,69,o),
(611,69,cs),
(491,69,o),
(431,88,o),
(431,186,cs),
(431,1172,ls),
(431,1268,o),
(491,1287,o),
(611,1287,cs),
(629,1287,o),
(630,1363,o),
(611,1363,c),
(523,1359,o),
(435,1358,o),
(347,1358,cs),
(258,1358,o),
(170,1359,o),
(82,1363,c),
(63,1363,o),
(62,1287,o),
(82,1287,cs),
(208,1287,o),
(271,1268,o),
(271,1172,cs),
(271,186,ls),
(271,88,o),
(212,69,o),
(93,69,cs),
(75,69,o),
(74,-7,o),
(93,-7,c)
);
}
);
width = 680;
}
);
metricLeft = B;
metricRight = H;
unicode = 73;
}
{
glyphname = K;
kernLeft = KO_H;
kernRight = KO_K;
layers = (
{
anchors = (
{
name = bottom;
pos = (351,0);
},
{
name = center;
pos = (176,521);
},
{
name = top;
pos = (346,663);
},
{
name = zzcurly;
pos = (425,655);
}
);
layerId = master01;
shapes = (
{
closed = 1;
nodes = (
(95,-1,o),
(137,0,o),
(179,0,cs),
(222,0,o),
(264,-1,o),
(306,-3,c),
(316,-3,o),
(315,34,o),
(306,34,cs),
(248,34,o),
(218,53,o),
(218,91,cs),
(218,315,l),
(227,315,ls),
(248,315,o),
(278,295,o),
(302,263,cs),
(433,91,ls),
(453,64,o),
(453,34,o),
(399,34,cs),
(389,34,o),
(389,-3,o),
(399,-3,c),
(442,-1,o),
(486,0,o),
(529,0,cs),
(573,0,o),
(617,-1,o),
(660,-3,c),
(670,-3,o),
(670,34,o),
(660,34,cs),
(605,34,o),
(570,49,o),
(540,84,cs),
(318,358,ls),
(313,365,o),
(313,371,o),
(318,377,cs),
(491,586,ls),
(519,620,o),
(539,628,o),
(591,628,cs),
(601,628,o),
(600,666,o),
(591,666,c),
(562,664,o),
(532,663,o),
(503,663,cs),
(473,663,o),
(444,664,o),
(414,666,c),
(404,666,o),
(405,628,o),
(414,628,cs),
(454,628,o),
(454,609,o),
(426,574,cs),
(284,396,ls),
(272,380,o),
(244,348,o),
(225,348,cs),
(218,348,l),
(218,572,ls),
(218,610,o),
(249,628,o),
(310,628,cs),
(320,628,o),
(319,666,o),
(310,666,c),
(267,664,o),
(223,663,o),
(179,663,cs),
(135,663,o),
(92,664,o),
(48,666,c),
(38,666,o),
(39,628,o),
(48,628,cs),
(110,628,o),
(140,610,o),
(140,572,cs),
(140,91,ls),
(140,53,o),
(111,34,o),
(52,34,cs),
(44,34,o),
(44,-3,o),
(52,-3,c)
);
}
);
width = 660;
},
{
anchors = (
{
name = bottom;
pos = (348,0);
},
{
name = center;
pos = (182,521);
},
{
name = top;
pos = (353,663);
},
{
name = zzcurly;
pos = (431,655);
}
);
layerId = "75918100-ED89-42A8-B0FE-888EB9C86810";
shapes = (
{
closed = 1;
nodes = (
(87,-1,o),
(133,0,o),
(179,0,cs),
(224,0,o),
(270,-1,o),
(316,-3,c),
(325,-3,o),
(324,42,o),
(316,42,cs),
(265,42,o),
(239,61,o),
(239,99,cs),
(239,292,l),
(251,292,ls),
(258,292,o),
(273,280,o),
(293,256,cs),
(419,99,ls),
(448,62,o),
(448,42,o),
(398,42,cs),
(388,42,o),
(388,-3,o),
(398,-3,c),
(444,-1,o),
(491,0,o),
(539,0,cs),
(586,0,o),
(632,-1,o),
(679,-3,c),
(690,-3,o),
(689,42,o),
(679,42,cs),
(628,42,o),
(594,57,o),
(564,93,cs),
(339,354,ls),
(331,364,o),
(331,377,o),
(339,387,cs),
(504,579,ls),
(532,611,o),
(553,620,o),
(608,620,cs),
(618,620,o),
(618,666,o),
(608,666,c),
(576,664,o),
(544,663,o),
(512,663,cs),
(480,663,o),
(448,664,o),
(416,666,c),
(406,666,o),
(407,620,o),
(416,620,cs),
(454,620,o),
(454,604,o),
(420,563,cs),
(284,403,ls),
(269,385,o),
(257,376,o),
(248,376,cs),
(239,376,l),
(239,563,ls),
(239,601,o),
(265,620,o),
(317,620,cs),
(327,620,o),
(327,666,o),
(317,666,c),
(271,664,o),
(224,663,o),
(177,663,cs),
(130,663,o),
(84,664,o),
(37,666,c),
(26,666,o),
(27,620,o),
(37,620,cs),
(93,620,o),
(121,601,o),
(121,563,cs),
(121,99,ls),
(121,61,o),
(94,42,o),
(42,42,cs),
(31,42,o),
(32,-3,o),
(42,-3,c)
);
}
);
width = 678;
},
{
anchors = (
{
name = bottom;
pos = (353,0);
},
{
name = center;
pos = (182,521);
},
{
name = top;
pos = (344,663);
},
{
name = zzcurly;
pos = (426,655);
}
);
layerId = "6ABD9449-5E80-4451-809E-12ADEB9E9AB4";
shapes = (
{
closed = 1;
nodes = (
(97,-1,o),
(139,0,o),
(180,0,cs),
(221,0,o),
(262,-1,o),
(303,-3,c),
(313,-3,o),
(312,31,o),
(303,31,cs),
(242,31,o),
(212,50,o),
(212,88,cs),
(212,318,l),
(219,318,ls),
(245,318,o),
(278,302,o),
(305,266,cs),
(439,88,ls),
(455,66,o),
(455,31,o),
(399,31,cs),
(389,31,o),
(390,-3,o),
(399,-3,c),
(442,-1,o),
(484,0,o),
(527,0,cs),
(570,0,o),
(612,-1,o),
(655,-3,c),
(664,-3,o),
(663,31,o),
(655,31,cs),
(598,31,o),
(561,46,o),
(533,82,cs),
(312,359,ls),
(307,365,o),
(307,368,o),
(312,375,cs),
(488,589,ls),
(515,623,o),
(535,631,o),
(586,631,cs),
(595,631,o),
(595,666,o),
(586,666,c),
(557,664,o),
(528,663,o),
(500,663,cs),
(471,663,o),
(442,664,o),
(413,666,c),
(404,666,o),
(405,631,o),
(413,631,cs),
(454,631,o),
(454,610,o),
(428,577,cs),
(283,393,ls),
(271,378,o),
(240,343,o),
(217,343,cs),
(212,343,l),
(212,575,ls),
(212,613,o),
(244,631,o),
(308,631,cs),
(317,631,o),
(317,666,o),
(308,666,c),
(266,664,o),
(223,663,o),
(180,663,cs),
(137,663,o),
(95,664,o),
(52,666,c),
(43,666,o),
(43,631,o),
(52,631,cs),
(115,631,o),
(147,613,o),
(147,575,cs),
(147,88,ls),
(147,50,o),
(117,31,o),
(56,31,cs),
(48,31,o),
(48,-3,o),
(56,-3,c)
);
}
);
width = 654;
},
{
anchors = (
{
name = bottom;
pos = (285,0);
},
{
name = center;
pos = (147,521);
},
{
name = top;
pos = (284,663);
},
{
name = zzcurly;
pos = (351,655);
}
);
layerId = "70B83247-6FA0-4662-9656-C86DD2A17D3B";
shapes = (
{
closed = 1;
nodes = (
(79,-1,o),
(114,0,o),
(149,0,cs),
(184,0,o),
(219,-1,o),
(254,-3,c),
(260,-3,o),
(260,34,o),
(254,34,cs),
(209,34,o),
(187,53,o),
(187,91,cs),
(187,315,l),
(194,315,ls),
(207,315,o),
(224,293,o),
(244,261,cs),
(348,93,ls),
(366,63,o),
(366,34,o),
(324,34,cs),
(316,34,o),
(317,-3,o),
(324,-3,c),
(360,-1,o),
(396,0,o),
(432,0,cs),
(468,0,o),
(504,-1,o),
(540,-3,c),
(548,-3,o),
(547,34,o),
(540,34,cs),
(498,34,o),
(470,50,o),
(445,87,cs),
(266,358,ls),
(261,365,o),
(261,372,o),
(266,379,cs),
(403,584,ls),
(426,620,o),
(443,628,o),
(484,628,cs),
(491,628,o),
(491,666,o),
(484,666,c),
(459,664,o),
(435,663,o),
(410,663,cs),
(386,663,o),
(361,664,o),
(337,666,c),
(330,666,o),
(330,628,o),
(337,628,cs),
(369,628,o),
(369,609,o),
(344,571,cs),
(234,398,ls),
(224,383,o),
(201,348,o),
(192,348,cs),
(187,348,l),
(187,569,ls),
(187,609,o),
(210,628,o),
(256,628,cs),
(263,628,o),
(263,666,o),
(256,666,c),
(220,664,o),
(184,663,o),
(148,663,cs),
(112,663,o),
(76,664,o),
(41,666,c),
(33,666,o),
(33,628,o),
(41,628,cs),
(88,628,o),
(112,610,o),
(112,569,cs),
(112,91,ls),
(112,53,o),
(89,34,o),
(44,34,cs),
(36,34,o),
(37,-3,o),
(44,-3,c)
);
}
);
width = 539;
},
{
anchors = (
{
name = bottom;
pos = (415,0);
},
{
name = center;
pos = (203,521);
},
{
name = top;
pos = (406,663);
},
{
name = zzcurly;
pos = (497,655);
}
);
layerId = "9E6FDE2E-55A6-44A9-9556-F1822294BF26";
shapes = (
{
closed = 1;
nodes = (
(109,-1,o),
(158,0,o),
(208,0,cs),
(258,0,o),
(307,-1,o),
(357,-3,c),
(369,-3,o),
(368,34,o),
(357,34,cs),
(284,34,o),
(248,53,o),
(248,91,cs),
(248,315,l),
(257,315,ls),
(287,315,o),
(329,297,o),
(358,265,cs),
(517,88,ls),
(538,64,o),
(538,34,o),
(471,34,cs),
(460,34,o),
(460,-3,o),
(471,-3,c),
(519,-1,o),
(566,0,o),
(613,0,cs),
(660,0,o),
(707,-1,o),
(755,-3,c),
(766,-3,o),
(766,34,o),
(755,34,cs),
(702,34,o),
(666,48,o),
(633,82,cs),
(367,360,ls),
(362,365,o),
(362,368,o),
(367,373,cs),
(578,589,ls),
(609,621,o),
(632,628,o),
(696,628,cs),
(709,628,o),
(708,666,o),
(696,666,c),
(662,664,o),
(627,663,o),
(593,663,cs),
(558,663,o),
(524,664,o),
(488,666,c),
(477,666,o),
(478,628,o),
(488,628,cs),
(535,628,o),
(535,608,o),
(506,577,cs),
(333,391,ls),
(316,373,o),
(284,348,o),
(256,348,cs),
(248,348,l),
(248,575,ls),
(248,610,o),
(287,628,o),
(363,628,cs),
(374,628,o),
(373,666,o),
(363,666,c),
(312,664,o),
(260,663,o),
(209,663,cs),
(156,663,o),
(106,664,o),
(53,666,c),
(42,666,o),
(43,628,o),
(53,628,cs),
(130,628,o),
(167,610,o),
(167,575,cs),
(167,91,ls),
(167,53,o),
(131,34,o),
(59,34,cs),
(49,34,o),
(48,-3,o),
(59,-3,c)
);
}
);
width = 754;
},
{
anchors = (
{
name = bottom;
pos = (351,0);
},
{
name = center;
pos = (176,521);
},
{
name = top;
pos = (346,663);
},
{
name = zzcurly;
pos = (425,655);
}
);
layerId = "00F4936D-6309-4DEC-83B3-42806ED1A477";
shapes = (
{
closed = 1;
nodes = (
(95,-1,o),
(137,0,o),
(179,0,cs),
(222,0,o),
(264,-1,o),
(306,-3,c),
(316,-3,o),
(315,34,o),
(306,34,cs),
(248,34,o),
(218,53,o),
(218,91,cs),
(218,315,l),
(227,315,ls),
(248,315,o),
(278,295,o),
(302,263,cs),
(433,91,ls),
(453,64,o),
(453,34,o),
(399,34,cs),
(389,34,o),
(389,-3,o),
(399,-3,c),
(442,-1,o),
(486,0,o),
(529,0,cs),
(573,0,o),
(617,-1,o),
(660,-3,c),
(670,-3,o),
(670,34,o),
(660,34,cs),
(605,34,o),
(570,49,o),
(540,84,cs),
(318,358,ls),
(313,365,o),
(313,371,o),
(318,377,cs),
(491,586,ls),
(519,620,o),
(539,628,o),
(591,628,cs),
(601,628,o),
(600,666,o),
(591,666,c),
(562,664,o),
(532,663,o),
(503,663,cs),
(473,663,o),
(444,664,o),
(414,666,c),
(404,666,o),
(405,628,o),
(414,628,cs),
(454,628,o),
(454,609,o),
(426,574,cs),
(284,396,ls),
(272,380,o),
(244,348,o),
(225,348,cs),
(218,348,l),
(218,572,ls),
(218,610,o),
(249,628,o),
(310,628,cs),
(320,628,o),
(319,666,o),
(310,666,c),
(267,664,o),
(223,663,o),
(179,663,cs),
(135,663,o),
(92,664,o),
(48,666,c),
(38,666,o),
(39,628,o),
(48,628,cs),
(110,628,o),
(140,610,o),
(140,572,cs),
(140,91,ls),
(140,53,o),
(111,34,o),
(52,34,cs),
(44,34,o),
(44,-3,o),
(52,-3,c)
);
}
);
width = 660;
}
);
metricLeft = B;
unicode = 75;
userData = {
KernOnName = K;
KernOnSpecialSpacing = {
};
};
}
{
glyphname = L;
kernLeft = KO_H;
kernRight = KO_L;
layers = (
{
anchors = (
{
name = bottom;
pos = (345,0);
},
{
name = cedilla;
pos = (342,0);
},
{
name = center;
pos = (180,516);
},
{
name = top;
pos = (179,663);
},
{
name = zzcurly;
pos = (132,655);
}
);
layerId = master01;
shapes = (
{
closed = 1;
nodes = (
(96,-1,o),
(137,0,o),
(179,0,cs),
(315,0,o),
(450,-3,o),
(586,-3,cs),
(617,-3,o),
(625,0,o),
(625,13,cs),
(625,185,ls),
(625,194,o),
(587,194,o),
(587,185,cs),
(587,87,o),
(547,41,o),
(458,37,cs),
(305,30,l),
(245,30,o),
(218,66,o),
(218,129,cs),
(218,572,ls),
(218,619,o),
(247,628,o),
(303,628,cs),
(312,628,o),
(313,666,o),
(303,666,c),
(261,664,o),
(218,663,o),
(176,663,cs),
(133,663,o),
(91,664,o),
(48,666,c),
(39,666,o),
(38,628,o),
(48,628,cs),
(110,628,o),
(140,619,o),
(140,572,cs),
(140,86,ls),
(140,43,o),
(112,34,o),
(54,34,cs),
(46,34,o),
(45,-3,o),
(54,-3,c)
);
}
);
width = 664;
},
{
anchors = (
{
name = bottom;
pos = (351,0);
},
{
name = cedilla;
pos = (356,0);
},
{
name = center;
pos = (185,516);
},
{
name = top;
pos = (175,663);
},
{
name = zzcurly;
pos = (133,655);
}
);
guides = (
{
angle = 182.0763;
pos = (795,84);
}
);
layerId = "75918100-ED89-42A8-B0FE-888EB9C86810";
shapes = (
{
closed = 1;
nodes = (
(90,-1,o),
(138,0,o),
(187,0,cs),
(315,0,o),
(444,-3,o),
(572,-3,cs),
(618,-3,o),
(629,3,o),
(629,28,cs),
(629,191,ls),
(629,203,o),
(581,203,o),
(581,191,cs),
(581,93,o),
(546,47,o),
(470,44,cs),
(320,39,l),
(264,39,o),
(239,74,o),
(239,137,cs),
(239,563,ls),
(239,611,o),
(265,620,o),
(316,620,cs),
(324,620,o),
(325,666,o),
(316,666,c),
(269,664,o),
(223,663,o),
(176,663,cs),
(129,663,o),
(83,664,o),
(37,666,c),
(27,666,o),
(26,620,o),
(37,620,cs),
(93,620,o),
(121,611,o),
(121,563,cs),
(121,104,ls),
(121,51,o),
(94,42,o),
(42,42,cs),
(32,42,o),
(31,-3,o),
(42,-3,c)
);
}
);
width = 661;
},
{
anchors = (
{
name = bottom;
pos = (343,0);
},
{
name = cedilla;
pos = (338,0);
},
{
name = center;
pos = (181,516);
},
{
name = top;
pos = (180,663);
},
{
name = zzcurly;
pos = (134,655);
}
);
layerId = "6ABD9449-5E80-4451-809E-12ADEB9E9AB4";
shapes = (
{
closed = 1;
nodes = (
(100,-1,o),
(140,0,o),
(181,0,cs),
(318,0,o),
(454,-3,o),
(591,-3,cs),
(617,-3,o),
(624,0,o),
(624,13,cs),
(624,183,ls),
(624,191,o),
(590,191,o),
(590,183,cs),
(590,85,o),
(547,38,o),
(454,34,cs),
(302,28,l),
(240,28,o),
(212,63,o),
(212,126,cs),
(212,575,ls),
(212,622,o),
(241,631,o),
(300,631,cs),
(308,631,o),
(309,666,o),
(300,666,c),
(259,664,o),
(217,663,o),
(176,663,cs),
(134,663,o),
(93,664,o),
(52,666,c),
(43,666,o),
(43,631,o),
(52,631,cs),
(115,631,o),
(147,622,o),
(147,575,cs),
(147,81,ls),
(147,40,o),
(118,31,o),
(59,31,cs),
(51,31,o),
(50,-3,o),
(59,-3,c)
);
}
);
width = 667;
},
{
anchors = (
{
name = bottom;
pos = (282,0);
},
{
name = cedilla;
pos = (283,0);
},
{
name = center;
pos = (152,516);
},
{
name = top;
pos = (148,663);
},
{
name = zzcurly;
pos = (111,655);
}
);
layerId = "70B83247-6FA0-4662-9656-C86DD2A17D3B";
shapes = (
{
closed = 1;
nodes = (
(80,-1,o),
(114,0,o),
(149,0,cs),
(256,0,o),
(363,-3,o),
(470,-3,cs),
(500,-3,o),
(507,1,o),
(507,18,cs),
(507,187,ls),
(507,197,o),
(473,197,o),
(473,187,cs),
(473,86,o),
(443,40,o),
(376,36,cs),
(256,30,l),
(208,30,o),
(187,68,o),
(187,131,cs),
(187,572,ls),
(187,619,o),
(208,628,o),
(252,628,cs),
(258,628,o),
(259,666,o),
(252,666,c),
(216,664,o),
(181,663,o),
(146,663,cs),
(111,663,o),
(76,664,o),
(41,666,c),
(33,666,o),
(33,628,o),
(41,628,cs),
(88,628,o),
(112,619,o),
(112,572,cs),
(112,89,ls),
(112,43,o),
(90,34,o),
(45,34,cs),
(38,34,o),
(38,-3,o),
(45,-3,c)
);
}
);
width = 540;
},
{
anchors = (
{
name = bottom;
pos = (405,0);
},
{
name = cedilla;
pos = (399,0);
},
{
name = center;
pos = (207,516);
},
{
name = top;
pos = (208,663);
},
{
name = zzcurly;
pos = (151,655);
}
);
layerId = "9E6FDE2E-55A6-44A9-9556-F1822294BF26";
shapes = (
{
closed = 1;
nodes = (
(110,-1,o),
(159,0,o),
(207,0,cs),
(372,0,o),
(462,-3,o),
(626,-3,cs),
(660,-3,o),
(668,-1,o),
(668,9,cs),
(668,183,ls),
(668,191,o),
(626,192,o),
(626,183,cs),
(626,87,o),
(585,42,o),
(495,37,cs),
(353,30,l),
(280,30,o),
(248,63,o),
(248,126,cs),
(248,573,ls),
(248,619,o),
(283,628,o),
(353,628,cs),
(364,628,o),
(364,666,o),
(353,666,c),
(303,664,o),
(254,663,o),
(204,663,cs),
(153,663,o),
(103,664,o),
(53,666,c),
(43,666,o),
(42,628,o),
(53,628,cs),
(129,628,o),
(167,619,o),
(167,573,cs),
(167,83,ls),
(167,43,o),
(131,34,o),
(62,34,cs),
(51,34,o),
(50,-3,o),
(62,-3,c)
);
}
);
width = 711;
},
{
anchors = (
{
name = bottom;
pos = (345,0);
},
{
name = cedilla;
pos = (342,0);
},
{
name = center;
pos = (180,516);
},
{
name = top;
pos = (179,663);
},
{
name = zzcurly;
pos = (132,655);
}
);
layerId = "00F4936D-6309-4DEC-83B3-42806ED1A477";
shapes = (
{
closed = 1;
nodes = (
(96,-1,o),
(137,0,o),
(179,0,cs),
(315,0,o),
(450,-3,o),
(586,-3,cs),
(617,-3,o),
(625,0,o),
(625,13,cs),
(625,185,ls),
(625,194,o),
(587,194,o),
(587,185,cs),
(587,87,o),
(547,41,o),
(458,37,cs),
(305,30,l),
(245,30,o),
(218,66,o),
(218,129,cs),
(218,572,ls),
(218,619,o),
(247,628,o),
(303,628,cs),
(312,628,o),
(313,666,o),
(303,666,c),
(261,664,o),
(218,663,o),
(176,663,cs),
(133,663,o),
(91,664,o),
(48,666,c),
(39,666,o),
(38,628,o),
(48,628,cs),
(110,628,o),
(140,619,o),
(140,572,cs),
(140,86,ls),
(140,43,o),
(112,34,o),
(54,34,cs),
(46,34,o),
(45,-3,o),
(54,-3,c)
);
}
);
width = 664;
}
);
metricLeft = B;
unicode = 76;
}
{
glyphname = M;
kernLeft = M;
kernRight = M;
layers = (
{
anchors = (
{
name = bottom;
pos = (875,0);
},
{
name = top;
pos = (924,1358);
},
{
name = zzcurly;
pos = (1637,1341);
}
);
hints = (
{
horizontal = 1;
options = 4;
origin = (0,42);
target = (0,48);
type = TTStem;
},
{
horizontal = 1;
options = 4;
origin = (0,48);
target = (0,27);
type = TTShift;
},
{
horizontal = 1;
options = 4;
origin = (0,42);
target = (0,33);
type = TTShift;
},
{
horizontal = 1;
options = 4;
origin = (0,61);
target = (0,67);
type = TTStem;
},
{
horizontal = 1;
options = 4;
origin = (0,61);
target = (0,14);
type = TTShift;
},
{
horizontal = 1;
options = 4;
origin = (0,67);
target = (0,55);
type = TTShift;
},
{
horizontal = 1;
options = 4;
origin = (0,67);
target = (0,8);
type = TTShift;
},
{
horizontal = 1;
options = 4;
origin = (0,67);
target = (0,20);
type = TTShift;
},
{
horizontal = 1;
options = 4;
origin = (0,61);
target = (0,76);
type = TTShift;
},
{
horizontal = 1;
options = 4;
origin = (0,76);
target = (0,37);
type = TTShift;
}
);
layerId = master01;
shapes = (
{
closed = 1;
nodes = (
(901,-23,o),
(909,-17,o),
(914,-6,cs),
(1415,1066,l),
(1425,1066,l),
(1429,186,ls),
(1429,108,o),
(1379,69,o),
(1280,69,cs),
(1261,69,o),
(1260,-7,o),
(1280,-7,c),
(1358,-2,o),
(1436,0,o),
(1514,0,cs),
(1592,0,o),
(1670,-2,o),
(1748,-7,c),
(1767,-7,o),
(1768,69,o),
(1748,69,cs),
(1643,69,o),
(1590,108,o),
(1589,186,cs),
(1582,1106,ls),
(1581,1235,o),
(1635,1287,o),
(1770,1287,cs),
(1789,1287,o),
(1790,1363,o),
(1770,1363,c),
(1721,1359,o),
(1673,1358,o),
(1624,1358,cs),
(1488,1358,o),
(1463,1349,o),
(1436,1291,cs),
(942,221,l),
(923,221,l),
(434,1285,ls),
(405,1348,o),
(378,1358,o),
(247,1358,cs),
(197,1358,o),
(147,1359,o),
(97,1363,c),
(78,1363,o),
(79,1287,o),
(97,1287,cs),
(233,1287,o),
(294,1238,o),
(287,1130,cs),
(228,186,ls),
(223,108,o),
(171,69,o),
(71,69,cs),
(53,69,o),
(52,-7,o),
(71,-7,c),
(137,-2,o),
(203,0,o),
(270,0,cs),
(336,0,o),
(402,-2,o),
(468,-7,c),
(487,-7,o),
(488,69,o),
(468,69,cs),
(373,69,o),
(305,95,o),
(310,186,cs),
(363,1066,l),
(378,1066,l),
(870,-6,ls),
(875,-17,o),
(883,-23,o),
(892,-23,cs)
);
}
);
width = 1848;
},
{
anchors = (
{
name = bottom;
pos = (895,0);
},
{
name = top;
pos = (944,1358);
},
{
name = zzcurly;
pos = (1642,1341);
}
);
layerId = "75918100-ED89-42A8-B0FE-888EB9C86810";
shapes = (
{
closed = 1;
nodes = (
(923,-18,o),
(935,-11,o),
(942,4,cs),
(1427,999,l),
(1439,999,l),
(1446,209,ls),
(1447,127,o),
(1395,86,o),
(1293,86,cs),
(1273,86,o),
(1272,-6,o),
(1293,-6,c),
(1384,-2,o),
(1476,0,o),
(1567,0,cs),
(1658,0,o),
(1750,-2,o),
(1841,-6,c),
(1861,-6,o),
(1862,86,o),
(1841,86,cs),
(1735,86,o),
(1681,127,o),
(1680,209,cs),
(1669,1124,ls),
(1668,1228,o),
(1713,1270,o),
(1827,1270,cs),
(1846,1270,o),
(1847,1364,o),
(1827,1364,c),
(1778,1359,o),
(1683,1358,o),
(1634,1358,cs),
(1513,1358,o),
(1487,1346,o),
(1453,1276,cs),
(990,325,l),
(969,325,l),
(496,1270,ls),
(460,1343,o),
(423,1358,o),
(281,1358,cs),
(223,1358,o),
(158,1359,o),
(100,1364,c),
(83,1364,o),
(83,1270,o),
(100,1270,cs),
(241,1270,o),
(282,1235,o),
(274,1116,cs),
(213,211,l),
(210,128,o),
(159,86,o),
(61,86,cs),
(42,86,o),
(41,-6,o),
(61,-6,c),
(132,-2,o),
(204,0,o),
(275,0,cs),
(346,0,o),
(418,-2,o),
(489,-6,c),
(507,-6,o),
(508,86,o),
(489,86,cs),
(360,86,o),
(312,108,o),
(319,207,cs),
(371,999,l),
(382,999,l),
(881,4,ls),
(888,-10,o),
(896,-18,o),
(910,-18,cs)
);
}
);
width = 1906;
},
{
anchors = (
{
name = bottom;
pos = (871,0);
},
{
name = top;
pos = (920,1358);
},
{
name = zzcurly;
pos = (1638,1341);
}
);
layerId = "6ABD9449-5E80-4451-809E-12ADEB9E9AB4";
shapes = (
{
closed = 1;
nodes = (
(872,-25,o),
(878,-19,o),
(883,-9,cs),
(1412,1088,l),
(1423,1088,l),
(1426,178,ls),
(1426,102,o),
(1376,63,o),
(1278,63,cs),
(1260,63,o),
(1259,-7,o),
(1278,-7,c),
(1352,-2,o),
(1425,0,o),
(1499,0,cs),
(1573,0,o),
(1646,-2,o),
(1720,-7,c),
(1738,-7,o),
(1739,63,o),
(1720,63,cs),
(1615,63,o),
(1561,102,o),
(1561,178,cs),
(1556,1100,ls),
(1555,1237,o),
(1612,1293,o),
(1754,1293,cs),
(1773,1293,o),
(1774,1363,o),
(1754,1363,c),
(1705,1359,o),
(1672,1358,o),
(1623,1358,cs),
(1486,1358,o),
(1458,1349,o),
(1433,1296,cs),
(904,186,l),
(885,186,l),
(416,1290,ls),
(391,1348,o),
(363,1358,o),
(238,1358,cs),
(191,1358,o),
(146,1359,o),
(99,1363,c),
(79,1363,o),
(80,1293,o),
(99,1293,cs),
(233,1293,o),
(300,1239,o),
(294,1135,cs),
(236,178,l),
(230,101,o),
(178,63,o),
(77,63,cs),
(59,63,o),
(58,-7,o),
(77,-7,c),
(141,-2,o),
(205,0,o),
(271,0,cs),
(335,0,o),
(399,-2,o),
(464,-7,c),
(483,-7,o),
(484,63,o),
(464,63,cs),
(380,63,o),
(305,91,o),
(310,179,cs),
(363,1088,l),
(378,1088,l),
(845,-9,ls),
(849,-19,o),
(857,-25,o),
(865,-25,cs)
);
}
);
width = 1838;
},
{
anchors = (
{
name = bottom;
pos = (754,0);
},
{
name = top;
pos = (795,1358);
},
{
name = zzcurly;
pos = (1396,1341);
}
);
layerId = "70B83247-6FA0-4662-9656-C86DD2A17D3B";
shapes = (
{
closed = 1;
nodes = (
(775,-21,o),
(782,-15,o),
(787,-3,cs),
(1209,1044,l),
(1219,1044,l),
(1225,187,ls),
(1226,108,o),
(1182,69,o),
(1096,69,cs),
(1080,69,o),
(1079,-7,o),
(1095,-7,c),
(1166,-2,o),
(1237,0,o),
(1307,0,cs),
(1377,0,o),
(1449,-2,o),
(1519,-7,c),
(1536,-7,o),
(1537,69,o),
(1520,69,cs),
(1431,69,o),
(1386,108,o),
(1385,187,cs),
(1376,1118,ls),
(1375,1230,o),
(1411,1287,o),
(1527,1287,cs),
(1542,1287,o),
(1544,1363,o),
(1527,1363,c),
(1485,1359,o),
(1427,1358,o),
(1387,1358,cs),
(1279,1358,o),
(1255,1347,o),
(1230,1286,cs),
(817,257,l),
(801,257,l),
(392,1280,ls),
(365,1347,o),
(341,1358,o),
(224,1358,cs),
(179,1358,o),
(132,1359,o),
(86,1363,c),
(71,1363,o),
(72,1287,o),
(86,1287,cs),
(204,1287,o),
(249,1243,o),
(243,1132,cs),
(193,188,ls),
(189,107,o),
(142,69,o),
(60,69,cs),
(45,69,o),
(44,-7,o),
(60,-7,c),
(118,-2,o),
(177,0,o),
(235,0,cs),
(293,0,o),
(350,-2,o),
(408,-7,c),
(423,-7,o),
(425,69,o),
(408,69,cs),
(316,69,o),
(265,93,o),
(270,187,cs),
(315,1044,l),
(326,1044,l),
(744,-3,ls),
(749,-16,o),
(757,-21,o),
(765,-21,cs)
);
}
);
width = 1593;
},
{
anchors = (
{
name = bottom;
pos = (993,0);
},
{
name = top;
pos = (1050,1358);
},
{
name = zzcurly;
pos = (1875,1341);
}
);
layerId = "9E6FDE2E-55A6-44A9-9556-F1822294BF26";
shapes = (
{
closed = 1;
nodes = (
(1025,-25,o),
(1034,-19,o),
(1039,-9,cs),
(1618,1088,l),
(1628,1088,l),
(1630,185,ls),
(1630,108,o),
(1573,69,o),
(1461,69,cs),
(1439,69,o),
(1438,-7,o),
(1462,-7,c),
(1547,-2,o),
(1632,0,o),
(1718,0,cs),
(1804,0,o),
(1888,-2,o),
(1974,-7,c),
(1995,-7,o),
(1996,69,o),
(1973,69,cs),
(1852,69,o),
(1790,108,o),
(1790,185,cs),
(1786,1094,ls),
(1785,1240,o),
(1856,1287,o),
(2010,1287,cs),
(2033,1287,o),
(2033,1363,o),
(2010,1363,c),
(1954,1359,o),
(1916,1358,o),
(1858,1358,cs),
(1694,1358,o),
(1668,1351,o),
(1639,1296,cs),
(1064,187,l),
(1042,187,l),
(473,1290,ls),
(443,1349,o),
(417,1358,o),
(272,1358,cs),
(217,1358,o),
(164,1359,o),
(110,1363,c),
(87,1363,o),
(88,1287,o),
(110,1287,cs),
(264,1287,o),
(341,1233,o),
(333,1128,cs),
(265,184,ls),
(260,109,o),
(202,69,o),
(84,69,cs),
(63,69,o),
(62,-7,o),
(84,-7,c),
(158,-2,o),
(231,0,o),
(307,0,cs),
(381,0,o),
(456,-2,o),
(530,-7,c),
(553,-7,o),
(553,69,o),
(530,69,cs),
(432,69,o),
(346,97,o),
(352,185,cs),
(413,1088,l),
(427,1088,l),
(994,-9,ls),
(999,-18,o),
(1007,-25,o),
(1017,-25,cs)
);
}
);
width = 2103;
},
{
anchors = (
{
name = bottom;
pos = (875,0);
},
{
name = top;
pos = (924,1358);
},
{
name = zzcurly;
pos = (1637,1341);
}
);
layerId = "00F4936D-6309-4DEC-83B3-42806ED1A477";
shapes = (
{
closed = 1;
nodes = (
(901,-23,o),
(909,-17,o),
(914,-6,cs),
(1415,1066,l),
(1425,1066,l),
(1429,186,ls),
(1429,108,o),
(1379,69,o),
(1280,69,cs),
(1261,69,o),
(1260,-7,o),
(1280,-7,c),
(1358,-2,o),
(1436,0,o),
(1514,0,cs),
(1592,0,o),
(1670,-2,o),
(1748,-7,c),
(1767,-7,o),
(1768,69,o),
(1748,69,cs),
(1643,69,o),
(1590,108,o),
(1589,186,cs),
(1582,1106,ls),
(1581,1235,o),
(1635,1287,o),
(1770,1287,cs),
(1789,1287,o),
(1790,1363,o),
(1770,1363,c),
(1721,1359,o),
(1673,1358,o),
(1624,1358,cs),
(1488,1358,o),
(1463,1349,o),
(1436,1291,cs),
(942,221,l),
(923,221,l),
(434,1285,ls),
(405,1348,o),
(378,1358,o),
(247,1358,cs),
(197,1358,o),
(147,1359,o),
(97,1363,c),
(78,1363,o),
(79,1287,o),
(97,1287,cs),
(233,1287,o),
(294,1238,o),
(287,1130,cs),
(228,186,ls),
(223,108,o),
(171,69,o),
(71,69,cs),
(53,69,o),
(52,-7,o),
(71,-7,c),
(137,-2,o),
(203,0,o),
(270,0,cs),
(336,0,o),
(402,-2,o),
(468,-7,c),
(487,-7,o),
(488,69,o),
(468,69,cs),
(373,69,o),
(305,95,o),
(310,186,cs),
(363,1066,l),
(378,1066,l),
(870,-6,ls),
(875,-17,o),
(883,-23,o),
(892,-23,cs)
);
}
);
width = 1848;
}
);
unicode = 77;
}
{
glyphname = N;
kernLeft = KO_H;
kernRight = KO_N;
layers = (
{
anchors = (
{
name = bottom;
pos = (389,0);
},
{
name = top;
pos = (374,663);
},
{
name = zzcurly;
pos = (531,655);
}
);
layerId = master01;
shapes = (
{
closed = 1;
nodes = (
(638,-10,o),
(641,-6,o),
(641,0,cs),
(641,572,ls),
(641,609,o),
(663,628,o),
(707,628,cs),
(716,628,o),
(716,666,o),
(707,666,c),
(677,664,o),
(646,663,o),
(616,663,cs),
(585,663,o),
(555,664,o),
(524,666,c),
(515,666,o),
(514,628,o),
(524,628,cs),
(580,628,o),
(608,609,o),
(608,572,cs),
(608,143,l),
(600,143,l),
(215,639,ls),
(206,650,o),
(196,657,o),
(186,660,cs),
(175,662,o),
(154,663,o),
(120,663,cs),
(96,663,o),
(72,664,o),
(48,666,c),
(39,666,o),
(38,628,o),
(48,628,cs),
(113,628,o),
(139,604,o),
(139,542,cs),
(139,91,ls),
(139,53,o),
(112,34,o),
(58,34,cs),
(49,34,o),
(48,-3,o),
(58,-3,c),
(90,-1,o),
(122,0,o),
(154,0,cs),
(186,0,o),
(218,-1,o),
(250,-3,c),
(259,-3,o),
(259,34,o),
(250,34,cs),
(198,34,o),
(173,53,o),
(173,91,cs),
(173,550,l),
(180,550,l),
(616,0,ls),
(620,-5,o),
(627,-10,o),
(633,-10,cs)
);
}
);
width = 736;
},
{
anchors = (
{
name = bottom;
pos = (388,0);
},
{
name = top;
pos = (372,663);
},
{
name = zzcurly;
pos = (523,655);
}
);
layerId = "75918100-ED89-42A8-B0FE-888EB9C86810";
shapes = (
{
closed = 1;
nodes = (
(635,-10,o),
(640,-3,o),
(640,6,cs),
(640,562,ls),
(640,601,o),
(662,620,o),
(706,620,cs),
(715,620,o),
(715,666,o),
(706,666,c),
(674,664,o),
(642,663,o),
(610,663,cs),
(578,663,o),
(546,664,o),
(515,666,c),
(505,666,o),
(505,620,o),
(515,620,cs),
(565,620,o),
(590,601,o),
(590,562,cs),
(590,192,l),
(582,192,l),
(219,634,ls),
(206,650,o),
(189,655,o),
(178,659,cs),
(167,663,o),
(132,663,o),
(108,663,cs),
(84,663,o),
(60,664,o),
(36,666,c),
(27,666,o),
(27,620,o),
(36,620,cs),
(92,620,o),
(120,602,o),
(120,564,cs),
(120,94,ls),
(120,56,o),
(95,42,o),
(43,42,cs),
(33,42,o),
(34,-3,o),
(43,-3,c),
(77,-1,o),
(110,0,o),
(144,0,cs),
(177,0,o),
(211,-1,o),
(245,-3,c),
(255,-3,o),
(254,42,o),
(245,42,cs),
(195,42,o),
(171,56,o),
(171,94,cs),
(171,504,l),
(179,504,l),
(599,6,ls),
(609,-6,o),
(616,-10,o),
(625,-10,cs)
);
}
);
width = 731;
},
{
anchors = (
{
name = bottom;
pos = (392,0);
},
{
name = top;
pos = (377,663);
},
{
name = zzcurly;
pos = (543,655);
}
);
layerId = "6ABD9449-5E80-4451-809E-12ADEB9E9AB4";
shapes = (
{
closed = 1;
nodes = (
(642,-10,o),
(644,-8,o),
(644,0,cs),
(644,575,ls),
(644,612,o),
(666,631,o),
(710,631,cs),
(718,631,o),
(719,666,o),
(710,666,c),
(680,664,o),
(650,663,o),
(620,663,cs),
(590,663,o),
(560,664,o),
(530,666,c),
(520,666,o),
(520,631,o),
(530,631,cs),
(587,631,o),
(616,612,o),
(616,575,cs),
(616,126,l),
(608,126,l),
(216,641,ls),
(208,650,o),
(201,656,o),
(192,659,cs),
(181,662,o),
(145,663,o),
(120,663,cs),
(97,663,o),
(75,664,o),
(52,666,c),
(43,666,o),
(42,631,o),
(52,631,cs),
(121,631,o),
(146,605,o),
(146,535,cs),
(146,88,ls),
(146,50,o),
(118,31,o),
(63,31,cs),
(54,31,o),
(53,-3,o),
(63,-3,c),
(95,-1,o),
(127,0,o),
(159,0,cs),
(191,0,o),
(223,-1,o),
(255,-3,c),
(263,-3,o),
(264,31,o),
(255,31,cs),
(202,31,o),
(176,50,o),
(176,88,cs),
(176,564,l),
(183,564,l),
(622,0,ls),
(628,-7,o),
(633,-10,o),
(637,-10,cs)
);
}
);
width = 741;
},
{
anchors = (
{
name = bottom;
pos = (317,0);
},
{
name = top;
pos = (304,663);
},
{
name = zzcurly;
pos = (433,655);
}
);
layerId = "70B83247-6FA0-4662-9656-C86DD2A17D3B";
shapes = (
{
closed = 1;
nodes = (
(515,-10,o),
(518,-6,o),
(518,0,cs),
(518,571,ls),
(518,609,o),
(535,628,o),
(570,628,cs),
(578,628,o),
(578,666,o),
(570,666,c),
(546,664,o),
(521,663,o),
(496,663,cs),
(471,663,o),
(446,664,o),
(422,666,c),
(414,666,o),
(414,629,o),
(422,629,cs),
(465,629,o),
(486,609,o),
(486,572,cs),
(486,157,l),
(480,157,l),
(178,638,ls),
(170,650,o),
(160,657,o),
(152,660,cs),
(142,663,o),
(132,663,o),
(102,663,cs),
(82,663,o),
(61,664,o),
(40,666,c),
(33,666,o),
(33,628,o),
(40,628,cs),
(94,628,o),
(111,601,o),
(111,551,cs),
(111,91,ls),
(111,53,o),
(90,34,o),
(47,34,cs),
(40,34,o),
(40,-3,o),
(47,-3,c),
(73,-1,o),
(99,0,o),
(126,0,cs),
(152,0,o),
(178,-1,o),
(204,-3,c),
(211,-3,o),
(211,34,o),
(204,34,cs),
(163,34,o),
(143,53,o),
(143,91,cs),
(143,536,l),
(149,536,l),
(494,0,ls),
(498,-7,o),
(503,-10,o),
(509,-10,cs)
);
}
);
width = 595;
},
{
anchors = (
{
name = bottom;
pos = (461,0);
},
{
name = top;
pos = (442,663);
},
{
name = zzcurly;
pos = (629,655);
}
);
layerId = "9E6FDE2E-55A6-44A9-9556-F1822294BF26";
shapes = (
{
closed = 1;
nodes = (
(759,-10,o),
(762,-6,o),
(762,0,cs),
(762,572,ls),
(762,610,o),
(789,628,o),
(842,628,cs),
(853,628,o),
(853,666,o),
(842,666,c),
(807,664,o),
(770,663,o),
(734,663,cs),
(697,663,o),
(662,664,o),
(625,666,c),
(614,666,o),
(613,628,o),
(625,628,cs),
(693,628,o),
(728,610,o),
(728,572,cs),
(728,128,l),
(719,128,l),
(250,641,ls),
(240,651,o),
(230,658,o),
(218,660,cs),
(207,662,o),
(176,663,o),
(137,663,cs),
(109,663,o),
(82,663,o),
(53,666,c),
(43,666,o),
(42,628,o),
(53,628,cs),
(131,628,o),
(166,608,o),
(166,533,cs),
(166,91,ls),
(166,52,o),
(132,34,o),
(67,34,cs),
(56,34,o),
(55,-3,o),
(67,-3,c),
(105,-1,o),
(143,0,o),
(181,0,cs),
(219,0,o),
(256,-1,o),
(295,-3,c),
(305,-3,o),
(306,34,o),
(295,34,cs),
(232,34,o),
(201,52,o),
(201,91,cs),
(201,564,l),
(210,564,l),
(736,0,ls),
(740,-3,o),
(749,-10,o),
(755,-10,cs)
);
}
);
width = 877;
},
{
anchors = (
{
name = bottom;
pos = (389,0);
},
{
name = top;
pos = (374,663);
},
{
name = zzcurly;
pos = (531,655);
}
);
layerId = "00F4936D-6309-4DEC-83B3-42806ED1A477";
shapes = (
{
closed = 1;
nodes = (
(638,-10,o),
(641,-6,o),
(641,0,cs),
(641,572,ls),
(641,609,o),
(663,628,o),
(707,628,cs),
(716,628,o),
(716,666,o),
(707,666,c),
(677,664,o),
(646,663,o),
(616,663,cs),
(585,663,o),
(555,664,o),
(524,666,c),
(515,666,o),
(514,628,o),
(524,628,cs),
(580,628,o),
(608,609,o),
(608,572,cs),
(608,143,l),
(600,143,l),
(215,639,ls),
(206,650,o),
(196,657,o),
(186,660,cs),
(175,662,o),
(154,663,o),
(120,663,cs),
(96,663,o),
(72,664,o),
(48,666,c),
(39,666,o),
(38,628,o),
(48,628,cs),
(113,628,o),
(139,604,o),
(139,542,cs),
(139,91,ls),
(139,53,o),
(112,34,o),
(58,34,cs),
(49,34,o),
(48,-3,o),
(58,-3,c),
(90,-1,o),
(122,0,o),
(154,0,cs),
(186,0,o),
(218,-1,o),
(250,-3,c),
(259,-3,o),
(259,34,o),
(250,34,cs),
(198,34,o),
(173,53,o),
(173,91,cs),
(173,550,l),
(180,550,l),
(616,0,ls),
(620,-5,o),
(627,-10,o),
(633,-10,cs)
);
}
);
width = 736;
}
);
metricLeft = B;
unicode = 78;
userData = {
KernOnName = N;
};
}
{
glyphname = O;
kernLeft = C;
kernRight = O;
layers = (
{
anchors = (
{
name = bottom;
pos = (357,0);
},
{
name = center;
pos = (348,332);
},
{
name = ogonek;
pos = (472,10);
},
{
name = ogonek_above;
pos = (343,653);
},
{
name = top;
pos = (357,663);
},
{
name = topleft;
pos = (10,663);
},
{
name = topright;
pos = (611,614);
},
{
name = zzcurly;
pos = (338,655);
}
);
hints = (
{
horizontal = 1;
options = 4;
origin = (0,5);
target = (1,5);
type = TTStem;
},
{
horizontal = 1;
options = 4;
origin = (0,11);
target = (1,11);
type = TTStem;
}
);
layerId = master01;
shapes = (
{
closed = 1;
nodes = (
(536,-13,o),
(675,140,o),
(675,332,cs),
(675,523,o),
(536,676,o),
(360,676,cs),
(184,676,o),
(44,523,o),
(44,332,cs),
(44,140,o),
(184,-13,o),
(360,-13,cs)
);
},
{
closed = 1;
nodes = (
(233,23,o),
(138,156,o),
(138,333,cs),
(138,509,o),
(233,642,o),
(360,642,cs),
(487,642,o),
(582,509,o),
(582,333,cs),
(582,156,o),
(487,23,o),
(360,23,cs)
);
}
);
width = 713;
},
{
anchors = (
{
name = bottom;
pos = (381,0);
},
{
name = center;
pos = (366,332);
},
{
name = ogonek;
pos = (491,10);
},
{
name = ogonek_above;
pos = (355,653);
},
{
name = top;
pos = (381,663);
},
{
name = topleft;
pos = (19,663);
},
{
name = topright;
pos = (629,614);
},
{
name = zzcurly;
pos = (352,655);
}
);
layerId = "75918100-ED89-42A8-B0FE-888EB9C86810";
shapes = (
{
closed = 1;
nodes = (
(563,-13,o),
(707,135,o),
(707,332,cs),
(707,528,o),
(563,676,o),
(372,676,cs),
(180,676,o),
(36,528,o),
(36,332,cs),
(36,135,o),
(180,-13,o),
(372,-13,cs)
);
},
{
closed = 1;
nodes = (
(256,33,o),
(169,162,o),
(169,333,cs),
(169,504,o),
(256,633,o),
(372,633,cs),
(487,633,o),
(574,504,o),
(574,333,cs),
(574,162,o),
(487,33,o),
(372,33,cs)
);
}
);
width = 737;
},
{
anchors = (
{
name = bottom;
pos = (351,0);
},
{
name = center;
pos = (344,332);
},
{
name = ogonek;
pos = (464,10);
},
{
name = ogonek_above;
pos = (340,653);
},
{
name = top;
pos = (351,663);
},
{
name = topleft;
pos = (8,663);
},
{
name = topright;
pos = (606,614);
},
{
name = zzcurly;
pos = (335,655);
}
);
layerId = "6ABD9449-5E80-4451-809E-12ADEB9E9AB4";
shapes = (
{
closed = 1;
nodes = (
(528,-13,o),
(666,141,o),
(666,332,cs),
(666,522,o),
(528,676,o),
(357,676,cs),
(187,676,o),
(49,522,o),
(49,332,cs),
(49,141,o),
(187,-13,o),
(357,-13,cs)
);
},
{
closed = 1;
nodes = (
(227,20,o),
(129,154,o),
(129,333,cs),
(129,511,o),
(227,645,o),
(357,645,cs),
(488,645,o),
(586,511,o),
(586,333,cs),
(586,154,o),
(488,20,o),
(357,20,cs)
);
}
);
width = 708;
},
{
anchors = (
{
name = bottom;
pos = (295,0);
},
{
name = center;
pos = (290,332);
},
{
name = ogonek;
pos = (386,10);
},
{
name = ogonek_above;
pos = (284,653);
},
{
name = top;
pos = (297,663);
},
{
name = topleft;
pos = (15,663);
},
{
name = topright;
pos = (499,614);
},
{
name = zzcurly;
pos = (281,655);
}
);
layerId = "70B83247-6FA0-4662-9656-C86DD2A17D3B";
shapes = (
{
closed = 1;
nodes = (
(440,-13,o),
(554,140,o),
(554,332,cs),
(554,523,o),
(440,676,o),
(296,676,cs),
(152,676,o),
(38,523,o),
(38,332,cs),
(38,140,o),
(152,-13,o),
(296,-13,cs)
);
},
{
closed = 1;
nodes = (
(199,23,o),
(131,151,o),
(131,333,cs),
(131,514,o),
(199,642,o),
(296,642,cs),
(393,642,o),
(461,514,o),
(461,333,cs),
(461,151,o),
(393,23,o),
(296,23,cs)
);
}
);
width = 586;
},
{
anchors = (
{
name = bottom;
pos = (420,0);
},
{
name = center;
pos = (408,332);
},
{
name = ogonek;
pos = (552,10);
},
{
name = ogonek_above;
pos = (404,653);
},
{
name = top;
pos = (418,663);
},
{
name = topleft;
pos = (6,663);
},
{
name = topright;
pos = (725,614);
},
{
name = zzcurly;
pos = (396,655);
}
);
layerId = "9E6FDE2E-55A6-44A9-9556-F1822294BF26";
shapes = (
{
closed = 1;
nodes = (
(633,-13,o),
(798,140,o),
(798,332,cs),
(798,523,o),
(633,676,o),
(426,676,cs),
(218,676,o),
(53,523,o),
(53,332,cs),
(53,140,o),
(218,-13,o),
(426,-13,cs)
);
},
{
closed = 1;
nodes = (
(270,23,o),
(146,160,o),
(146,333,cs),
(146,505,o),
(270,642,o),
(426,642,cs),
(582,642,o),
(705,505,o),
(705,333,cs),
(705,160,o),
(582,23,o),
(426,23,cs)
);
}
);
width = 844;
},
{
anchors = (
{
name = bottom;
pos = (357,0);
},
{
name = center;
pos = (348,332);
},
{
name = ogonek;
pos = (470,10);
},
{
name = ogonek_above;
pos = (343,653);
},
{
name = top;
pos = (357,663);
},
{
name = topleft;
pos = (10,663);
},
{
name = topright;
pos = (611,614);
},
{
name = zzcurly;
pos = (338,655);
}
);
layerId = "00F4936D-6309-4DEC-83B3-42806ED1A477";
shapes = (
{
closed = 1;
nodes = (
(536,-13,o),
(675,140,o),
(675,332,cs),
(675,523,o),
(536,676,o),
(360,676,cs),
(184,676,o),
(44,523,o),
(44,332,cs),
(44,140,o),
(184,-13,o),
(360,-13,cs)
);
},
{
closed = 1;
nodes = (
(233,23,o),
(138,156,o),
(138,333,cs),
(138,509,o),
(233,642,o),
(360,642,cs),
(487,642,o),
(582,509,o),
(582,333,cs),
(582,156,o),
(487,23,o),
(360,23,cs)
);
}
);
width = 713;
}
);
unicode = 79;
}
